SplineFontDB: 3.2
FontName: Hypnogogia3
FullName: Hypnogogia3
FamilyName: Hypnogogia
Weight: Regular
Copyright: 
Version: 3
ItalicAngle: 0
UnderlinePosition: 0
UnderlineWidth: 0
Ascent: 819
Descent: 205
InvalidEm: 0
LayerCount: 2
Layer: 0 0 "Back" 1
Layer: 1 0 "Fore" 0
XUID: [1021 307 1127429350 10517]
OS2Version: 0
OS2_WeightWidthSlopeOnly: 0
OS2_UseTypoMetrics: 0
CreationTime: 1633092523
ModificationTime: 1633093361
PfmFamily: 17
TTFWeight: 400
TTFWidth: 5
LineGap: 92
VLineGap: 92
OS2TypoAscent: 0
OS2TypoAOffset: 1
OS2TypoDescent: 0
OS2TypoDOffset: 1
OS2TypoLinegap: 92
OS2WinAscent: 0
OS2WinAOffset: 1
OS2WinDescent: 0
OS2WinDOffset: 1
HheadAscent: 0
HheadAOffset: 1
HheadDescent: 0
HheadDOffset: 1
OS2Vendor: 'PfEd'
MarkAttachClasses: 1
DEI: 91125
Encoding: Original
UnicodeInterp: none
NameList: ΤεΧ Names
DisplaySize: -48
AntiAlias: 1
FitToEm: 0
WidthSeparation: 154
WinInfo: 0 38 14
BeginPrivate: 0
EndPrivate
BeginChars: 103 103

StartChar: uni0000
Encoding: 0 0 0
Width: 407
VWidth: 1079
Flags: HW
LayerCount: 2
Fore
SplineSet
179.411132812 582.158203125 m 0
 165.07421875 581.901367188 151.221679688 574.234375 145.608398438 556.67578125 c 0
 130.653320312 535.649414062 116.872070312 513.70703125 104.4375 491.068359375 c 1
 95.916015625 494.204101562 87.275390625 496.971679688 78.4189453125 499.081054688 c 0
 33.8154296875 520.186523438 0.6513671875 450.099609375 45.2548828125 428.994140625 c 0
 51.515625 425.625976562 57.84375 422.391601562 64.2275390625 419.26171875 c 1
 58.298828125 408.6015625 52.498046875 397.872070312 46.9892578125 386.9765625 c 0
 37.75 366.430664062 23.9951171875 347.889648438 14.765625 327.3515625 c 0
 -3.4560546875 297.668945312 34.0634765625 253.069335938 68.326171875 277.233398438 c 0
 74.2978515625 284.827148438 80.271484375 292.420898438 86.244140625 300.014648438 c 0
 104.000976562 319.869140625 114.493164062 345.118164062 128.200195312 367.69921875 c 0
 131.965820312 374.212890625 135.723632812 380.73046875 139.467773438 387.254882812 c 1
 162.284179688 378.267578125 185.297851562 369.73046875 208.590820312 362.083007812 c 0
 210.499023438 360.97265625 252.685546875 346.990234375 246.600585938 353.897460938 c 1
 288.090820312 331.615234375 323.103515625 396.809570312 281.61328125 419.091796875 c 0
 268.172851562 427.817382812 253.278320312 432.545898438 238.198242188 437.794921875 c 0
 218.397460938 444.451171875 198.890625 451.993164062 179.54296875 459.893554688 c 1
 193.046875 484.149414062 207.024414062 508.20703125 219.184570312 533.159179688 c 0
 228.5390625 562.423828125 203.305664062 582.583984375 179.411132812 582.158203125 c 0
342.755859375 301.142578125 m 1
 315.16796875 301.353515625 287.3671875 270.369140625 307.426757812 240.758789062 c 0
 308.822265625 238.27734375 310.21875 235.795898438 311.61328125 233.314453125 c 0
 317.693359375 220.819335938 320.374023438 207.721679688 319.643554688 193.787109375 c 0
 319.262695312 187.543945312 318.78515625 183.448242188 316.001953125 177.802734375 c 0
 315.706054688 177.202148438 315.005859375 176.162109375 314.408203125 175.2890625 c 0
 313.678710938 175.280273438 313.055664062 175.256835938 312.12890625 175.271484375 c 0
 294.244140625 181.084960938 280.78515625 195.228515625 267.758789062 208.1953125 c 0
 255.688476562 221.573242188 243.534179688 235 234.26953125 250.552734375 c 0
 218.100585938 274.213867188 164.04296875 233.604492188 162.166992188 224.90625 c 0
 160.78515625 218.501953125 164.529296875 211.9609375 163.913085938 205.514648438 c 0
 165.26171875 187.716796875 165.694335938 170.224609375 159.424804688 153.166992188 c 0
 156.94140625 146.370117188 156.407226562 144.155273438 153.046875 137.8359375 c 0
 151.848632812 135.583007812 147.340820312 129.43359375 149.118164062 131.264648438 c 0
 151.303710938 133.514648438 153.000976562 135.342773438 154.388671875 136.889648438 c 1
 153.663085938 135.352539062 153.09375 133.6640625 152.961914062 131.950195312 c 0
 150.329101562 125.024414062 146.227539062 120.612304688 138.50390625 121.6171875 c 0
 126.411132812 124.682617188 120.211914062 134.015625 116.909179688 145.584960938 c 0
 110.904296875 168.266601562 109.412109375 191.6015625 104.528320312 214.502929688 c 0
 96.09375 262.83203125 20.150390625 249.578125 28.5849609375 201.249023438 c 1
 27.5283203125 171.169921875 33.4130859375 142.108398438 42.2607421875 113.557617188 c 0
 54.384765625 82.1611328125 77.630859375 60.9091796875 108.59765625 49.1396484375 c 0
 136.448242188 40.5126953125 162.440429688 46.7353515625 186.647460938 61.5146484375 c 0
 209.233398438 79.0283203125 223.69140625 103.102539062 233.200195312 129.278320312 c 1
 247.764648438 117.639648438 263.991210938 108.565429688 282.1875 101.94140625 c 0
 310 94.134765625 334.524414062 100.637695312 358.239257812 115.53515625 c 0
 388.685546875 138.57421875 397.62109375 170.203125 397.76953125 205.86328125 c 0
 397.971679688 231.159179688 389.21875 255.041992188 376.705078125 276.650390625 c 0
 375.19140625 279.3046875 373.678710938 281.958984375 372.1640625 284.61328125 c 0
 364.315429688 296.200195312 353.551757812 301.060546875 342.755859375 301.142578125 c 1
325.013671875 189.8203125 m 0
 325.266601562 189.736328125 325.1171875 188.3359375 324.922851562 185.358398438 c 0
 322.702148438 180.73828125 324.373046875 183.012695312 319.163085938 179.153320312 c 0
 318.118164062 177.34375 323.569335938 175.442382812 314.671875 175.291992188 c 1
 322.12890625 184.322265625 324.48046875 189.994140625 325.013671875 189.8203125 c 0
EndSplineSet
EndChar

StartChar: A
Encoding: 1 65 1
Width: 388
VWidth: 1081
Flags: HW
LayerCount: 2
Fore
SplineSet
194.435546875 637.998046875 m 1
 183.8515625 638.020507812 173.421875 636.456054688 163.418945312 632.07421875 c 0
 152.240234375 627.063476562 142.419921875 620.434570312 133.287109375 612.275390625 c 0
 120.130859375 596.26171875 106.557617188 581.541992188 99.8212890625 561.899414062 c 0
 95.2548828125 554.838867188 92.5849609375 546.620117188 89.0166015625 539.044921875 c 0
 84.1064453125 529.473632812 80.9130859375 519.1875 77.3740234375 509.056640625 c 0
 74.1923828125 497.934570312 70.8818359375 486.836914062 68.4033203125 475.532226562 c 0
 65.7197265625 465.010742188 63.7568359375 454.334960938 61.2255859375 443.774414062 c 0
 59.0078125 431.33984375 56.201171875 419.020507812 54.0361328125 406.576171875 c 0
 51.203125 392.64453125 49.00390625 378.602539062 46.3046875 364.643554688 c 0
 43.556640625 347.169921875 40.3203125 329.77734375 37.7646484375 312.272460938 c 0
 34.7705078125 293.202148438 32.1162109375 274.080078125 29.4384765625 254.961914062 c 0
 26.849609375 237.653320312 24.408203125 220.321289062 21.7919921875 203.018554688 c 0
 19.4130859375 185.390625 17.2041015625 167.720703125 16.1318359375 149.956054688 c 0
 15.0185546875 132.436523438 14.0927734375 114.921875 14.2216796875 97.3564453125 c 0
 13.966796875 82.6748046875 13.6884765625 67.98828125 12.8447265625 53.326171875 c 0
 12.1884765625 43.0048828125 11.46875 32.6708984375 10 22.4267578125 c 0
 13.451171875 -40.123046875 111.739257812 -34.7001953125 108.288085938 27.849609375 c 0
 109.416992188 40.0634765625 110.122070312 52.3056640625 110.637695312 64.55859375 c 0
 111.220703125 80.228515625 111.435546875 95.908203125 111.625 111.5859375 c 0
 111.3203125 127.932617188 113.052734375 144.189453125 114.00390625 160.491210938 c 0
 115.509765625 174.486328125 117.508789062 188.40234375 119.37109375 202.34765625 c 1
 131.032226562 202.704101562 142.665039062 203.580078125 154.301757812 204.474609375 c 0
 170.21875 205.33203125 186.037109375 207.301757812 201.897460938 208.825195312 c 0
 215.24609375 209.993164062 228.4765625 212.169921875 241.7734375 213.799804688 c 0
 249.68359375 214.7578125 257.625976562 215.387695312 265.577148438 215.87109375 c 0
 266.0078125 212.525390625 266.424804688 209.1796875 266.813476562 205.828125 c 0
 268.384765625 187.631835938 271.017578125 169.561523438 273.09765625 151.420898438 c 0
 274.57421875 137.096679688 277.184570312 122.922851562 278.86328125 108.615234375 c 0
 280.017578125 98.416015625 280.600585938 88.1630859375 281.051757812 77.912109375 c 0
 281.438476562 68.4306640625 281.612304688 58.939453125 281.751953125 49.4501953125 c 0
 282.212890625 46.6748046875 282.760742188 44.2353515625 280.474609375 45.662109375 c 1
 282.763671875 -16.9404296875 381.133789062 -13.3427734375 378.844726562 49.259765625 c 0
 379.033203125 54.99609375 378.926757812 60.7021484375 378.712890625 66.4365234375 c 0
 378.453125 76.88671875 378.125 87.3388671875 377.46484375 97.7724609375 c 0
 376.65625 109.8984375 375.610351562 122.009765625 373.955078125 134.053710938 c 0
 372.03125 148.075195312 369.75390625 162.046875 368.379882812 176.138671875 c 0
 366.147460938 194.399414062 363.98828125 212.666015625 361.993164062 230.953125 c 0
 359.08984375 253.127929688 355.788085938 275.252929688 352.26953125 297.336914062 c 0
 348.109375 321.23046875 344.131835938 345.155273438 339.610351562 368.985351562 c 0
 334.610351562 394.104492188 329.547851562 419.220703125 323.725585938 444.1640625 c 0
 318.453125 465.901367188 312.712890625 487.537109375 305.1484375 508.608398438 c 0
 300.299804688 523.403320312 295.709960938 538.283203125 290.731445312 553.034179688 c 0
 286.372070312 565.25390625 281.66796875 577.399414062 275.06640625 588.615234375 c 0
 267.913085938 600.145507812 259.85546875 611.021484375 248.813476562 619.174804688 c 0
 236.79296875 627.952148438 223.8125 634.719726562 208.934570312 637.098632812 c 0
 204.0859375 637.649414062 199.24609375 637.98828125 194.435546875 637.998046875 c 1
201.891601562 549.310546875 m 1
 202.056640625 549.301757812 202.115234375 549.224609375 201.98828125 549.049804688 c 0
 199.717773438 545.952148438 197.48046875 543.01171875 195.34375 540.24609375 c 1
 195.749023438 541.3359375 196.172851562 542.481445312 196.4921875 543.333984375 c 0
 200.099609375 546.625976562 194.318359375 541.060546875 199.5390625 548.220703125 c 0
 199.919921875 548.7421875 201.393554688 549.338867188 201.891601562 549.310546875 c 1
189.900390625 540.28125 m 0
 189.991210938 540.140625 190.103515625 539.987304688 190.205078125 539.841796875 c 1
 189.756835938 539.98828125 189.537109375 540.140625 189.900390625 540.28125 c 0
192.015625 536.897460938 m 1
 192.100585938 536.686523438 192.168945312 536.47265625 192.223632812 536.255859375 c 0
 190.50390625 534.075195312 188.924804688 532.086914062 187.685546875 530.551757812 c 1
 187.17578125 533.430664062 191.918945312 534.166015625 192.015625 536.897460938 c 1
192.771484375 534.421875 m 2
 196.56640625 527.153320312 198.786132812 519.205078125 201.49609375 511.473632812 c 0
 205.909179688 496.998046875 210.467773438 482.551757812 215.374023438 468.231445312 c 0
 221.998046875 449.545898438 226.796875 430.264648438 231.068359375 410.923828125 c 0
 236.439453125 386.84765625 241.381835938 362.670898438 246.033203125 338.443359375 c 0
 247.5390625 329.834960938 249.036132812 321.225585938 250.533203125 312.615234375 c 1
 248.795898438 312.473632812 247.056640625 312.342773438 245.321289062 312.172851562 c 0
 232.515625 310.907226562 219.739257812 309.336914062 207.059570312 307.127929688 c 0
 191.623046875 305.838867188 176.260742188 303.848632812 160.826171875 302.698242188 c 0
 151.83203125 302.083007812 142.865234375 301.141601562 133.87890625 300.559570312 c 1
 134.641601562 305.448242188 135.397460938 310.338867188 136.158203125 315.228515625 c 0
 139.314453125 331.927734375 141.15625 348.930664062 144.739257812 365.54296875 c 0
 146.921875 379.259765625 149.8984375 392.791992188 152.473632812 406.432617188 c 0
 155.0703125 418.021484375 156.235351562 430.147460938 159.639648438 441.5390625 c 0
 161.594726562 451.971679688 164.552734375 462.111328125 166.791015625 472.470703125 c 0
 169.903320312 480.681640625 171.267578125 489.403320312 175.111328125 497.340820312 c 0
 177.885742188 505.936523438 182.71484375 513.360351562 185.924804688 521.765625 c 0
 189.018554688 524.73828125 189.504882812 529.208984375 191.341796875 532.866210938 c 0
 191.640625 533.4609375 192.370117188 533.747070312 192.715820312 534.31640625 c 0
 192.734375 534.34765625 192.751953125 534.391601562 192.771484375 534.421875 c 2
EndSplineSet
EndChar

StartChar: B
Encoding: 2 66 2
Width: 377
VWidth: 1087
Flags: HW
LayerCount: 2
Fore
SplineSet
28.78515625 32.7763671875 m 2
 30.5830078125 45.978515625 31.7119140625 59.2578125 32.6689453125 72.5439453125 c 0
 33.642578125 87.615234375 34.1259765625 102.711914062 34.5263671875 117.807617188 c 0
 35.4794921875 132.146484375 34.4384765625 146.40234375 33.333984375 160.689453125 c 0
 31.9453125 177.541015625 31.123046875 194.428710938 30.4775390625 211.323242188 c 0
 29.8544921875 224.826171875 28.017578125 238.25 26.56640625 251.68359375 c 0
 24.1259765625 266.124023438 21.8330078125 280.576171875 20.1181640625 295.122070312 c 0
 18.404296875 308.15234375 18.36328125 321.330078125 16.8662109375 334.370117188 c 0
 14.82421875 348.423828125 13.2314453125 362.528320312 12.03515625 376.677734375 c 0
 10.861328125 391.375976562 10.294921875 406.11328125 10 420.852539062 c 0
 10.43359375 433.247070312 12.005859375 445.560546875 13.013671875 457.915039062 c 0
 14.1767578125 471.154296875 14.0390625 484.466796875 15.396484375 497.68359375 c 0
 16.716796875 513.13671875 20.74609375 527.97265625 25.482421875 542.659179688 c 0
 34.3134765625 565.772460938 50.958984375 585.694335938 70.494140625 600.690429688 c 0
 82.2685546875 609.665039062 94.8818359375 616.130859375 108.9609375 620.859375 c 0
 125.627929688 625.625976562 143.4140625 625.77734375 160.567382812 624.163085938 c 0
 176.135742188 623.205078125 190.924804688 618.927734375 205.46875 613.583984375 c 0
 221.590820312 607.188476562 235.078125 597.22265625 247.067382812 584.85546875 c 0
 258.411132812 573.59375 266.220703125 559.920898438 272.35546875 545.311523438 c 0
 278.177734375 530.264648438 280.875976562 514.444335938 281.293945312 498.379882812 c 0
 281.546875 482.846679688 278.854492188 467.305664062 272.631835938 453.041015625 c 0
 264.0703125 430.759765625 248.048828125 415.16796875 232.037109375 397.572265625 c 0
 222.35546875 387.776367188 209.370117188 381.20703125 196.852539062 375.7109375 c 0
 177.966796875 368.466796875 166.520507812 367.227539062 146.774414062 372.010742188 c 1
 137.25390625 393.666992188 118.353515625 413.323242188 118.212890625 436.98046875 c 0
 118.078125 459.73828125 151.541992188 471.776367188 169.55859375 473.767578125 c 0
 174.125976562 474.272460938 180.108398438 473.92578125 184.833984375 473.752929688 c 0
 196.278320312 473.71875 207.46875 472.684570312 218.728515625 470.68359375 c 0
 232.512695312 468.458984375 245.693359375 463.33203125 258.258789062 457.384765625 c 0
 271.084960938 451.754882812 282.243164062 443.525390625 292.749023438 434.393554688 c 0
 302.03125 426.193359375 310.038085938 416.82421875 317.709960938 407.140625 c 0
 326.0078125 396.122070312 332.37109375 383.940429688 337.7109375 371.266601562 c 0
 342.73828125 360.401367188 346.755859375 349.11328125 351.059570312 337.951171875 c 0
 355.873046875 325.23046875 358.69921875 311.911132812 360.6953125 298.494140625 c 0
 363.802734375 284.043945312 366.578125 269.559570312 367.48828125 254.791015625 c 0
 367.734375 241.444335938 367.08984375 228.096679688 366.650390625 214.759765625 c 0
 365.025390625 202.122070312 363.797851562 189.362304688 361.413085938 176.840820312 c 0
 358.681640625 164.1171875 355.696289062 151.387695312 351.583007812 139.030273438 c 0
 347.680664062 127.784179688 343.971679688 116.416015625 339.064453125 105.555664062 c 0
 333.87890625 92.908203125 327.258789062 80.970703125 320.674804688 69.0087890625 c 0
 307.737304688 49.970703125 293.951171875 31.03125 275.693359375 16.771484375 c 0
 265.524414062 6.4013671875 252.235351562 -0.8525390625 239.166015625 -6.9619140625 c 0
 229.130859375 -15.4892578125 215.217773438 -16.3779296875 204.041992188 -22.3662109375 c 0
 190.283203125 -28.0498046875 175.694335938 -31.0224609375 160.899414062 -31.9775390625 c 0
 145.641601562 -32.794921875 130.524414062 -30.263671875 115.90234375 -26.115234375 c 0
 106.467773438 -23.61328125 97.740234375 -19.1728515625 89.2470703125 -14.48828125 c 0
 35.009765625 18.1142578125 86.2392578125 103.338867188 140.4765625 70.736328125 c 1
 143.294921875 69.4775390625 145.788085938 68.2265625 148.8671875 67.6982421875 c 0
 154.19921875 67.16796875 159.108398438 65.98828125 164.443359375 67.3974609375 c 0
 170.942382812 70.7314453125 178.9375 71.4287109375 185.30078125 75.2890625 c 0
 194.754882812 78.5302734375 202.822265625 83.5869140625 211.48046875 88.54296875 c 0
 217.930664062 93.5498046875 223.588867188 98.98828125 229.353515625 104.75 c 0
 234.692382812 113.284179688 246.752929688 125.512695312 217.747070312 91.1103515625 c 0
 214.521484375 87.2861328125 230.725585938 106.314453125 227.157226562 102.805664062 c 1
 234.375 107.5078125 236.359375 117.650390625 241.395507812 124.21875 c 0
 245.318359375 133.01953125 249.993164062 141.512695312 252.840820312 150.7578125 c 0
 256.254882812 160.045898438 259.919921875 169.264648438 262 179.005859375 c 0
 262.620117188 181.3359375 263.8359375 183.497070312 264.326171875 185.858398438 c 0
 265.823242188 193.063476562 265.322265625 200.711914062 267.455078125 207.833984375 c 0
 270.849609375 217.209960938 267.521484375 228.397460938 269.450195312 238.16015625 c 0
 270.357421875 248.114257812 268.629882812 257.73046875 266.21484375 267.495117188 c 0
 264.141601562 276.778320312 263.491210938 286.25 261.150390625 295.478515625 c 0
 258.159179688 304.775390625 254.145507812 313.702148438 250.840820312 322.877929688 c 0
 247.555664062 329.797851562 245.444335938 337.194335938 241.1953125 343.631835938 c 0
 237.193359375 349.297851562 232.814453125 354.39453125 227.750976562 359.140625 c 0
 223 363.268554688 218.20703125 367.135742188 211.99609375 369.365234375 c 0
 206.150390625 371.9296875 200.091796875 373.80078125 193.725585938 374.442382812 c 0
 186.881835938 375.275390625 179.875 374.897460938 172.975585938 375.025390625 c 0
 169.911132812 373.736328125 176.865234375 374.311523438 182.317382812 375.427734375 c 0
 195.296875 378.086914062 213.2265625 390.611328125 212.125 404.299804688 c 0
 210.29296875 427.095703125 191.3203125 445.034179688 180.91796875 465.401367188 c 0
 177.533203125 466.192382812 174.149414062 466.983398438 170.765625 467.776367188 c 0
 168.451171875 467.864257812 166.090820312 467.56640625 163.823242188 468.038085938 c 0
 161.015625 468.624023438 171.8125 469.206054688 170.728515625 471.655273438 c 0
 175.625976562 475.630859375 179.32421875 479.544921875 183.377929688 484.291015625 c 1
 177.325195312 477.385742188 171.043945312 470.674804688 165.219726562 463.578125 c 0
 164.797851562 463.063476562 166.594726562 463.89453125 167.040039062 464.38671875 c 0
 168.206054688 465.678710938 168.715820312 467.474609375 169.892578125 468.754882812 c 0
 170.271484375 469.16796875 171.12890625 468.825195312 171.500976562 469.244140625 c 0
 172.53515625 470.41015625 172.836914062 472.115234375 173.892578125 473.260742188 c 0
 174.2109375 473.606445312 174.827148438 473.331054688 175.294921875 473.366210938 c 0
 177.622070312 477.791015625 180.83203125 479.184570312 182.96484375 483.583007812 c 0
 183.4140625 490.095703125 184.85546875 495.86328125 182.666015625 502.375976562 c 0
 181.508789062 508.170898438 179.80078125 512.295898438 175.008789062 516.333007812 c 0
 173.379882812 519.608398438 169.256835938 520.775390625 166.067382812 522.286132812 c 0
 158.5703125 524.862304688 150.846679688 526.06640625 142.904296875 526.306640625 c 0
 137.291992188 525.999023438 131.5078125 526.487304688 127.884765625 523.241210938 c 0
 124.130859375 520.405273438 120.084960938 516.779296875 116.639648438 513.670898438 c 0
 116.302734375 513.368164062 116.352539062 512.8125 116.208984375 512.384765625 c 0
 114.858398438 510.319335938 109.798828125 504.883789062 111.35546875 506.796875 c 0
 116.780273438 513.456054688 133.454101562 532.995117188 127.184570312 527.125976562 c 0
 126.147460938 526.154296875 125.841796875 524.499023438 124.6875 523.669921875 c 0
 124.25390625 523.359375 123.698242188 524.0703125 123.203125 524.26953125 c 0
 117.99609375 519.823242188 116.033203125 508.677734375 114.732421875 502.1796875 c 0
 112.573242188 490.856445312 112.254882812 479.504882812 111.944335938 467.91796875 c 0
 111.266601562 456.163085938 110.555664062 444.376953125 108.724609375 432.734375 c 0
 106.061523438 421.623046875 109.706054688 409.444335938 109.12890625 398.134765625 c 0
 109.899414062 385.552734375 110.900390625 372.975585938 112.805664062 360.506835938 c 0
 114.849609375 346.712890625 116.02734375 332.950195312 116.642578125 319.015625 c 0
 117.82421875 305.68359375 119.470703125 292.400390625 122.100585938 279.268554688 c 0
 125.010742188 262.845703125 125.96484375 246.139648438 128.217773438 229.61328125 c 0
 128.684570312 213.836914062 129.211914062 198.055664062 130.391601562 182.313476562 c 0
 131.65234375 165.400390625 133.896484375 148.502929688 133.013671875 131.516601562 c 0
 132.700195312 115.4140625 132.301757812 99.3125 131.529296875 83.2255859375 c 0
 130.776367188 68.2060546875 129.720703125 53.203125 128.071289062 38.2529296875 c 0
 131.555664062 -24.931640625 32.2705078125 -30.408203125 28.78515625 32.7763671875 c 2
EndSplineSet
EndChar

StartChar: C
Encoding: 3 67 3
Width: 359
VWidth: 1073
Flags: HW
LayerCount: 2
Fore
SplineSet
255.72265625 461.35546875 m 0
 251.018554688 472.401367188 244.12109375 482.297851562 237.1484375 492.000976562 c 0
 228.999023438 502.477539062 219.672851562 511.934570312 209.42578125 520.350585938 c 0
 203.490234375 523.104492188 194.706054688 530.768554688 187.874023438 527.651367188 c 0
 183.166015625 526.702148438 183.602539062 523.814453125 181.416992188 520.7109375 c 0
 180.438476562 519.3203125 179.109375 518.21484375 177.95703125 516.966796875 c 0
 176.947265625 515.397460938 175.938476562 513.829101562 174.930664062 512.26171875 c 0
 173.685546875 510.182617188 169.365234375 504.439453125 171.196289062 506.025390625 c 0
 175.756835938 509.979492188 178.865234375 515.393554688 183.286132812 519.50390625 c 0
 185.900390625 521.935546875 178.743164062 513.985351562 176.647460938 511.09375 c 0
 168.567382812 499.946289062 162.485351562 487.7734375 156.275390625 475.536132812 c 0
 140.421875 442.081054688 130.567382812 406.327148438 121.9765625 370.453125 c 0
 111.901367188 329.579101562 108.204101562 287.72265625 108.286132812 245.740234375 c 0
 108.716796875 213.515625 113.48046875 181.713867188 125.443359375 151.747070312 c 0
 134.515625 134.48828125 142.400390625 126.54296875 161.282226562 122.561523438 c 0
 180.330078125 121.911132812 198.380859375 127.166992188 215.033203125 136.069335938 c 0
 232.797851562 145.453125 248.955078125 158.368164062 262.255859375 173.431640625 c 0
 270.87890625 185.390625 268.119140625 181.186523438 251.862304688 162.493164062 c 1
 275.548828125 221.174804688 367.756835938 183.953125 344.0703125 125.2734375 c 1
 316.145507812 91.529296875 328.388671875 103.8984375 309.649414062 86.015625 c 0
 286.807617188 66.630859375 262.23046875 49.259765625 234.04296875 38.466796875 c 0
 198.291992188 26.1416015625 161.428710938 20.0283203125 124.194335938 30.3017578125 c 0
 118.18359375 32.5166015625 111.990234375 34.2890625 106.16015625 36.947265625 c 0
 75.2900390625 51.029296875 52.8310546875 76.140625 37.2568359375 105.802734375 c 0
 20.533203125 144.999023438 11.3994140625 186.267578125 10.267578125 229.004882812 c 0
 9.03515625 277.4765625 11.87109375 325.965820312 22.583984375 373.415039062 c 0
 31.9775390625 415.190429688 42.4970703125 456.698242188 59.0390625 496.3359375 c 0
 77.046875 535.515625 96.505859375 573.890625 131.166992188 601.549804688 c 0
 155.952148438 618.721679688 179.4140625 628.485351562 210.216796875 624.545898438 c 0
 233.232421875 619.977539062 254.581054688 611.33203125 273.169921875 596.666992188 c 0
 288.454101562 583.795898438 302.686523438 569.749023438 314.952148438 553.921875 c 0
 325.6015625 539.381835938 335.841796875 524.452148438 343.501953125 508.073242188 c 0
 373.232421875 452.209960938 285.453125 405.493164062 255.72265625 461.35546875 c 0
EndSplineSet
EndChar

StartChar: D
Encoding: 4 68 4
Width: 376
VWidth: 1082
Flags: HW
LayerCount: 2
Fore
SplineSet
130.659179688 649.060546875 m 0
 77.6962890625 651.826171875 18.2158203125 617.348632812 12.13671875 560.991210938 c 0
 7.2109375 519.782226562 12.6455078125 478.198242188 10.4921875 436.830078125 c 0
 9.6982421875 334.056640625 9.5849609375 231.149414062 17.78515625 128.642578125 c 0
 19.6943359375 91.314453125 17.13671875 52.599609375 27.2919921875 16.4873046875 c 0
 36.8037109375 -13.3984375 60.9072265625 -41.76953125 95.3955078125 -33.8916015625 c 1
 138.537109375 -32.0478515625 181.92578125 -23.4111328125 221.916992188 -7.1025390625 c 0
 297.118164062 29.5859375 339.065429688 111.171875 352.153320312 190.880859375 c 0
 364.288085938 268.265625 371.9609375 347.229492188 361.741210938 425.322265625 c 0
 354.409179688 481.493164062 344.784179688 541.314453125 306.088867188 585.439453125 c 0
 276.397460938 622.387695312 230.887695312 645.4921875 183.379882812 646.625 c 0
 165.842773438 648.095703125 148.237304688 648.34765625 130.659179688 649.060546875 c 0
112.580078125 560.575195312 m 1
 107.83203125 535.047851562 148.079101562 556.370117188 163.890625 549.212890625 c 1
 193.8359375 549.754882812 224.802734375 536.580078125 239.0078125 508.889648438 c 0
 261.973632812 468.48046875 261.713867188 420.350585938 267.525390625 375.46484375 c 0
 270.971679688 304.1328125 263.025390625 232.21875 245.524414062 163.059570312 c 0
 238.146484375 138.403320312 214.15625 99.0458984375 202.291015625 94.724609375 c 0
 182.134765625 78.001953125 155.120117188 73.2041015625 130.012695312 68.630859375 c 1
 105.305664062 75.017578125 122.079101562 117.369140625 115.557617188 138.986328125 c 0
 112.748046875 201.40625 107.4921875 263.689453125 108.529296875 326.244140625 c 0
 108.154296875 399.848632812 109.311523438 473.459960938 108.150390625 547.060546875 c 1
 95.5 527.07421875 110.190429688 559.34765625 112.580078125 560.575195312 c 1
207.938476562 99.0849609375 m 1
 213.047851562 101.805664062 218.256835938 112.883789062 210.680664062 103.224609375 c 2
 207.938476562 99.0849609375 l 1
EndSplineSet
EndChar

StartChar: E
Encoding: 5 69 5
Width: 370
VWidth: 1086
Flags: HW
LayerCount: 2
Fore
SplineSet
166.280273438 636.540039062 m 1
 125 632.764648438 77.5048828125 635.225585938 45.08984375 604.83203125 c 0
 17.0009765625 580.626953125 11.6064453125 542 14.3046875 507.112304688 c 0
 15.3330078125 411.329101562 15.53515625 315.48828125 14.7685546875 219.73046875 c 0
 9.3828125 165.124023438 6.5498046875 109.797851562 17.431640625 55.64453125 c 0
 18.9541015625 26.2509765625 28.2568359375 -5.1953125 54.7724609375 -21.5380859375 c 0
 84.8876953125 -40.650390625 123.037109375 -37.6015625 157.258789062 -37.275390625 c 0
 199.572265625 -31.9375 241.868164062 -25.5693359375 284.668945312 -26.1552734375 c 0
 314.604492188 -26.8173828125 354.9453125 -21.18359375 359.260742188 15.6494140625 c 0
 366.71484375 45.4501953125 341.764648438 80.5234375 309.471679688 75.013671875 c 0
 264.002929688 69.60546875 217.616210938 73.1259765625 172.537109375 63.3173828125 c 0
 153.140625 63.3681640625 110.85546875 48.3974609375 113.799804688 78.9482421875 c 1
 101.465820312 135.41796875 113.559570312 192.750976562 113.458007812 249.651367188 c 1
 140.14453125 250.8203125 171.4296875 237.479492188 193.701171875 257.7109375 c 0
 220.157226562 280.557617188 216.06640625 332.365234375 179.841796875 342.973632812 c 0
 160.481445312 353.301757812 118.872070312 336.329101562 113.33203125 357.576171875 c 0
 107.868164062 552.9453125 72.3359375 534.862304688 245.5078125 537.885742188 c 0
 265.504882812 539.12890625 286.267578125 534.778320312 305.471679688 541.220703125 c 0
 342.840820312 557.23046875 343.5078125 621.248046875 303.181640625 634.038085938 c 0
 280.502929688 639.041992188 256.790039062 635.465820312 233.641601562 636.540039062 c 2
 166.280273438 636.540039062 l 1
EndSplineSet
EndChar

StartChar: F
Encoding: 6 70 6
Width: 329
VWidth: 1082
Flags: HW
LayerCount: 2
Fore
SplineSet
260.66015625 632.592773438 m 1
 256.064453125 632.645507812 251.4375 632.522460938 246.73828125 632.337890625 c 0
 233.387695312 632.240234375 220.03515625 632.12109375 206.686523438 631.842773438 c 0
 193.098632812 631.534179688 179.505859375 631.154296875 165.940429688 630.2578125 c 0
 151.489257812 629.213867188 137.018554688 627.899414062 122.833007812 624.8203125 c 0
 109.043945312 621.559570312 96.0908203125 616.692382812 83.1357421875 611.106445312 c 0
 54.54296875 598.279296875 34.9697265625 578.52734375 24.978515625 547.646484375 c 0
 20.7802734375 532.4609375 18.2900390625 517.206054688 17.3642578125 501.459960938 c 0
 15.7060546875 488.015625 13.8818359375 474.587890625 14.3466796875 460.995117188 c 0
 14.115234375 448.12109375 13.8291015625 435.245117188 13.2041015625 422.381835938 c 0
 12.54296875 409.586914062 11.6337890625 396.80859375 10.541015625 384.043945312 c 0
 9.53125 368.727539062 10 353.44921875 11.40234375 338.162109375 c 0
 12.1357421875 329.333984375 13.0703125 320.524414062 13.9365234375 311.709960938 c 0
 13.1611328125 304.995117188 13.55859375 298.125 15.1318359375 291.591796875 c 0
 15.140625 281.522460938 15.326171875 271.455078125 15.404296875 261.38671875 c 0
 15.603515625 248.038085938 15.84765625 234.688476562 16.4091796875 221.349609375 c 0
 17.0185546875 207.951171875 17.7958984375 194.553710938 19.2890625 181.21875 c 0
 20.5166015625 170.249023438 22.1806640625 159.301757812 21.556640625 148.23046875 c 2
 21.556640625 107.247070312 l 1
 21.556640625 64.142578125 l 1
 21.556640625 22.224609375 l 1
 31.4560546875 -40.27734375 129.66796875 -24.7236328125 119.768554688 37.7783203125 c 1
 119.768554688 79.69921875 l 1
 119.768554688 122.803710938 l 1
 119.768554688 163.784179688 l 2
 119.708007812 177.577148438 117.118164062 191.2265625 115.8515625 204.955078125 c 0
 114.861328125 216.608398438 114.4375 228.295898438 114.08203125 239.982421875 c 0
 113.89453125 246.711914062 113.76953125 253.443359375 113.668945312 260.173828125 c 0
 115.64453125 260.270507812 117.62109375 260.373046875 119.595703125 260.466796875 c 0
 182.633789062 254.922851562 191.34375 353.975585938 128.305664062 359.51953125 c 0
 121.725585938 359.22265625 115.146484375 358.95703125 108.568359375 358.623046875 c 0
 108.547851562 358.947265625 108.521484375 359.272460938 108.500976562 359.595703125 c 0
 106.846679688 370.954101562 108.487304688 381.943359375 109.555664062 393.208007812 c 0
 110.786132812 406.912109375 111.408203125 420.659179688 111.911132812 434.405273438 c 0
 112.374023438 448.044921875 112.580078125 461.69140625 112.74609375 475.3359375 c 0
 113.329101562 486.318359375 115.505859375 497.202148438 116.569335938 508.233398438 c 0
 116.825195312 511.359375 116.950195312 515.263671875 117.459960938 519.120117188 c 0
 122.385742188 521.615234375 127.497070312 523.938476562 132.606445312 525.864257812 c 0
 141.62109375 528.88671875 151.110351562 529.9765625 160.517578125 530.970703125 c 0
 172.45703125 532.106445312 184.444335938 532.552734375 196.426757812 532.936523438 c 0
 209.274414062 533.311523438 222.126953125 533.46875 234.978515625 533.598632812 c 0
 241.234375 533.657226562 247.4921875 533.697265625 253.749023438 533.733398438 c 0
 257.508789062 533.755859375 256.958007812 533.752929688 257.903320312 533.756835938 c 0
 305.998046875 520.65234375 345.739257812 593.534179688 296.783203125 624.208007812 c 0
 292.369140625 626.252929688 287.956054688 628.297851562 283.541015625 630.342773438 c 0
 275.885742188 631.927734375 268.318359375 632.504882812 260.66015625 632.592773438 c 1
126.46875 533.923828125 m 0
 129.750976562 534.442382812 123.392578125 526.129882812 117.541992188 519.720703125 c 1
 118.265625 524.7421875 119.721679688 529.608398438 123.249023438 532.458984375 c 0
 124.764648438 533.360351562 125.810546875 533.8203125 126.46875 533.923828125 c 0
116.560546875 518.677734375 m 1
 111.481445312 513.249023438 107.235351562 509.744140625 110.80078125 515.595703125 c 0
 112.676757812 516.64453125 114.603515625 517.672851562 116.560546875 518.677734375 c 1
EndSplineSet
EndChar

StartChar: G
Encoding: 7 71 7
Width: 438
VWidth: 1078
Flags: HW
LayerCount: 2
Fore
SplineSet
228.060546875 640.9375 m 0
 169.95703125 643.512695312 123.924804688 600.197265625 92.0673828125 556.266601562 c 0
 65.994140625 521.58203125 43.576171875 483.501953125 33.5673828125 440.8515625 c 0
 19.4169921875 396.522460938 9.80859375 350.650390625 10.0830078125 303.903320312 c 0
 8.73046875 239.029296875 24.0263671875 173.819335938 51.8046875 115.311523438 c 0
 82.6396484375 61.375 132.64453125 15.8076171875 192.647460938 -2.541015625 c 0
 215.750976562 -8.822265625 240.149414062 -10.2900390625 263.764648438 -6.1103515625 c 1
 295.327148438 -18.330078125 331.728515625 -5.458984375 358.434570312 12.875 c 0
 409.848632812 50.146484375 426.747070312 117.365234375 428.05859375 177.768554688 c 0
 428.153320312 211.115234375 406.983398438 245.283203125 373.04296875 252.65234375 c 0
 348.107421875 259.69140625 321.732421875 253.243164062 296.58984375 259.978515625 c 0
 267.400390625 263.22265625 227.301757812 272.55859375 212.434570312 238.208007812 c 0
 195.76171875 209.884765625 212.834960938 166.70703125 247.93359375 165.305664062 c 0
 269.422851562 160.846679688 314.84375 169.540039062 302.038085938 137.638671875 c 1
 298.173828125 98.470703125 251.487304688 82.2666015625 218.087890625 93.091796875 c 0
 181.104492188 107.958007812 149.58984375 138.2734375 133.4140625 174.73046875 c 0
 104.66796875 245.901367188 99.482421875 326.884765625 123.297851562 400.200195312 c 0
 132.145507812 442.619140625 152.744140625 481.624023438 180.959960938 514.28125 c 0
 193.756835938 530.90234375 162.952148438 493.63671875 180.787109375 515.594726562 c 0
 195.383789062 534.59375 220.979492188 553.544921875 244.484375 536.3125 c 1
 270.88671875 526.399414062 298.528320312 499.5859375 327.763671875 516.567382812 c 0
 358.756835938 532.735351562 366.659179688 584.099609375 333.833984375 602.734375 c 0
 300.426757812 619.474609375 266.66015625 640.8359375 228.060546875 640.9375 c 0
305.19921875 127.612304688 m 1
 299.791992188 121.252929688 296.9140625 118.518554688 305.19921875 127.612304688 c 1
295.106445312 116.095703125 m 1
 287.686523438 104.491210938 282.219726562 102.831054688 295.106445312 116.095703125 c 1
EndSplineSet
EndChar

StartChar: H
Encoding: 8 72 8
Width: 398
VWidth: 1082
Flags: HW
LayerCount: 2
Fore
SplineSet
73.5087890625 640.673828125 m 1
 47.8798828125 640.28125 22.3544921875 623.044921875 24.15234375 590.46484375 c 0
 22.515625 575.713867188 21.5068359375 560.907226562 20.677734375 546.091796875 c 0
 19.146484375 529.038085938 21.2314453125 511.999023438 22.2802734375 494.98046875 c 0
 23.279296875 478.290039062 23.74609375 461.573242188 24.1376953125 444.859375 c 0
 24.515625 426.510742188 24.6689453125 408.15625 24.8056640625 389.8046875 c 0
 24.9111328125 374.458007812 24.9609375 359.110351562 25.001953125 343.76171875 c 1
 5.083984375 325.456054688 5.546875 290.698242188 23.1474609375 270.944335938 c 1
 21.9111328125 254.06640625 21.0419921875 237.162109375 20.3349609375 220.254882812 c 0
 19.6611328125 203.040039062 19.3544921875 185.815429688 19.0927734375 168.58984375 c 0
 18.8759765625 153.548828125 18.7744140625 138.506835938 18.6943359375 123.463867188 c 0
 18.6240234375 109.596679688 18.5927734375 95.7275390625 18.568359375 81.859375 c 0
 18.544921875 68.40234375 18.5341796875 54.943359375 18.52734375 41.4853515625 c 0
 16.107421875 33.1083984375 21.9755859375 17.453125 20.349609375 10.4189453125 c 0
 33.5810546875 -51.462890625 130.8203125 -30.66796875 117.588867188 31.2138671875 c 0
 116.44921875 39.796875 116.579101562 48.3203125 116.750976562 56.9833984375 c 0
 116.762695312 70.4013671875 116.775390625 83.8193359375 116.809570312 97.2373046875 c 0
 116.844726562 110.991210938 116.889648438 124.743164062 116.98828125 138.49609375 c 0
 117.099609375 153.240234375 117.23828125 167.985351562 117.518554688 182.725585938 c 0
 117.84765625 199.186523438 118.245117188 215.646484375 119.065429688 232.090820312 c 0
 119.704101562 244.747070312 120.493164062 257.393554688 121.330078125 270.036132812 c 0
 125.891601562 270.741210938 130.465820312 271.376953125 135.052734375 271.916992188 c 0
 148.758789062 273.370117188 162.541992188 273.91796875 176.311523438 274.418945312 c 0
 190.901367188 274.93359375 205.500976562 275.021484375 220.092773438 275.479492188 c 0
 233.598632812 276.577148438 247.04296875 278.252929688 260.545898438 279.399414062 c 0
 266.04296875 279.864257812 271.552734375 280.189453125 277.063476562 280.459960938 c 1
 277.05859375 273.791015625 277.0546875 267.123046875 277.052734375 260.453125 c 0
 277.049804688 247.083984375 277.048828125 233.712890625 277.046875 220.342773438 c 0
 277.046875 207.047851562 277.043945312 193.755859375 277.043945312 180.4609375 c 0
 277.043945312 167.19140625 277.043945312 153.922851562 277.043945312 140.65234375 c 0
 277.043945312 127.389648438 277.043945312 114.126953125 277.043945312 100.864257812 c 0
 277.131835938 86.751953125 276.500976562 72.6630859375 278.045898438 58.6240234375 c 0
 277.10546875 55.029296875 282.934570312 41.11328125 279.967773438 38.6962890625 c 0
 291.9140625 -23.4462890625 389.563476562 -4.67578125 377.6171875 57.466796875 c 0
 376.647460938 64.9599609375 375.600585938 72.4580078125 375.15625 80.0048828125 c 0
 375.53125 92.1357421875 375.084960938 104.286132812 375.255859375 116.420898438 c 0
 375.255859375 129.682617188 375.255859375 142.9453125 375.255859375 156.206054688 c 0
 375.255859375 169.4765625 375.255859375 182.745117188 375.255859375 196.014648438 c 0
 375.255859375 209.306640625 375.2578125 222.598632812 375.258789062 235.890625 c 0
 375.260742188 249.254882812 375.266601562 262.620117188 375.270507812 275.983398438 c 0
 375.276367188 289.567382812 375.284179688 303.149414062 375.298828125 316.732421875 c 0
 375.314453125 330.979492188 375.333984375 345.225585938 375.375976562 359.470703125 c 0
 375.427734375 375.416015625 375.490234375 391.362304688 375.616210938 407.306640625 c 0
 375.76171875 424.08203125 375.94140625 440.859375 376.36328125 457.629882812 c 0
 376.801757812 473.926757812 377.32421875 490.228515625 378.560546875 506.48828125 c 0
 379.81640625 522.017578125 381.45703125 537.50390625 383.866210938 552.900390625 c 0
 385.788085938 567.2109375 386.599609375 581.63671875 388.600585938 595.940429688 c 0
 386.913085938 626.545898438 362.749023438 641.04296875 338.672851562 640.673828125 c 0
 313.045898438 640.28125 287.517578125 623.044921875 289.313476562 590.46484375 c 0
 288.298828125 576.45703125 286.594726562 562.629882812 284.514648438 548.76953125 c 0
 281.954101562 531.506835938 280.69921875 514.08984375 279.607421875 496.682617188 c 0
 278.643554688 479.124023438 278.2265625 461.545898438 277.870117188 443.965820312 c 0
 277.547851562 426.764648438 277.420898438 409.55859375 277.310546875 392.353515625 c 0
 277.284179688 387.969726562 277.28125 383.586914062 277.260742188 379.202148438 c 0
 273.8203125 379.01953125 270.377929688 378.821289062 266.93359375 378.630859375 c 0
 253.369140625 377.731445312 239.807617188 376.64453125 226.342773438 374.719726562 c 0
 213.184570312 372.399414062 199.485351562 374.569335938 186.194335938 373.36328125 c 0
 170.564453125 372.931640625 154.930664062 372.395507812 139.331054688 371.259765625 c 0
 133.92578125 370.787109375 128.5234375 370.260742188 123.129882812 369.645507812 c 1
 123.080078125 381.77734375 123.014648438 393.909179688 122.904296875 406.041015625 c 0
 122.725585938 424.887695312 122.510742188 443.734375 121.981445312 462.575195312 c 0
 121.447265625 480.240234375 120.752929688 497.901367188 119.567382812 515.53515625 c 0
 118.703125 529.201171875 118.016601562 542.819335938 119.567382812 556.477539062 c 0
 120.530273438 569.661132812 121.650390625 582.838867188 123.434570312 595.940429688 c 0
 121.747070312 626.545898438 97.5830078125 641.04296875 73.5068359375 640.673828125 c 1
 73.5087890625 640.673828125 l 1
EndSplineSet
EndChar

StartChar: I
Encoding: 9 73 9
Width: 295
VWidth: 1079
Flags: HW
LayerCount: 2
Fore
SplineSet
158.418945312 661 m 1
 143.298828125 661.029296875 128.215820312 659.625976562 113.202148438 657.765625 c 0
 99.4384765625 655.903320312 85.8212890625 653.251953125 72.171875 650.989257812 c 0
 8.908203125 652.487304688 6.552734375 553.077148438 69.81640625 551.579101562 c 0
 79.2255859375 552.5234375 88.5302734375 554.140625 97.8330078125 555.786132812 c 1
 97.8330078125 540.90625 l 1
 97.8330078125 495.329101562 l 2
 97.3056640625 479.297851562 95.4189453125 463.291015625 94.37890625 447.25 c 0
 93.2646484375 429.104492188 92.6796875 410.93359375 92.251953125 392.760742188 c 0
 91.87890625 376.099609375 91.685546875 359.435546875 91.5341796875 342.771484375 c 0
 89.2255859375 328.452148438 88.2841796875 313.947265625 87.3037109375 299.48828125 c 0
 86.2509765625 283.70703125 85.8291015625 267.89453125 85.4609375 252.0859375 c 0
 85.1328125 237.104492188 84.98046875 222.12109375 84.857421875 207.138671875 c 0
 84.7509765625 193.251953125 84.7021484375 179.366210938 84.6640625 165.478515625 c 0
 83.763671875 150.935546875 85.5693359375 136.625 87.3564453125 122.236328125 c 0
 88.744140625 110.79296875 89.359375 99.279296875 89.8642578125 87.7685546875 c 0
 89.599609375 80.763671875 91.478515625 73.4892578125 89.662109375 66.6455078125 c 0
 89.7900390625 65.5703125 89.9521484375 64.5224609375 90.1337890625 63.490234375 c 1
 83.0634765625 64.0244140625 76.0009765625 64.6513671875 68.955078125 65.4560546875 c 0
 7.3056640625 79.736328125 -15.1328125 -17.13671875 46.5166015625 -31.4169921875 c 0
 61.240234375 -33.3330078125 76.0380859375 -34.55078125 90.845703125 -35.5830078125 c 0
 107.08984375 -36.9267578125 123.323242188 -37.2060546875 139.583984375 -36.1455078125 c 0
 153.915039062 -34.853515625 168.323242188 -34.4521484375 182.600585938 -32.6298828125 c 0
 189.388671875 -31.5869140625 196.17578125 -30.529296875 202.96484375 -29.4892578125 c 0
 266.157226562 -26.146484375 260.904296875 73.15234375 197.711914062 69.8095703125 c 0
 194.788085938 68.529296875 191.728515625 68.0986328125 188.635742188 67.708984375 c 1
 188.905273438 71.099609375 188.846679688 74.6767578125 188.3984375 78.4404296875 c 0
 188.186523438 88.203125 187.897460938 97.9638671875 187.279296875 107.7109375 c 0
 186.435546875 120.828125 185.313476562 133.923828125 183.666992188 146.96875 c 0
 182.479492188 158.213867188 182.842773438 169.45703125 182.919921875 180.759765625 c 0
 182.974609375 194.471679688 183.04296875 208.184570312 183.192382812 221.895507812 c 0
 183.361328125 236.403320312 183.567382812 250.912109375 184.000976562 265.416015625 c 0
 184.46875 279.947265625 185.086914062 294.4765625 186.2890625 308.96875 c 0
 187.635742188 325.123046875 189.743164062 341.24609375 189.880859375 357.47265625 c 0
 190.077148438 373.66796875 190.314453125 389.86328125 190.794921875 406.052734375 c 0
 191.353515625 423.107421875 192.037109375 440.16015625 193.317382812 457.178710938 c 0
 194.653320312 475.055664062 196.545898438 492.926757812 196.047851562 510.8828125 c 2
 196.047851562 556.459960938 l 1
 196.047851562 559.747070312 l 1
 196.545898438 559.685546875 197.043945312 559.629882812 197.541992188 559.565429688 c 0
 205.182617188 558.581054688 213.46484375 556.352539062 221.178710938 556.389648438 c 0
 221.219726562 556.389648438 221.228515625 556.396484375 221.24609375 556.401367188 c 0
 279.572265625 536.442382812 313.251953125 628.129882812 254.495117188 650.083984375 c 0
 240.916015625 654.209960938 226.915039062 655.381835938 212.893554688 657.399414062 c 0
 196.984375 659.515625 180.903320312 659.7578125 164.899414062 660.89453125 c 0
 162.737304688 660.959960938 160.578125 660.995117188 158.418945312 661 c 1
EndSplineSet
EndChar

StartChar: J
Encoding: 10 74 10
Width: 320
VWidth: 1080
Flags: HW
LayerCount: 2
Fore
SplineSet
101.845703125 651.55078125 m 1
 44.095703125 652.966796875 34.3017578125 560.142578125 95.1220703125 552.459960938 c 1
 137.040039062 552.459960938 l 1
 157.430664062 552.459960938 l 2
 157.827148438 548.75390625 158.204101562 545.044921875 158.51171875 541.333007812 c 0
 159.520507812 528.478515625 159.994140625 515.595703125 160.377929688 502.7109375 c 0
 160.736328125 489.6484375 160.893554688 476.581054688 161.022460938 463.514648438 c 0
 160.645507812 448.934570312 161.377929688 434.540039062 163.114257812 420.076171875 c 0
 164.92578125 408.540039062 165.599609375 397.209960938 164.53515625 385.6640625 c 0
 163.809570312 371.245117188 165.467773438 356.759765625 166.2109375 342.33984375 c 0
 166.838867188 329.502929688 167.131835938 316.653320312 167.37109375 303.805664062 c 0
 167.59375 290.749023438 167.693359375 277.693359375 167.772460938 264.635742188 c 0
 167.846679688 251.446289062 167.877929688 238.256835938 167.904296875 225.067382812 c 0
 167.927734375 211.831054688 167.936523438 198.594726562 167.9453125 185.358398438 c 0
 165.381835938 174.75390625 164.713867188 163.7578125 163.875976562 152.90625 c 0
 162.504882812 142.026367188 160.020507812 131.291992188 158.681640625 120.287109375 c 0
 155.3984375 114.381835938 155.65625 107.329101562 153.853515625 100.998046875 c 0
 153.1796875 98.630859375 151.806640625 96.509765625 151.049804688 94.1689453125 c 0
 149.216796875 88.8583984375 147.7421875 79.6181640625 145.149414062 72.8701171875 c 1
 146.404296875 74.306640625 147.548828125 75.607421875 148.612304688 76.79296875 c 1
 147.4765625 74.9599609375 146.310546875 73.4677734375 144.874023438 72.1875 c 0
 144.053710938 70.171875 143.130859375 68.3974609375 142.046875 67.0810546875 c 0
 141.435546875 65.576171875 141.072265625 63.9462890625 140.212890625 62.5693359375 c 0
 139.278320312 61.072265625 134.145507812 59.42578125 135.21484375 60.8291015625 c 0
 137.930664062 64.3916015625 140.955078125 68.025390625 143.766601562 71.2880859375 c 1
 142.8125 70.5791015625 141.750976562 69.9287109375 140.491210938 69.328125 c 0
 137.80859375 67.1787109375 133.627929688 67.7529296875 130.202148438 67.79296875 c 0
 124.524414062 68.537109375 121.69140625 70.673828125 118.524414062 72.99609375 c 0
 117.473632812 75.73828125 114.364257812 79.15234375 112.919921875 82.9775390625 c 0
 111.528320312 88.8818359375 110.846679688 94.9306640625 110.177734375 100.951171875 c 0
 109.077148438 111.697265625 108.616210938 122.493164062 108.21484375 133.283203125 c 0
 107.171875 143.03125 109.135742188 152.434570312 110.549804688 162.049804688 c 0
 110.450195312 164.73046875 110.34765625 167.411132812 110.248046875 170.091796875 c 0
 101.438476562 232.755859375 2.96875 218.913085938 11.7783203125 156.249023438 c 0
 11.6181640625 156.138671875 11.4599609375 156.02734375 11.30078125 155.91796875 c 0
 9.982421875 141.908203125 9.47265625 127.921875 10.69140625 113.868164062 c 0
 11.4853515625 100.104492188 12.466796875 86.32421875 14.8310546875 72.7265625 c 0
 17.7548828125 57.40234375 21.7333984375 42.2353515625 29.6494140625 28.62890625 c 0
 37.626953125 15.6181640625 46.4541015625 2.9033203125 58.732421875 -6.45703125 c 0
 71.388671875 -15.7646484375 84.90625 -23.4775390625 100.369140625 -27.064453125 c 0
 117.529296875 -31.2177734375 134.9140625 -32.6357421875 152.41796875 -29.390625 c 0
 168.994140625 -25.1650390625 185.27734375 -19.4580078125 198.595703125 -8.3056640625 c 0
 218.579101562 11.5400390625 232.606445312 26.69921875 240.440429688 52.716796875 c 0
 243.625976562 63.984375 247.14453125 75.123046875 250.184570312 86.431640625 c 0
 253.560546875 98.8662109375 256.080078125 111.653320312 258.033203125 124.379882812 c 0
 260.099609375 136.594726562 262.506835938 148.743164062 262.966796875 161.16796875 c 0
 264.368164062 174.404296875 266.51171875 187.626953125 266.1484375 200.979492188 c 0
 266.13671875 214.259765625 266.120117188 227.540039062 266.083984375 240.8203125 c 0
 266.043945312 254.147460938 265.99609375 267.474609375 265.884765625 280.801757812 c 0
 265.76171875 294.263671875 265.612304688 307.725585938 265.278320312 321.184570312 c 0
 264.913085938 334.866210938 264.443359375 348.544921875 263.643554688 362.208984375 c 0
 262.96484375 374.291992188 262.124023438 386.370117188 263.142578125 398.4609375 c 0
 263.125 413.614257812 261.344726562 428.633789062 259.708984375 443.68359375 c 0
 258.809570312 455.775390625 259.500976562 467.935546875 259.073242188 480.052734375 c 0
 258.874023438 493.766601562 258.625976562 507.48046875 258.083007812 521.185546875 c 0
 257.658203125 531.17578125 257.137695312 541.161132812 256.3984375 551.1328125 c 1
 256.443359375 551.130859375 256.487304688 551.125 256.533203125 551.124023438 c 0
 319.266601562 542.8125 332.32421875 641.387695312 269.590820312 649.69921875 c 0
 257.5703125 648.915039062 245.685546875 652.219726562 233.587890625 651.114257812 c 2
 192.607421875 651.114257812 l 1
 149.502929688 651.114257812 l 1
 107.58203125 651.114257812 l 2
 105.620117188 651.361328125 103.708984375 651.504882812 101.845703125 651.55078125 c 1
143.766601562 71.2880859375 m 1
 144.154296875 71.576171875 144.5234375 71.875 144.874023438 72.1875 c 0
 144.965820312 72.4140625 145.059570312 72.63671875 145.149414062 72.8701171875 c 1
 144.681640625 72.3349609375 144.25 71.8486328125 143.766601562 71.2880859375 c 1
EndSplineSet
EndChar

StartChar: K
Encoding: 11 75 11
Width: 326
VWidth: 1080
Flags: HW
LayerCount: 2
Fore
SplineSet
61.521484375 652.370117188 m 2
 32.185546875 651.883789062 2.2099609375 628.150390625 11.833984375 591.831054688 c 0
 13.486328125 574.102539062 14.1328125 556.302734375 14.7314453125 538.513671875 c 0
 16.1484375 505.625 18.251953125 472.768554688 19.5068359375 439.865234375 c 0
 21.5751953125 396.590820312 20.2685546875 353.272460938 19.5390625 309.983398438 c 0
 18.8154296875 265.506835938 16.3330078125 221.078125 14.623046875 176.629882812 c 0
 13.3486328125 141.860351562 12.466796875 107.079101562 11.7373046875 72.294921875 c 0
 12.0654296875 54.162109375 10.4736328125 36.0986328125 10.0849609375 18.0107421875 c 0
 18.1025390625 -44.7607421875 116.736328125 -32.166015625 108.71875 30.60546875 c 0
 109.747070312 49.080078125 109.760742188 67.5859375 110.215820312 86.0791015625 c 0
 111.00390625 120.400390625 111.938476562 154.71875 113.283203125 189.022460938 c 0
 114.958984375 230.942382812 117.120117188 272.849609375 117.803710938 314.799804688 c 1
 127.7578125 315.91015625 137.7421875 316.715820312 147.73046875 317.427734375 c 0
 161.548828125 318.37109375 175.389648438 318.857421875 189.232421875 319.244140625 c 0
 195.421875 319.383789062 201.75 319.563476562 207.478515625 316.950195312 c 1
 203.935546875 318.4140625 210.366210938 313.969726562 210.440429688 311.354492188 c 0
 211.172851562 304.489257812 212.405273438 297.766601562 214.140625 291.08984375 c 0
 217.265625 280.002929688 218.35546875 268.551757812 219.393554688 257.12890625 c 0
 217.971679688 242.706054688 217.766601562 228.16796875 217.322265625 213.684570312 c 0
 216.916992188 195.950195312 214.209960938 178.3671875 211.66796875 160.8359375 c 0
 209.435546875 139.442382812 205.62890625 118.287109375 203.063476562 96.9306640625 c 0
 200.751953125 77.28125 199.327148438 57.5458984375 198.229492188 37.794921875 c 0
 196.037109375 28.2705078125 200.165039062 18.28515625 198.525390625 8.873046875 c 0
 208.3515625 -53.640625 306.581054688 -38.1982421875 296.754882812 24.3154296875 c 0
 296.288085938 32.3427734375 296.23828125 40.29296875 297.109375 48.3095703125 c 0
 298.369140625 66.2734375 299.950195312 84.2177734375 302.368164062 102.06640625 c 0
 305.306640625 123.122070312 308.440429688 144.145507812 311.0078125 165.250976562 c 0
 313.697265625 185.615234375 315.581054688 206.102539062 315.912109375 226.651367188 c 0
 316.52734375 244.920898438 317.8125 263.290039062 315.794921875 281.512695312 c 0
 313.93359375 296.193359375 311.387695312 310.750976562 307.591796875 325.068359375 c 0
 304.594726562 339.98828125 300.329101562 354.686523438 292.319335938 367.774414062 c 0
 282.235351562 382.80078125 269.974609375 395.901367188 254.001953125 404.829101562 c 0
 244.322265625 409.411132812 234.401367188 413.046875 224.151367188 415.349609375 c 1
 230.013671875 422.236328125 235.647460938 429.32421875 240.935546875 436.712890625 c 0
 254.5546875 455.278320312 267.366210938 474.423828125 277.483398438 495.168945312 c 0
 286.741210938 514.846679688 294.639648438 535.141601562 297.200195312 556.915039062 c 0
 299.642578125 573.057617188 301.161132812 589.372070312 300.794921875 605.71484375 c 0
 290.895507812 668.216796875 192.680664062 652.663085938 202.580078125 590.161132812 c 0
 202.3984375 578.067382812 199.817382812 566.131835938 197.798828125 554.22265625 c 0
 194.428710938 541.525390625 187.744140625 529.947265625 180.903320312 518.826171875 c 0
 172.008789062 502.487304688 160.249023438 487.98828125 148.5859375 473.580078125 c 0
 146.368164062 470.99609375 139.837890625 463.138671875 141.9296875 465.825195312 c 0
 146.201171875 471.309570312 149.051757812 474.743164062 151.079101562 477.133789062 c 1
 150.024414062 475.9296875 149.157226562 474.924804688 147.229492188 472.797851562 c 0
 140.5078125 465.379882812 133.462890625 458.263671875 126.452148438 451.12109375 c 0
 123.638671875 448.216796875 120.756835938 445.375976562 117.853515625 442.560546875 c 1
 117.659179688 447.935546875 117.427734375 453.30859375 117.147460938 458.682617188 c 0
 115.735351562 491.532226562 113.551757812 524.33984375 112.3984375 557.19921875 c 0
 111.516601562 577.26953125 110.569335938 597.368164062 107.954101562 617.301757812 c 0
 101.370117188 642.151367188 81.5947265625 652.703125 61.521484375 652.370117188 c 2
151.079101562 477.133789062 m 1
 154.061523438 480.538085938 153.840820312 480.387695312 151.079101562 477.133789062 c 1
EndSplineSet
EndChar

StartChar: L
Encoding: 12 76 12
Width: 278
VWidth: 1079
Flags: HW
LayerCount: 2
Fore
SplineSet
127.864257812 598.227539062 m 0
 127.864257812 582.260742188 127.864257812 566.293945312 127.864257812 550.327148438 c 0
 127.864257812 528.004882812 127.864257812 505.681640625 127.864257812 483.359375 c 0
 128.250976562 455.489257812 127.670898438 427.655273438 126.34375 399.819335938 c 0
 125.133789062 370.651367188 122.298828125 341.588867188 120.245117188 312.473632812 c 0
 118.967773438 285.048828125 116.603515625 257.70703125 114.326171875 230.354492188 c 0
 112.465820312 208.125 111.233398438 185.853515625 110.249023438 163.5703125 c 0
 109.521484375 146.541992188 109.087890625 129.500976562 108.749023438 112.458984375 c 0
 108.514648438 102.55078125 107.875 92.755859375 109.63671875 82.982421875 c 1
 108.737304688 82.9658203125 108.365234375 85.6845703125 109.264648438 85.6572265625 c 0
 115.015625 83.8583984375 119.959960938 85.1396484375 125.834960938 85.337890625 c 0
 138.057617188 85.6748046875 150.282226562 85.8837890625 162.5078125 86.056640625 c 0
 174.415039062 85.28515625 185.958007812 87.107421875 197.706054688 88.501953125 c 0
 205.026367188 89.0390625 212.166015625 90.951171875 219.282226562 92.703125 c 0
 282.501953125 95.478515625 286.862304688 -3.8623046875 223.641601562 -6.638671875 c 1
 213.918945312 -8.42578125 204.185546875 -10.052734375 194.322265625 -10.8779296875 c 0
 180.013671875 -12.396484375 165.686523438 -12.7587890625 151.299804688 -12.7470703125 c 0
 138.375976562 -12.966796875 125.448242188 -13.3369140625 112.521484375 -13.2041015625 c 0
 95.0546875 -12.5478515625 77.91015625 -9.5810546875 62.052734375 -1.8583984375 c 0
 42.3173828125 8.685546875 26.2041015625 23.0537109375 17.96875 44.4541015625 c 0
 12.2060546875 61.9072265625 8.9140625 79.8486328125 10.3251953125 98.30859375 c 0
 10.591796875 115.973632812 10.9384765625 133.637695312 11.5732421875 151.294921875 c 0
 12.443359375 174.626953125 13.509765625 197.953125 15.30859375 221.235351562 c 0
 17.3720703125 248.266601562 20.421875 275.211914062 21.3271484375 302.322265625 c 0
 23.146484375 330.983398438 25.919921875 359.571289062 27.583984375 388.232421875 c 0
 28.9287109375 414.75 30.3935546875 441.233398438 29.65234375 467.802734375 c 0
 29.65234375 490.126953125 29.65234375 512.44921875 29.65234375 534.772460938 c 0
 29.65234375 550.739257812 29.65234375 566.706054688 29.65234375 582.672851562 c 0
 19.7529296875 645.174804688 117.96484375 660.729492188 127.864257812 598.227539062 c 0
EndSplineSet
EndChar

StartChar: M
Encoding: 13 77 13
Width: 390
VWidth: 1083
Flags: HW
LayerCount: 2
Fore
SplineSet
318.241210938 674.075195312 m 0
 293.356445312 676.911132812 277.537109375 652.528320312 269.379882812 636.534179688 c 0
 238.0625 586.635742188 215.583007812 531.801757812 188.624023438 479.518554688 c 1
 179.6796875 445.096679688 162.8515625 496.91796875 151.744140625 508.604492188 c 0
 133.446289062 532.557617188 128.479492188 570.962890625 96.7666015625 581.579101562 c 0
 69.494140625 585.986328125 33.875 578.008789062 21.8515625 550.147460938 c 1
 17.5322265625 522.897460938 20.6328125 494.301757812 17.890625 466.348632812 c 0
 18.0361328125 363.112304688 25.080078125 259.899414062 20.18359375 156.6640625 c 0
 18.8037109375 100.958007812 12.5166015625 45.51953125 10 -10.1181640625 c 0
 13.560546875 -48.60546875 64.685546875 -61.6064453125 91.8125 -38.4541015625 c 0
 119.826171875 -13.9873046875 105.938476562 27.8095703125 112.6796875 60.4169921875 c 0
 121.764648438 167.462890625 121.430664062 275.084960938 117.326171875 382.366210938 c 1
 134.817382812 357.185546875 157.4140625 325.724609375 192.153320312 330.04296875 c 0
 229.14453125 333.387695312 249.950195312 370.779296875 259.54296875 402.850585938 c 0
 267.428710938 416.741210938 281.634765625 460.874023438 277.114257812 423.075195312 c 0
 273.895507812 298.044921875 277.629882812 172.938476562 281.889648438 47.9833984375 c 0
 282.584960938 22.51953125 280.232421875 -3.2890625 282.973632812 -28.556640625 c 0
 292.62109375 -72.830078125 361.961914062 -73.2373046875 377.4765625 -33.1103515625 c 0
 382.997070312 -12.5234375 378.696289062 9.3349609375 380.004882812 30.572265625 c 0
 379.71875 111.965820312 374.028320312 193.266601562 374.634765625 274.698242188 c 0
 371.583007812 377.587890625 378.48828125 480.365234375 379.22265625 583.220703125 c 1
 369.34765625 613.65625 377.306640625 657.3828125 339.3203125 670.216796875 c 0
 332.612304688 672.787109375 325.42578125 674.119140625 318.241210938 674.075195312 c 0
214.17578125 419.133789062 m 1
 215.822265625 417.282226562 l 1
 214.17578125 419.133789062 l 1
157.181640625 409.755859375 m 1
 155.93359375 407.360351562 150.607421875 402.265625 157.181640625 409.755859375 c 1
EndSplineSet
EndChar

StartChar: N
Encoding: 14 78 14
Width: 420
VWidth: 1079
Flags: HW
LayerCount: 2
Fore
SplineSet
316.58203125 683.740234375 m 0
 284.67578125 683.361328125 251.912109375 653.130859375 268.1484375 615.762695312 c 1
 268.087890625 615.84375 268.01171875 615.911132812 267.9140625 615.950195312 c 0
 267.416015625 616.151367188 267.979492188 609.65625 267.981445312 609.586914062 c 0
 268.05859375 606.264648438 267.935546875 596.004882812 267.9140625 593.6171875 c 0
 267.8828125 590.26171875 267.849609375 586.904296875 267.817382812 583.547851562 c 0
 267.557617188 557.5078125 267.228515625 531.46875 267.240234375 505.427734375 c 0
 267.498046875 468.147460938 269.306640625 430.942382812 273.33984375 393.862304688 c 0
 277.764648438 350.5546875 282.900390625 307.318359375 288.377929688 264.1328125 c 0
 294.067382812 223.744140625 300.024414062 183.396484375 305.666015625 143.001953125 c 0
 306.146484375 138.982421875 306.626953125 134.95703125 307.107421875 130.934570312 c 1
 298.8515625 150.439453125 291.407226562 170.255859375 284.211914062 190.184570312 c 0
 273.106445312 219.619140625 262.603515625 249.278320312 251.340820312 278.655273438 c 0
 238.486328125 313.158203125 225.58984375 347.640625 211.30078125 381.586914062 c 0
 197.783203125 414.108398438 183.90625 446.469726562 169.666992188 478.682617188 c 0
 158.572265625 505.465820312 146.87109375 531.98828125 134.244140625 558.091796875 c 0
 125.859375 575.958984375 117.96484375 594.076171875 108.966796875 611.640625 c 0
 84.560546875 648.666015625 36.4931640625 632.865234375 21.8935546875 601.9140625 c 0
 17.412109375 594.510742188 14.9599609375 585.340820312 15.5595703125 574.459960938 c 0
 13.5849609375 554.063476562 12.8701171875 533.579101562 12.2109375 513.109375 c 0
 11.2529296875 477.870117188 10.98046875 442.6171875 10.7021484375 407.368164062 c 0
 10.3984375 364.005859375 10.2783203125 320.643554688 10.1748046875 277.28125 c 0
 9.830078125 233.79296875 9.8916015625 190.333984375 11.30859375 146.869140625 c 0
 12.642578125 110.639648438 13.7412109375 74.40234375 14.654296875 38.16015625 c 0
 15.9345703125 17.822265625 17.5087890625 -2.4990234375 19.5673828125 -22.771484375 c 0
 34.294921875 -84.3154296875 131.000976562 -61.173828125 116.2734375 0.3701171875 c 0
 114.6484375 18.818359375 113.141601562 37.2900390625 112.514648438 55.8056640625 c 0
 111.540039062 92.150390625 110.337890625 128.487304688 109.110351562 164.825195312 c 0
 107.95703125 207.421875 108.287109375 250.0234375 108.418945312 292.6328125 c 0
 108.489257812 318.454101562 108.583984375 344.274414062 108.708984375 370.096679688 c 1
 113.534179688 358.665039062 118.32421875 347.220703125 123.055664062 335.751953125 c 0
 137.004882812 302.692382812 149.235351562 268.977539062 161.8125 235.38671875 c 0
 173.200195312 205.849609375 183.544921875 175.922851562 194.938476562 146.388671875 c 0
 202.916015625 122.985351562 212.362304688 100.184570312 222.225585938 77.53515625 c 0
 229.75 60.77734375 239.268554688 45.15234375 248.991210938 29.6259765625 c 0
 256.225585938 18.98828125 262.754882812 7.9072265625 269.80078125 -2.837890625 c 0
 277.181640625 -15.8369140625 286.684570312 -27.005859375 297.955078125 -36.7490234375 c 0
 316.418945312 -49.9541015625 339.126953125 -54.763671875 360.703125 -45.7373046875 c 0
 364.942382812 -43.96484375 368.616210938 -41.0625 372.571289062 -38.7265625 c 0
 392.513671875 -17.2822265625 401.487304688 0.193359375 406.44140625 27.197265625 c 0
 409.41015625 45.4111328125 410.693359375 63.8359375 410.241210938 82.26953125 c 0
 409.040039062 111.125976562 405.518554688 139.866210938 401.780273438 168.493164062 c 0
 395.821289062 209.206054688 389.78125 249.911132812 384.205078125 290.678710938 c 0
 379.208007812 332.872070312 374.056640625 375.047851562 369.963867188 417.34375 c 0
 366.118164062 451.857421875 365.3359375 486.484375 365.42578125 521.168945312 c 0
 365.590820312 546.885742188 365.909179688 572.6015625 366.15234375 598.319335938 c 0
 367.215820312 618.114257812 365.962890625 637.368164062 359.053710938 656.013671875 c 0
 350.044921875 675.8125 333.434570312 683.939453125 316.58203125 683.740234375 c 0
360.2578125 40.78515625 m 1
 360.454101562 40.6064453125 360.657226562 40.4541015625 360.849609375 40.26953125 c 0
 361.65234375 39.00390625 361.215820312 39.5126953125 360.2578125 40.78515625 c 1
304.51171875 26.3388671875 m 1
 299.041992188 17.3525390625 291.499023438 9.666015625 304.51171875 26.3388671875 c 1
EndSplineSet
EndChar

StartChar: Ntilde
Encoding: 15 209 15
Width: 386
VWidth: 1079
Flags: HW
LayerCount: 2
Fore
SplineSet
310.78515625 675.818359375 m 1
 285.220703125 675.5546875 258.84765625 652.236328125 271.095703125 621.663085938 c 1
 270.447265625 622.767578125 270.6796875 622.743164062 270.462890625 621.33203125 c 0
 270.390625 614.666015625 268.973632812 608.21875 266.88671875 601.870117188 c 0
 265.982421875 599.505859375 264.951171875 597.251953125 263.72265625 595.12890625 c 1
 265.666015625 597.513671875 267.6484375 599.865234375 269.765625 602.092773438 c 0
 270.705078125 603.080078125 269.470703125 599.268554688 268.705078125 598.140625 c 0
 266.513671875 594.911132812 265.802734375 595.791015625 262.482421875 592.899414062 c 0
 261.8515625 592.348632812 261.4765625 591.559570312 260.974609375 590.889648438 c 0
 260.775390625 590.727539062 260.594726562 590.575195312 260.400390625 590.412109375 c 0
 259.533203125 589.40625 258.595703125 588.443359375 257.548828125 587.543945312 c 1
 257.969726562 588.044921875 258.373046875 588.5625 258.7890625 589.067382812 c 1
 255.89453125 586.64453125 253.181640625 584.528320312 249.140625 583.76171875 c 0
 243.327148438 583.530273438 238.071289062 582.528320312 232.388671875 584.625976562 c 0
 226.798828125 586.272460938 221.896484375 589.268554688 216.47265625 591.279296875 c 0
 212.173828125 593.557617188 209.607421875 598.110351562 206.2734375 601.471679688 c 0
 202.329101562 606.375 198.37109375 611.274414062 195.046875 616.6328125 c 0
 189.294921875 625.720703125 183.40625 634.833984375 174.896484375 641.643554688 c 0
 165.4140625 649.647460938 155.020507812 656.109375 143.2734375 660.3203125 c 0
 131.056640625 664.017578125 118.44140625 666.759765625 105.5859375 665.400390625 c 0
 91.130859375 663.383789062 77.251953125 658.833984375 65.408203125 650.016601562 c 0
 52.6220703125 639.182617188 42.4853515625 625.216796875 31.59765625 612.5078125 c 0
 25.1484375 600.890625 19.4765625 588.8125 16.416015625 575.813476562 c 0
 13.380859375 564.12890625 11.275390625 552.203125 10 540.200195312 c 0
 12.8310546875 488.868164062 93.4912109375 493.318359375 90.66015625 544.650390625 c 0
 91.654296875 553.4453125 94.416015625 561.909179688 97.013671875 570.346679688 c 0
 97.2265625 570.572265625 97.44921875 570.885742188 97.67578125 571.234375 c 0
 98.017578125 571.606445312 98.451171875 572.057617188 98.66015625 572.303710938 c 0
 100.716796875 574.706054688 103.02734375 576.932617188 104.88671875 579.534179688 c 0
 104.919921875 579.893554688 105.001953125 580.23046875 105.10546875 580.553710938 c 1
 102.807617188 577.83984375 100.63671875 575.229492188 98.48828125 572.649414062 c 1
 100.466796875 576.323242188 102.90625 582.2734375 105.80078125 581.989257812 c 0
 106.544921875 583.111328125 107.572265625 583.98046875 108.302734375 584.6640625 c 0
 108.724609375 585.979492188 111.859375 585.44921875 115.169921875 584.584960938 c 0
 115.815429688 584.841796875 122.96484375 580.661132812 121.251953125 581.2421875 c 1
 124.8984375 578.346679688 126.30078125 574.798828125 128.587890625 570.704101562 c 0
 133.399414062 563.081054688 139.283203125 556.275390625 144.736328125 549.1328125 c 0
 151.750976562 540.401367188 159.737304688 532.8046875 168.712890625 526.123046875 c 0
 178.598632812 519.850585938 189.259765625 514.80859375 200.154296875 510.551757812 c 0
 212.689453125 505.764648438 225.848632812 503.8828125 239.189453125 503.59375 c 0
 254.541992188 503.1484375 269.0859375 507.049804688 283.017578125 513.170898438 c 0
 293.5 519.337890625 305.641601562 525.102539062 313.85546875 534.40234375 c 0
 320.23828125 541.631835938 326.107421875 549.298828125 332.232421875 556.747070312 c 0
 340.153320312 568.928710938 344.366210938 582.7734375 347.51171875 596.81640625 c 0
 350.728515625 609.61328125 350.619140625 622.576171875 349.97265625 635.634765625 c 0
 348.22265625 646.11328125 349.46484375 640.741210938 346.083984375 651.70703125 c 0
 339.212890625 668.857421875 325.125 675.966796875 310.78515625 675.818359375 c 1
105.80078125 581.989257812 m 2
 105.509765625 581.552734375 105.2734375 581.07421875 105.10546875 580.553710938 c 1
 105.634765625 581.1796875 105.798828125 581.373046875 106.251953125 581.904296875 c 1
 106.099609375 581.954101562 105.94921875 581.974609375 105.80078125 581.989257812 c 2
106.251953125 581.904296875 m 1
 106.28515625 581.89453125 106.317382812 581.897460938 106.3515625 581.883789062 c 0
 110.30078125 586.62890625 108.936523438 585.0625 106.251953125 581.904296875 c 1
258.7890625 589.067382812 m 1
 259.314453125 589.508789062 259.8515625 589.95703125 260.400390625 590.412109375 c 0
 261.66796875 591.8828125 262.7578125 593.46484375 263.72265625 595.12890625 c 1
 262.076171875 593.110351562 260.442382812 591.080078125 258.7890625 589.067382812 c 1
304.658203125 476.423828125 m 1
 275.32421875 477.008789062 244.501953125 454.3828125 252.794921875 417.736328125 c 0
 253.529296875 409.543945312 254.278320312 401.350585938 255.337890625 393.19140625 c 0
 257.685546875 375.31640625 260.770507812 357.553710938 263.044921875 339.668945312 c 0
 265.853515625 314.743164062 269.216796875 289.872070312 271.0703125 264.84765625 c 0
 273.69921875 234.794921875 275.923828125 204.721679688 277.294921875 174.581054688 c 0
 277.815429688 160.846679688 278.33203125 147.076171875 278.453125 133.313476562 c 1
 267.479492188 153.768554688 256.334960938 174.131835938 244.6875 194.212890625 c 0
 231.274414062 218.374023438 217.982421875 242.599609375 204.6328125 266.795898438 c 0
 193.076171875 287.34765625 181.173828125 307.725585938 171.015625 329.022460938 c 0
 163.71484375 343.747070312 156.790039062 358.634765625 150.298828125 373.735351562 c 0
 146.24609375 383.708007812 142.328125 393.748046875 139.79296875 404.233398438 c 0
 135.474609375 414.881835938 128.8984375 422.350585938 121.17578125 427.114257812 c 0
 91.611328125 454.275390625 29.08984375 434.4296875 37.083984375 383.948242188 c 0
 36.6962890625 369.712890625 37.9609375 355.38671875 36.345703125 341.221679688 c 0
 34.947265625 321.592773438 33.41015625 302.018554688 31.400390625 282.446289062 c 0
 29.2578125 256.38671875 26.0498046875 230.44921875 23.853515625 204.390625 c 0
 20.052734375 175.208007812 17.583984375 145.87890625 15.603515625 116.5234375 c 0
 13.958984375 91.27734375 12.97265625 65.9951171875 12.16796875 40.708984375 c 0
 11.623046875 23.1103515625 12.779296875 5.384765625 15.169921875 -12.0634765625 c 0
 16.541015625 -18.833984375 16.4990234375 -18.181640625 14.41796875 -10.255859375 c 1
 22.30859375 -73.04296875 120.96875 -60.64453125 113.078125 2.142578125 c 0
 111.443359375 11.7275390625 111.416015625 8.25 111.537109375 12.4580078125 c 0
 110.5234375 26.1123046875 109.880859375 39.7939453125 110.78125 53.4794921875 c 0
 111.684570312 77.751953125 112.771484375 102.021484375 114.56640625 126.247070312 c 0
 116.73046875 154.240234375 119.67578125 182.153320312 122.654296875 210.068359375 c 1
 135.368164062 186.77734375 148.235351562 163.573242188 161.095703125 140.362304688 c 0
 173.8125 118.5234375 185.939453125 96.3408203125 197.6875 73.966796875 c 0
 206.716796875 56.203125 216.810546875 39.0703125 227.130859375 22.041015625 c 0
 238.310546875 3.625 254.033203125 -9.5087890625 273.498046875 -18.259765625 c 0
 298.505859375 -26.8125 317.512695312 -21.10546875 337.86328125 -6.4619140625 c 0
 365.01171875 20.8779296875 361.979492188 29.7744140625 370.3125 60.138671875 c 0
 374.34375 77.23828125 375.801757812 94.7958984375 376.962890625 112.28125 c 0
 376.619140625 139.5625 376.41796875 166.872070312 374.794921875 194.110351562 c 0
 373.427734375 225.263671875 370.615234375 256.2890625 367.927734375 287.344726562 c 0
 365.858398438 312.9375 362.171875 338.364257812 359.484375 363.897460938 c 0
 356.471679688 382.0234375 353.548828125 400.154296875 351.521484375 418.418945312 c 0
 350.759765625 425.493164062 350.266601562 432.58984375 349.779296875 439.685546875 c 0
 344.103515625 464.759765625 324.73046875 476.024414062 304.658203125 476.423828125 c 1
312.533203125 73.26953125 m 1
 312.650390625 73.1923828125 312.771484375 73.1259765625 312.888671875 73.0439453125 c 0
 318.51171875 68.3388671875 315.548828125 70.2216796875 312.533203125 73.26953125 c 1
269.96875 59.3857421875 m 1
 269.635742188 57.9697265625 269.219726562 56.5908203125 268.529296875 55.17578125 c 0
 267.549804688 53.166015625 265.616210938 53.6572265625 266.068359375 54.2705078125 c 0
 267.341796875 55.99609375 268.651367188 57.6943359375 269.96875 59.3857421875 c 1
EndSplineSet
EndChar

StartChar: O
Encoding: 16 79 16
Width: 420
VWidth: 1082
Flags: HW
LayerCount: 2
Fore
SplineSet
235.908203125 634.677734375 m 0
 181.533203125 634.23828125 135.16015625 599.087890625 102.680664062 558.139648438 c 0
 66.9453125 517.584960938 45.2041015625 466.54296875 28.4404296875 415.696289062 c 0
 6.3466796875 341.56640625 3.9130859375 262.000976562 22.1826171875 186.779296875 c 0
 39.94140625 111.813476562 80.328125 36.8701171875 149.470703125 -1.8642578125 c 0
 190.153320312 -24.1611328125 243.481445312 -27.25 282.274414062 0.869140625 c 0
 346.28125 42.5791015625 379.4609375 116.513671875 396.72265625 188.41015625 c 0
 420.625976562 306.224609375 414.452148438 433.944335938 360.692382812 543.03125 c 0
 347.275390625 570.01953125 322.372070312 588.090820312 307.806640625 613.581054688 c 1
 288.329101562 630.21875 260.626953125 633.779296875 235.908203125 634.677734375 c 0
229.234375 530.166992188 m 0
 268.313476562 524.916992188 281.274414062 479.970703125 292.234375 447.971679688 c 0
 317.59765625 364.151367188 317.51171875 272.999023438 295.774414062 188.380859375 c 0
 287.087890625 160.352539062 276.713867188 131.528320312 258.07421875 108.72265625 c 1
 266.875976562 116.032226562 274.278320312 126.655273438 261.525390625 110.2578125 c 0
 246.485351562 80.849609375 210.959960938 66.259765625 185.638671875 92.853515625 c 0
 138.115234375 130.772460938 118.29296875 193.016601562 111.07421875 251.413085938 c 0
 99.974609375 337.725585938 124.66015625 427.973632812 176.25390625 497.762695312 c 0
 188.133789062 511.432617188 159.217773438 478.950195312 174.350585938 496.364257812 c 0
 188.8046875 513.873046875 204.271484375 532.625976562 229.234375 530.166992188 c 0
EndSplineSet
EndChar

StartChar: P
Encoding: 17 80 17
Width: 395
VWidth: 1078
Flags: HW
LayerCount: 2
Fore
SplineSet
165.484375 652.126953125 m 0
 135.915039062 657.81640625 106.755859375 634.049804688 80.0888671875 640.899414062 c 0
 48.8798828125 652.612304688 7.08984375 628.255859375 11.7900390625 592.536132812 c 1
 7.4130859375 575.158203125 12.4599609375 557.813476562 12.30859375 540.118164062 c 0
 12.955078125 495.159179688 10.9404296875 450.075195312 13.4658203125 405.206054688 c 0
 17.7080078125 361.940429688 17.6484375 318.461914062 23.2939453125 275.328125 c 0
 25.0341796875 229.155273438 26.9599609375 182.713867188 24.3134765625 136.609375 c 0
 18.3603515625 97.349609375 21.9228515625 56.7880859375 17.0185546875 17.9697265625 c 1
 19.3837890625 -25.3046875 82.564453125 -38.2568359375 106.899414062 -5.5703125 c 0
 123.299804688 20.5703125 115.33984375 53.5654296875 118.497070312 82.8447265625 c 0
 121.1640625 124.9375 125.575195312 166.919921875 123.452148438 209.177734375 c 0
 126.748046875 233.306640625 115.7734375 274.2109375 125.608398438 288.20703125 c 1
 168.577148438 279.122070312 213.865234375 274.817382812 257.25390625 283.196289062 c 0
 321.68359375 300.258789062 371.608398438 357.892578125 380.467773438 423.810546875 c 0
 391.896484375 477.241210938 384.135742188 537.124023438 346.999023438 579.258789062 c 0
 325.477539062 609.923828125 294.296875 634.818359375 256.544921875 641.140625 c 0
 226.439453125 646.102539062 196.048828125 651.33203125 165.484375 652.126953125 c 0
162.920898438 553.223632812 m 0
 190.952148438 551.204101562 219.651367188 549.127929688 246.616210938 540.669921875 c 1
 268.500976562 523.360351562 289.201171875 497.465820312 287.4375 467.828125 c 0
 285.162109375 444.944335938 284.171875 418.806640625 269.713867188 400.213867188 c 0
 251.627929688 378.2421875 222.521484375 375.176757812 196.037109375 378.012695312 c 0
 168.673828125 380.04296875 140.000976562 382.952148438 116.93359375 399.135742188 c 0
 106.802734375 410.1015625 111.881835938 432.334960938 110.520507812 448.504882812 c 0
 110.520507812 479.075195312 110.520507812 509.643554688 110.520507812 540.212890625 c 1
 127.272460938 546.825195312 144.607421875 553.670898438 162.920898438 553.223632812 c 0
271.732421875 401.108398438 m 1
 266.118164062 391.868164062 251.736328125 380.84375 266.499023438 395.40625 c 2
 269.419921875 398.576171875 l 1
 271.732421875 401.108398438 l 1
EndSplineSet
EndChar

StartChar: Q
Encoding: 18 81 18
Width: 442
VWidth: 1084
Flags: HW
LayerCount: 2
Fore
SplineSet
195.077148438 668.416992188 m 1
 181.612304688 668.30859375 168.1796875 666.9140625 154.928710938 664.549804688 c 0
 140.041992188 661.703125 125.444335938 656.854492188 112.196289062 649.438476562 c 0
 99.6015625 643.3828125 88.8671875 634.69921875 78.4462890625 625.573242188 c 1
 75.326171875 613.807617188 56.359375 602.129882812 49.2255859375 589.379882812 c 0
 45.671875 583.029296875 43.345703125 576.196289062 40.087890625 569.709960938 c 0
 34.740234375 556.706054688 31.4189453125 543.014648438 27.4931640625 529.552734375 c 0
 23.5234375 515.006835938 21.5634765625 500.04296875 20.01953125 485.080078125 c 0
 16.2607421875 473.822265625 14.98828125 461.865234375 13.650390625 450.120117188 c 0
 12.2109375 436.418945312 11.587890625 422.654296875 11.083984375 408.893554688 c 0
 10.6318359375 395.47265625 10.439453125 382.04296875 10.28125 368.616210938 c 0
 9.302734375 353.797851562 11.068359375 339.16796875 12.6572265625 324.471679688 c 0
 14.1708984375 311.010742188 14.2734375 297.471679688 16.2666015625 284.077148438 c 0
 18.47265625 271.295898438 19.822265625 258.40234375 20.7958984375 245.478515625 c 0
 21.771484375 232.073242188 21.64453125 218.65234375 23.388671875 205.32421875 c 0
 24.7705078125 190.7578125 27.8525390625 176.517578125 30.4931640625 162.155273438 c 0
 33.3876953125 148.811523438 36.228515625 135.258789062 40.36328125 122.223632812 c 0
 43.8955078125 110.221679688 48.0390625 98.3466796875 53.166015625 86.9326171875 c 0
 59.1689453125 71.583984375 68.7333984375 58.3251953125 79.75 46.2392578125 c 0
 90.33203125 34.05859375 103.447265625 24.6484375 117.200195312 16.4150390625 c 0
 129.495117188 8.2470703125 142.934570312 2.419921875 156.89453125 -2.1943359375 c 0
 172.140625 -6.8818359375 187.955078125 -8.9755859375 203.798828125 -10.2451171875 c 0
 220.39453125 -10.857421875 236.904296875 -9.107421875 253.0234375 -5.197265625 c 0
 262.580078125 -2.9873046875 271.860351562 0.0146484375 280.899414062 3.6591796875 c 1
 284.276367188 -3.8896484375 287.661132812 -11.4365234375 291.094726562 -18.966796875 c 0
 293.58203125 -27.36328125 303.223632812 -36.87890625 306.390625 -44.37890625 c 0
 343.720703125 -95.4775390625 424.01171875 -36.8193359375 386.681640625 14.279296875 c 0
 383.305664062 19.1279296875 380.3359375 24.19140625 377.872070312 29.583984375 c 0
 372.2734375 41.693359375 367.075195312 53.9853515625 361.524414062 66.1171875 c 1
 369.008789062 75.2353515625 375.850585938 84.8798828125 381.926757812 94.9658203125 c 0
 390.662109375 109.766601562 397.1953125 125.356445312 402.0390625 141.8203125 c 0
 407.90625 155.939453125 411.000976562 170.965820312 413.561523438 185.9765625 c 0
 417.80859375 199.413085938 419.876953125 213.413085938 421.688476562 227.349609375 c 0
 422.044921875 239.935546875 424.8203125 251.930664062 426.985351562 264.22265625 c 0
 429.190429688 277.731445312 430.196289062 291.387695312 431.010742188 305.0390625 c 0
 431.75390625 318.560546875 432.0703125 332.100585938 432.329101562 345.638671875 c 0
 430.650390625 360.9765625 430.078125 376.470703125 427.237304688 391.643554688 c 0
 424.872070312 404.416992188 422.771484375 417.15234375 419.959960938 429.834960938 c 0
 417.067382812 443.692382812 412.958007812 457.268554688 408.9296875 470.833007812 c 0
 405.7890625 483.75390625 401.920898438 496.52734375 397.430664062 509.047851562 c 0
 392.921875 523.681640625 385.518554688 537.14453125 378.375976562 550.602539062 c 0
 372.7265625 562.662109375 365.709960938 574.075195312 357.94140625 584.879882812 c 0
 350.516601562 596.256835938 340.646484375 605.73046875 330.698242188 614.87109375 c 0
 321.1171875 623.11328125 310.688476562 630.190429688 300.14453125 637.116210938 c 0
 288.823242188 644.317382812 277.133789062 650.584960938 264.630859375 655.473632812 c 0
 249.923828125 660.805664062 234.459960938 663.153320312 218.965820312 664.6640625 c 0
 217.489257812 664.73828125 216.015625 664.772460938 214.541992188 664.8046875 c 0
 210.454101562 666.512695312 205.899414062 667.744140625 200.8515625 668.381835938 c 0
 198.926757812 668.419921875 197.000976562 668.431640625 195.077148438 668.416992188 c 1
207.762695312 566.9765625 m 0
 213.516601562 567.129882812 219.87890625 564.571289062 225.361328125 564.120117188 c 0
 232.372070312 562.34765625 238.078125 558.455078125 244.290039062 554.84765625 c 0
 251.174804688 550.509765625 257.897460938 545.998046875 264.23828125 540.905273438 c 0
 270.006835938 535.731445312 275.493164062 530.3203125 279.575195312 523.672851562 c 0
 285.102539062 515.549804688 289.594726562 506.806640625 293.974609375 498.029296875 c 0
 299.091796875 488.381835938 303.802734375 478.5234375 306.862304688 468 c 0
 310.459960938 456.302734375 313.943359375 444.594726562 317.069335938 432.76171875 c 0
 320.481445312 421.181640625 323.529296875 409.482421875 325.87890625 397.637695312 c 0
 328.166992188 386.450195312 329.701171875 375.109375 331.755859375 363.875976562 c 0
 332.51171875 353.270507812 334.2109375 342.662109375 333.830078125 332.018554688 c 0
 333.475585938 319.81640625 333.052734375 307.609375 332.037109375 295.44140625 c 0
 331.046875 284.545898438 329.734375 273.68359375 327.557617188 262.954101562 c 0
 325.240234375 250.060546875 324.416015625 237.015625 322.3046875 224.091796875 c 0
 320.013671875 211.620117188 316.67578125 199.401367188 314.201171875 186.969726562 c 1
 281.4375 220.375 211.529296875 185.1328125 232.59765625 133.180664062 c 0
 236.622070312 121.193359375 239.94140625 108.908203125 243.956054688 96.8994140625 c 0
 244.25390625 95.9658203125 244.577148438 95.0419921875 244.881835938 94.1103515625 c 1
 244.4765625 94.0087890625 244.08203125 93.8857421875 243.671875 93.796875 c 0
 235.20703125 91.0615234375 227.092773438 87.8994140625 217.92578125 88.1806640625 c 0
 209.637695312 86.4697265625 200.657226562 89.7978515625 192.393554688 90.69140625 c 0
 183.9765625 92.6552734375 176.3828125 95.9912109375 169.31640625 101.100585938 c 0
 162.322265625 104.590820312 156.21484375 109.44140625 151.172851562 115.423828125 c 0
 146.209960938 120.373046875 143.772460938 127.16015625 141.041992188 133.470703125 c 0
 137.985351562 142.23046875 134.6171875 150.865234375 132.387695312 159.896484375 c 0
 130 170.745117188 126.811523438 181.41015625 125.212890625 192.424804688 c 0
 122.90625 204.466796875 121.096679688 216.577148438 120.012695312 228.799804688 c 0
 119.604492188 241.9453125 118.823242188 255.08203125 117.607421875 268.177734375 c 0
 116.21875 281.8515625 114.323242188 295.456054688 112.509765625 309.079101562 c 0
 111.771484375 322.104492188 110.630859375 335.100585938 109.254882812 348.073242188 c 0
 108.170898438 359.705078125 108.331054688 371.306640625 108.674804688 382.986328125 c 0
 108.899414062 395.578125 109.166015625 408.16796875 109.811523438 420.747070312 c 0
 110.44921875 432.079101562 111.208007812 443.422851562 112.984375 454.643554688 c 0
 115.001953125 466.6171875 118.125976562 478.392578125 119.309570312 490.5 c 0
 120.932617188 500.891601562 123.068359375 511.193359375 126.575195312 521.135742188 c 0
 129.439453125 530.154296875 131.545898438 539.374023438 136.97265625 547.32421875 c 0
 137.139648438 547.65234375 137.379882812 548.01953125 137.584960938 548.370117188 c 1
 136.3984375 547.098632812 135.021484375 545.640625 133.635742188 544.174804688 c 1
 134.124023438 544.86328125 134.572265625 545.479492188 135.258789062 546.521484375 c 0
 135.528320312 546.9296875 134.56640625 547.37109375 134.643554688 547.854492188 c 0
 135.213867188 551.396484375 140.549804688 550.890625 141.30859375 554.358398438 c 0
 141.704101562 554.584960938 142.084960938 554.830078125 142.471679688 555.067382812 c 0
 143.08984375 555.803710938 143.701171875 556.512695312 144.317382812 557.206054688 c 0
 144.592773438 557.06640625 144.87109375 556.93359375 145.149414062 556.798828125 c 0
 145.286132812 556.892578125 145.426757812 556.98046875 145.5625 557.07421875 c 1
 145.4765625 556.975585938 145.353515625 556.842773438 145.263671875 556.743164062 c 1
 164.545898438 547.389648438 189.100585938 548.581054688 204.23828125 566.463867188 c 0
 205.377929688 566.780273438 206.555664062 566.944335938 207.762695312 566.9765625 c 0
145.263671875 556.743164062 m 2
 145.225585938 556.76171875 145.1875 556.779296875 145.149414062 556.798828125 c 0
 144.275390625 556.202148438 143.381835938 555.625 142.471679688 555.067382812 c 0
 140.5703125 552.80078125 138.796875 550.438476562 137.584960938 548.370117188 c 1
 140.797851562 551.810546875 143.349609375 554.599609375 145.263671875 556.743164062 c 2
201.77734375 566.124023438 m 2
 196.975585938 560.077148438 192.067382812 555.680664062 188.048828125 559.986328125 c 0
 187.778320312 560.276367188 188.065429688 560.780273438 188.072265625 561.17578125 c 0
 189.190429688 561.650390625 190.306640625 562.122070312 191.423828125 562.596679688 c 0
 191.475585938 562.966796875 191.250976562 563.5234375 191.576171875 563.709960938 c 0
 194.705078125 565.506835938 198.243164062 565.737304688 201.77734375 566.124023438 c 2
131.538085938 543.22265625 m 0
 131.508789062 543.1328125 131.033203125 541.918945312 131.08984375 541.482421875 c 0
 130.869140625 541.249023438 130.708984375 541.075195312 130.483398438 540.837890625 c 1
 131.337890625 542.7421875 131.560546875 543.287109375 131.538085938 543.22265625 c 0
EndSplineSet
EndChar

StartChar: R
Encoding: 19 82 19
Width: 412
VWidth: 1078
Flags: HW
LayerCount: 2
Fore
SplineSet
181.518554688 647.731445312 m 1
 179.48046875 647.719726562 177.440429688 647.661132812 175.401367188 647.555664062 c 0
 160.603515625 646.838867188 145.797851562 645.939453125 131.110351562 643.931640625 c 0
 114.712890625 641.517578125 98.376953125 638.383789062 82.7880859375 632.59375 c 0
 71.0283203125 628.041992188 57.572265625 624.030273438 47.5 616.700195312 c 0
 -0.0458984375 606.748046875 0.9150390625 547.091796875 31.943359375 525.765625 c 1
 31.943359375 472.307617188 l 2
 32.17578125 449.474609375 34.25 426.684570312 35.435546875 403.87890625 c 0
 36.53515625 380.971679688 37.0732421875 358.041015625 37.5009765625 335.11328125 c 0
 37.8935546875 312.1328125 38.0751953125 289.149414062 38.2216796875 266.166015625 c 0
 37.6162109375 243.888671875 39.0947265625 221.728515625 40.7822265625 199.536132812 c 0
 42.13671875 182.48046875 43.0498046875 165.397460938 43.7294921875 148.3046875 c 0
 44.2666015625 133.973632812 44.5205078125 119.634765625 44.7255859375 105.296875 c 0
 44.904296875 91.7177734375 44.9833984375 78.13671875 45.0478515625 64.556640625 c 0
 44.5478515625 50.57421875 46.3486328125 36.6513671875 49.28125 23.001953125 c 1
 47.5771484375 26.123046875 48.4873046875 24.07421875 47.330078125 29.44140625 c 1
 53.4765625 -33.541015625 152.444335938 -23.8818359375 146.297851562 39.1005859375 c 0
 145.176757812 48.400390625 145.900390625 43.8408203125 144.153320312 52.791015625 c 0
 143.212890625 62.048828125 142.969726562 71.2685546875 143.18359375 80.58203125 c 0
 143.086914062 94.4658203125 142.970703125 108.34765625 142.711914062 122.23046875 c 0
 142.41015625 137.309570312 142.024414062 152.389648438 141.302734375 167.456054688 c 0
 140.41796875 185.268554688 139.266601562 203.06640625 137.907226562 220.849609375 c 0
 136.521484375 241.31640625 136.220703125 261.786132812 136.342773438 282.299804688 c 0
 136.23828125 295.287109375 136.114257812 308.274414062 135.947265625 321.26171875 c 1
 142.879882812 311.848632812 153.701171875 304.98828125 168.71875 303.384765625 c 0
 169.099609375 303.379882812 169.478515625 303.390625 169.861328125 303.387695312 c 0
 174.985351562 294.920898438 179.907226562 286.302734375 184.697265625 277.659179688 c 0
 197.134765625 255.248046875 208.78515625 232.455078125 219.94140625 209.3828125 c 0
 233.766601562 180.586914062 246.018554688 151.10546875 258.311523438 121.638671875 c 0
 269.453125 96.0927734375 279.116210938 69.94140625 290.6171875 44.5556640625 c 0
 292.155273438 41.09375 293.65625 37.615234375 295.234375 34.169921875 c 0
 298.71484375 26.5703125 302.626953125 19.22265625 306.141601562 11.6494140625 c 0
 308.368164062 6.8486328125 309.749023438 5.8759765625 307.430664062 7.8818359375 c 1
 334.09375 -49.5078125 424.275390625 -7.6103515625 397.612304688 49.779296875 c 0
 391.232421875 64.0625 383.907226562 77.896484375 377.831054688 92.3212890625 c 0
 366.93359375 117.227539062 357.34765625 142.686523438 346.483398438 167.611328125 c 0
 333.625976562 198.541015625 320.401367188 229.319335938 305.831054688 259.489257812 c 0
 293.846679688 284.017578125 281.2578125 308.228515625 267.935546875 332.060546875 c 0
 267.40234375 332.986328125 266.869140625 333.913085938 266.338867188 334.840820312 c 0
 269.62109375 337.0859375 272.864257812 339.419921875 276.077148438 341.842773438 c 0
 286.6484375 352.05859375 299.057617188 360.385742188 308.028320312 372.311523438 c 0
 324.122070312 391.87890625 341.670898438 410.418945312 351.909179688 433.884765625 c 0
 358.868164062 448.626953125 362.470703125 464.647460938 363.58984375 480.8828125 c 0
 363.775390625 497.634765625 362.672851562 514.247070312 357.170898438 530.248046875 c 0
 351.7109375 546.32421875 344.520507812 561.657226562 333.525390625 574.776367188 c 0
 323.505859375 587.348632812 312.798828125 599.362304688 299.291992188 608.3359375 c 0
 288.607421875 615.692382812 277.823242188 623.052734375 265.969726562 628.421875 c 0
 252.555664062 634.73046875 238.524414062 640.07421875 223.9140625 642.82421875 c 0
 209.965820312 645.6875 195.780273438 647.813476562 181.518554688 647.731445312 c 1
178.407226562 548.88671875 m 0
 184.428710938 548.833984375 190.440429688 548.27734375 196.392578125 547.26953125 c 0
 204.529296875 546.03125 212.400390625 543.592773438 219.926757812 540.28515625 c 0
 227.72265625 537.001953125 234.637695312 532.112304688 241.583007812 527.359375 c 0
 248.705078125 523.033203125 253.111328125 516.170898438 258.206054688 509.854492188 c 0
 262.5859375 504.69921875 264.06640625 498.47265625 265.372070312 492.02734375 c 0
 266.201171875 486.411132812 267.5234375 478.559570312 264.4375 473.362304688 c 0
 263.913085938 467.952148438 260.5859375 464.321289062 257.634765625 460.427734375 c 0
 257.03515625 459.749023438 255.678710938 458.184570312 253.052734375 455.168945312 c 0
 245.7265625 446.708984375 239.064453125 437.502929688 230.541015625 430.240234375 c 0
 225.434570312 424.616210938 219.127929688 420.432617188 213.329101562 415.541992188 c 0
 206.005859375 412.017578125 198.561523438 408.189453125 190.908203125 405.258789062 c 0
 187.055664062 404.123046875 183.252929688 402.740234375 179.283203125 402.258789062 c 0
 158.345703125 404.495117188 143.213867188 395.037109375 134.649414062 381.176757812 c 1
 134.204101562 395.3984375 133.653320312 409.616210938 132.850585938 423.82421875 c 0
 131.623046875 445.15234375 129.833984375 466.483398438 130.155273438 487.864257812 c 2
 130.155273438 541.75 l 1
 130.155273438 544.026367188 l 2
 130.896484375 544.185546875 131.637695312 544.348632812 132.381835938 544.500976562 c 0
 143.995117188 546.693359375 155.790039062 547.638671875 167.567382812 548.4296875 c 0
 171.176757812 548.76953125 174.79296875 548.918945312 178.407226562 548.88671875 c 0
257.274414062 459.938476562 m 1
 256.512695312 458.9140625 255.775390625 457.873046875 255.141601562 456.765625 c 0
 252.608398438 453.098632812 249.671875 449.735351562 246.768554688 446.365234375 c 0
 245.556640625 444.959960938 241.982421875 440.69921875 243.118164062 442.166992188 c 0
 250.577148438 451.809570312 256.150390625 458.536132812 257.274414062 459.938476562 c 1
EndSplineSet
EndChar

StartChar: S
Encoding: 20 83 20
Width: 350
VWidth: 1078
Flags: HW
LayerCount: 2
Fore
SplineSet
117.833007812 192.501953125 m 0
 117.274414062 178.388671875 119.303710938 164.408203125 121.521484375 150.515625 c 0
 124.193359375 134.4375 129.809570312 119.330078125 137.930664062 105.276367188 c 0
 145.237304688 94.3896484375 154.389648438 84.0556640625 166.821289062 79.140625 c 0
 176.41015625 76.5498046875 188.931640625 73.2158203125 197.977539062 78.7919921875 c 0
 207.592773438 84.4423828125 215.489257812 92.912109375 221.114257812 102.518554688 c 1
 216.677734375 97.5615234375 212.357421875 92.4970703125 207.803710938 87.6474609375 c 0
 206.061523438 85.791015625 211.170898438 91.4765625 212.67578125 93.5302734375 c 0
 214.618164062 96.1787109375 216.350585938 98.974609375 218.12890625 101.736328125 c 0
 222.920898438 109.174804688 226.826171875 116.68359375 230.458984375 124.73828125 c 0
 237.696289062 141.6484375 240.255859375 159.711914062 241.5390625 177.900390625 c 0
 242.533203125 195.455078125 240.098632812 212.76953125 236.350585938 229.854492188 c 0
 233.505859375 243.64453125 228.060546875 256.461914062 220.536132812 268.291992188 c 0
 214.217773438 279.428710938 205.569335938 288.59765625 196.509765625 297.484375 c 0
 187.190429688 305.93359375 177.024414062 313.391601562 166.331054688 319.998046875 c 0
 153.540039062 327.966796875 140.430664062 335.458007812 127.084960938 342.462890625 c 0
 111.797851562 350.89453125 96.62890625 359.494140625 82.37890625 369.595703125 c 0
 66.4765625 380.833984375 53.375 395.041992188 41.5439453125 410.370117188 c 0
 30.349609375 425.576171875 21.806640625 442.215820312 15.3154296875 459.885742188 c 0
 8.416015625 480.853515625 8.822265625 502.1171875 13.1708984375 523.486328125 c 0
 18.7666015625 545.74609375 29.6826171875 565.700195312 42.8095703125 584.3125 c 0
 69.3232421875 617.930664062 85.5634765625 633.606445312 124.9609375 647.018554688 c 0
 149.802734375 654.231445312 174.321289062 651.897460938 199.190429688 646.84375 c 0
 219.346679688 641.72265625 238.419921875 633.422851562 256.26953125 622.85546875 c 0
 258.513671875 621.484375 260.7578125 620.112304688 263.001953125 618.741210938 c 0
 316.12890625 584.359375 262.103515625 500.879882812 208.9765625 535.260742188 c 1
 207.000976562 536.4609375 205.024414062 537.66015625 203.046875 538.860351562 c 0
 193.357421875 544.643554688 182.618164062 548.731445312 171.640625 551.297851562 c 0
 161.825195312 553.01171875 152.168945312 553.834960938 142.881835938 549.2109375 c 0
 131.955078125 543.42578125 104.095703125 511.330078125 135.118164062 547.33984375 c 1
 126.513671875 537.416015625 117.34375 528.115234375 112.3046875 515.71875 c 0
 108.551757812 509.6015625 105.643554688 505.436523438 107.19921875 497.900390625 c 0
 106.317382812 489.043945312 115.475585938 480.748046875 118.671875 473.129882812 c 0
 124.966796875 464.129882812 132.21484375 456.068359375 141.264648438 449.721679688 c 0
 152.552734375 441.565429688 165.083007812 435.301757812 177.138671875 428.3828125 c 0
 192.208984375 420.241210938 207.159179688 411.840820312 221.618164062 402.6484375 c 0
 236.95703125 392.7421875 251.76171875 381.979492188 265.109375 369.469726562 c 0
 278.385742188 356.475585938 291.21484375 342.956054688 300.841796875 326.93359375 c 0
 313.838867188 307.260742188 324.39453125 286.248046875 330.028320312 263.201171875 c 0
 335.658203125 239.546875 340.489257812 215.680664062 340.08203125 191.209960938 c 0
 340.038085938 164.009765625 337.249023438 136.754882812 328.903320312 110.731445312 c 0
 316.89453125 75.28125 299.529296875 44.408203125 272.725585938 17.5234375 c 0
 251.444335938 -1.283203125 227.9921875 -16.4619140625 199.266601562 -20.63671875 c 0
 170.849609375 -22.986328125 143.001953125 -19.9736328125 117.14453125 -6.99609375 c 0
 92.4033203125 7.078125 71.029296875 25.1611328125 55.6396484375 49.4541015625 c 0
 42.23046875 71.7158203125 31.794921875 95.2568359375 26.603515625 120.875976562 c 0
 23.0166015625 139.3515625 19.90625 158.094726562 19.619140625 176.9453125 c 0
 9.7197265625 239.44921875 107.93359375 255.00390625 117.833007812 192.501953125 c 0
EndSplineSet
EndChar

StartChar: T
Encoding: 21 84 21
Width: 438
VWidth: 1069
Flags: HW
LayerCount: 2
Fore
SplineSet
357.661132812 668.731445312 m 0
 350.541015625 668.8125 343.384765625 668.370117188 336.221679688 667.486328125 c 0
 311.870117188 665.145507812 287.606445312 661.896484375 263.213867188 660.0859375 c 0
 236.731445312 658.03515625 210.283203125 655.887695312 183.719726562 655.140625 c 0
 160.685546875 653.874023438 137.693359375 652.375 114.602539062 653.116210938 c 2
 63.7783203125 653.116210938 l 1
 0.9970703125 661.046875 -11.4658203125 562.395507812 51.3154296875 554.46484375 c 1
 102.139648438 554.46484375 l 2
 119.107421875 554.18359375 136.053710938 554.419921875 152.99609375 555.021484375 c 1
 154.029296875 539.293945312 154.537109375 523.538085938 155.7734375 507.821289062 c 0
 158.491210938 474.950195312 159.780273438 441.98828125 160.833007812 409.029296875 c 0
 163.266601562 369.673828125 165.244140625 330.295898438 166.75390625 290.892578125 c 0
 168.015625 254.416992188 170.813476562 218.015625 172.674804688 181.565429688 c 0
 174.154296875 152.874023438 175.017578125 124.155273438 175.715820312 95.435546875 c 0
 176.15234375 74.376953125 178.185546875 53.3359375 180.614257812 32.4150390625 c 0
 195.926757812 -28.9853515625 292.407226562 -4.9267578125 277.094726562 56.4736328125 c 0
 275.284179688 75.296875 273.669921875 94.1572265625 273.573242188 113.081054688 c 0
 272.758789062 142.518554688 271.729492188 171.94921875 270.122070312 201.35546875 c 0
 268.153320312 237.452148438 265.506835938 273.516601562 264.403320312 309.654296875 c 0
 262.774414062 348.90625 260.533203125 388.125 258.567382812 427.360351562 c 0
 257.3125 461.248046875 255.661132812 495.120117188 252.9453125 528.926757812 c 0
 252.330078125 539.41796875 251.823242188 549.920898438 251.1640625 560.412109375 c 0
 253.124023438 560.55859375 255.083984375 560.6875 257.043945312 560.83984375 c 0
 282.04296875 562.442382812 306.903320312 565.580078125 331.8125 568.146484375 c 0
 338.168945312 569.850585938 349.814453125 569.095703125 356.284179688 569.696289062 c 0
 398.237304688 547.530273438 453.91015625 604.087890625 416.834960938 646.659179688 c 0
 401.278320312 660.518554688 409.442382812 655.123046875 392.823242188 663.548828125 c 0
 381.294921875 667.001953125 369.529296875 668.596679688 357.661132812 668.731445312 c 0
EndSplineSet
EndChar

StartChar: U
Encoding: 22 85 22
Width: 377
VWidth: 1076
Flags: HW
LayerCount: 2
Fore
SplineSet
113.689453125 563.294921875 m 0
 107.701171875 494.215820312 106.592773438 424.580078125 110.19921875 355.330078125 c 0
 115.34765625 280.134765625 122.342773438 201.380859375 161.518554688 135.111328125 c 0
 172.961914062 107.2265625 215.194335938 79.9306640625 227.43359375 122.147460938 c 0
 231.010742188 124.831054688 205.174804688 96.22265625 219.580078125 114.545898438 c 0
 252.924804688 169.860351562 263.483398438 235.703125 267.219726562 299.30859375 c 0
 272.635742188 396.352539062 262.373046875 493.98046875 241.206054688 588.603515625 c 1
 239.064453125 632.069335938 303.796875 655.579101562 330.048828125 620.868164062 c 0
 344.10546875 599.473632812 343.6171875 572.35546875 349.961914062 548.142578125 c 0
 367.91015625 440.0859375 373.897460938 328.877929688 357.461914062 220.234375 c 0
 344.275390625 150.809570312 324.10546875 76.78125 269.838867188 27.7060546875 c 0
 237.764648438 0.1611328125 189.301757812 -7.66015625 151.412109375 12.392578125 c 0
 98.9560546875 36.4130859375 68.384765625 89.6923828125 48.5830078125 141.419921875 c 0
 18.22265625 223.869140625 12.69140625 312.536132812 10.0068359375 399.551757812 c 0
 9.927734375 457.368164062 10.4228515625 515.456054688 15.85546875 572.959960938 c 1
 25.8955078125 615.3046875 94.61328125 619.870117188 110.16796875 579.2265625 c 0
 112.217773438 574.158203125 113.331054688 568.740234375 113.689453125 563.294921875 c 0
EndSplineSet
EndChar

StartChar: V
Encoding: 23 86 23
Width: 371
VWidth: 1074
Flags: HW
LayerCount: 2
Fore
SplineSet
61.7841796875 652.487304688 m 0
 30.8671875 653.729492188 1.853515625 622.758789062 12.0966796875 591.948242188 c 0
 28.0341796875 487.647460938 51.615234375 384.677734375 74.859375 281.805664062 c 0
 92.064453125 209.350585938 106.907226562 135.951171875 131.741210938 65.6298828125 c 0
 143.150390625 34.5595703125 162.584960938 -1.01171875 199.306640625 -4.8671875 c 0
 234.895507812 -7.8671875 265.092773438 19.1328125 276.990234375 50.9287109375 c 0
 302.876953125 112.23828125 311.206054688 179.149414062 321.412109375 244.459960938 c 0
 334.428710938 340.465820312 349.736328125 436.264648438 357.375 532.89453125 c 0
 360.17578125 558.801757812 370.075195312 591.352539062 345.873046875 610.700195312 c 0
 316.520507812 635.883789062 260.219726562 615.118164062 262.748046875 573.754882812 c 0
 260.42578125 537.737304688 255.555664062 501.595703125 252.4765625 465.508789062 c 0
 240.23046875 370.735351562 228.423828125 275.814453125 212.205078125 181.624023438 c 0
 209.809570312 173.291992188 207.784179688 143.825195312 204.180664062 167.287109375 c 0
 170.518554688 299.922851562 140.764648438 433.618164062 115.640625 568.138671875 c 0
 109.25 591.916015625 114.083984375 620.427734375 95.923828125 639.5234375 c 0
 87.046875 648.479492188 74.25 652.762695312 61.7841796875 652.487304688 c 0
185.997070312 85.3173828125 m 1
 181.596679688 71.2109375 166.91796875 71.6875 185.997070312 85.3173828125 c 1
EndSplineSet
EndChar

StartChar: W
Encoding: 24 87 24
Width: 482
VWidth: 1075
Flags: HW
LayerCount: 2
Fore
SplineSet
63.8916015625 660.696289062 m 0
 26.892578125 664.693359375 -1.791015625 620.686523438 14.833984375 587.984375 c 1
 32.849609375 480.814453125 53.1337890625 374.049804688 74.83203125 267.579101562 c 0
 85.4482421875 207.477539062 93.1748046875 146.838867188 106.506835938 87.2392578125 c 1
 97.876953125 63.8046875 103.51953125 32.8994140625 125.541015625 18.81640625 c 1
 140.45703125 -17.0927734375 193.436523438 -34.8486328125 221.41796875 -3.3193359375 c 0
 251.60546875 25.5732421875 259.090820312 68.404296875 274.430664062 105.561523438 c 1
 292.736328125 67.0595703125 305.731445312 21.7294921875 341.9453125 -4.146484375 c 0
 376.30859375 -25.7431640625 417.853515625 -0.0478515625 430.673828125 34.0341796875 c 0
 437.954101562 66.591796875 442.018554688 100.044921875 445.046875 133.321289062 c 0
 446.010742188 176.225585938 448.40234375 219.03125 452.249023438 261.740234375 c 0
 452.407226562 327.7734375 457.459960938 393.556640625 464.94921875 459.122070312 c 0
 467.634765625 503.645507812 464.696289062 548.540039062 472.662109375 592.715820312 c 1
 472.697265625 637.4375 405.731445312 652.415039062 381.913085938 617.1328125 c 0
 367.653320312 588.776367188 371.454101562 555.086914062 368.720703125 524.170898438 c 0
 368.959960938 454.9765625 357.426757812 386.625 355.055664062 317.559570312 c 0
 354.538085938 284.876953125 354.923828125 250.444335938 350.482421875 219.022460938 c 1
 335.521484375 244.075195312 315.0078125 268.534179688 287.046875 279.079101562 c 0
 251.208007812 287.0859375 222.317382812 250.831054688 214.84765625 219.416015625 c 0
 208.729492188 205.16015625 200.107421875 169.983398438 191.048828125 170.424804688 c 1
 176.5703125 263.08203125 158.72265625 355.150390625 139.908203125 446.997070312 c 0
 128.239257812 509.080078125 119.16015625 571.772460938 105.853515625 633.471679688 c 0
 99.0986328125 649.98828125 81.5693359375 660.842773438 63.8916015625 660.696289062 c 0
337.59765625 65 m 1
 337.865234375 52.599609375 330.397460938 61.412109375 337.59765625 65 c 1
145.799804688 54.125 m 1
 137.954101562 46.3232421875 130.771484375 55.0390625 145.799804688 54.125 c 1
EndSplineSet
EndChar

StartChar: X
Encoding: 25 88 25
Width: 424
VWidth: 1076
Flags: HW
LayerCount: 2
Fore
SplineSet
342.180664062 663.091796875 m 0
 304.403320312 661.659179688 284.858398438 622.666015625 268.897460938 593.590820312 c 0
 245.077148438 544.745117188 223.986328125 494.612304688 202.926757812 444.528320312 c 1
 169.1484375 501.268554688 133.286132812 556.771484375 98.015625 612.532226562 c 0
 70.9453125 648.87109375 7.6259765625 620.60546875 10.068359375 577.654296875 c 0
 14.302734375 549.862304688 35.3544921875 528.393554688 48.9345703125 504.587890625 c 0
 85.595703125 447.485351562 120.650390625 389.344726562 155.049804688 330.856445312 c 1
 122.8359375 250.080078125 84.076171875 172.03515625 53.5166015625 90.607421875 c 0
 47.1005859375 66.578125 32.7333984375 42.666015625 37.2353515625 17.259765625 c 0
 47.4580078125 -27.3671875 121.798828125 -29.5703125 133.208984375 15.4375 c 0
 144.041015625 71.20703125 171.623046875 121.890625 193.293945312 173.98046875 c 0
 201.11328125 186.9921875 208.104492188 215.8203125 215.859375 219.056640625 c 1
 249.486328125 154.862304688 277.11328125 87.63671875 309.959960938 23.158203125 c 0
 320.431640625 1.5888671875 331.124023438 -25.80859375 364.203125 -23.224609375 c 0
 396.555664062 -22.759765625 425.443359375 12.6142578125 410.102539062 43.80859375 c 0
 363.921875 136.352539062 323.6484375 231.9296875 273.465820312 322.516601562 c 1
 253.370117188 344.869140625 281.079101562 369.778320312 286.481445312 393.493164062 c 0
 310.578125 450.2421875 333.88671875 507.405273438 361.100585938 562.755859375 c 0
 360.140625 568.668945312 388.932617188 598.594726562 367.063476562 572.1484375 c 0
 367.620117188 564.918945312 393.315429688 592.803710938 389.806640625 607.369140625 c 0
 392.884765625 635.034179688 371.94921875 664.973632812 342.180664062 663.091796875 c 0
364.0390625 568.301757812 m 1
 362.428710938 568.331054688 364.115234375 567.4609375 364.0390625 568.301757812 c 1
363.754882812 567.935546875 m 1
 355.068359375 561.141601562 364.9921875 565.021484375 363.754882812 567.935546875 c 1
EndSplineSet
EndChar

StartChar: Y
Encoding: 26 89 26
Width: 386
VWidth: 1077
Flags: HW
LayerCount: 2
Fore
SplineSet
326.125 637.12890625 m 0
 303.635742188 637.418945312 281.321289062 624.577148438 277.52734375 596.154296875 c 0
 272.125 590.241210938 270.15625 572.1015625 266.423828125 564.686523438 c 0
 260.959960938 547.716796875 255.64453125 530.705078125 249.408203125 513.997070312 c 0
 242.848632812 496.5859375 235.921875 479.297851562 228.068359375 462.42578125 c 0
 223.060546875 451.71484375 217.990234375 441.005859375 212.330078125 430.62109375 c 1
 210.314453125 434.400390625 208.212890625 438.1328125 205.940429688 441.780273438 c 0
 197.235351562 457.102539062 187.518554688 471.794921875 177.291015625 486.14453125 c 0
 168.068359375 499.107421875 159.522460938 512.534179688 150.70703125 525.774414062 c 0
 141.622070312 539.67578125 132.35546875 553.473632812 123.856445312 567.745117188 c 0
 116.118164062 581.384765625 108.578125 595.114257812 101.385742188 609.047851562 c 0
 66.5595703125 661.883789062 -16.46484375 607.16015625 18.361328125 554.32421875 c 0
 25.0791015625 540.126953125 33.02734375 526.541015625 40.87890625 512.948242188 c 0
 50.189453125 497.470703125 60.5068359375 482.631835938 70.205078125 467.403320312 c 0
 79.7763671875 453.049804688 89.1005859375 438.54296875 99.2177734375 424.5625 c 0
 107.23828125 412.778320312 115.5625 401.147460938 122.034179688 388.416015625 c 0
 128.737304688 377.9296875 133.583007812 366.487304688 138.80078125 355.234375 c 0
 142.166015625 348.5546875 146.013671875 342.829101562 150.370117188 337.814453125 c 0
 152.552734375 320.91015625 155.32421875 304.064453125 157.80859375 287.1953125 c 0
 160.775390625 262.122070312 164.60546875 237.173828125 167.333007812 212.069335938 c 0
 169.88671875 187.836914062 171.158203125 163.505859375 172.2109375 139.169921875 c 0
 172.966796875 117.080078125 175.713867188 95.11328125 177.534179688 73.0908203125 c 0
 178.55859375 60.509765625 179.115234375 47.900390625 179.995117188 35.3095703125 c 0
 193.239257812 -26.5693359375 290.47265625 -5.759765625 277.228515625 56.119140625 c 0
 276.42578125 69.2587890625 275.595703125 82.3974609375 274.41015625 95.5087890625 c 0
 272.540039062 116.482421875 270.293945312 137.44140625 269.749023438 158.505859375 c 0
 268.421875 184.637695312 266.708007812 210.758789062 263.658203125 236.754882812 c 0
 260.522460938 262.76171875 256.864257812 288.704101562 253.377929688 314.6640625 c 0
 252.708984375 319.004882812 252.041015625 323.346679688 251.385742188 327.689453125 c 0
 272.458984375 344.30078125 288.560546875 367.157226562 300.73046875 390.912109375 c 0
 309.735351562 407.9453125 317.7109375 425.551757812 325.615234375 443.13671875 c 0
 333.764648438 462.606445312 341.592773438 482.200195312 348.150390625 502.266601562 c 0
 354.5078125 520.145507812 360.37890625 538.275390625 365.529296875 556.553710938 c 0
 368.452148438 565.653320312 373.529296875 573.893554688 376.090820312 582.997070312 c 0
 380.669921875 617.299804688 353.268554688 636.779296875 326.125 637.12890625 c 0
EndSplineSet
EndChar

StartChar: Z
Encoding: 27 90 27
Width: 436
VWidth: 1087
Flags: HW
LayerCount: 2
Fore
SplineSet
263.9921875 615.639648438 m 1
 259.642578125 615.680664062 255.296875 615.600585938 250.94921875 615.334960938 c 0
 229.618164062 614.227539062 208.3046875 612.850585938 187.017578125 611.08984375 c 0
 163.71875 609.392578125 140.307617188 610.131835938 116.977539062 608.936523438 c 0
 97.6953125 608.176757812 78.4169921875 607.266601562 59.2041015625 605.435546875 c 0
 -4.0390625 607.64453125 -7.5107421875 508.26953125 55.732421875 506.060546875 c 0
 73.1083984375 508.08984375 90.5810546875 509.0625 108.047851562 509.901367188 c 0
 131.62109375 510.997070312 155.22265625 511.133789062 178.805664062 511.993164062 c 0
 200.190429688 513.313476562 221.55078125 514.97265625 242.942382812 516.220703125 c 0
 257.133789062 517.541992188 271.340820312 516.471679688 285.51953125 515.596679688 c 1
 285.5 515.56640625 285.482421875 515.534179688 285.463867188 515.502929688 c 0
 274.682617188 497.1953125 264.751953125 478.40625 254.828125 459.625 c 0
 242.849609375 436.025390625 230.458984375 412.69921875 217.319335938 389.731445312 c 0
 208.890625 375.41015625 200.978515625 360.811523438 193.3046875 346.087890625 c 1
 162.387695312 346.087890625 l 1
 116.280273438 346.087890625 l 1
 53.4970703125 354.018554688 41.0341796875 255.3671875 103.817382812 247.436523438 c 1
 145.020507812 247.436523438 l 1
 141.42578125 239.27734375 137.896484375 231.087890625 134.4296875 222.868164062 c 0
 123.154296875 197.447265625 113.001953125 171.521484375 102.8828125 145.62109375 c 0
 95.078125 126.9375 90.2177734375 106.966796875 82.3251953125 88.357421875 c 0
 76.3662109375 74.470703125 72.080078125 60.4111328125 75.724609375 45.0771484375 c 0
 76.9296875 40.001953125 79.2470703125 35.2568359375 81.009765625 30.3466796875 c 0
 92.2802734375 10.05859375 110.666992188 0.5068359375 132.267578125 -4.759765625 c 0
 146.661132812 -7.7451171875 161.333007812 -9.0380859375 176.016601562 -8.7294921875 c 0
 187.09765625 -7.4814453125 198.083007812 -7.5986328125 209.189453125 -8.205078125 c 0
 221.400390625 -8.6630859375 233.494140625 -10.6103515625 245.573242188 -12.365234375 c 0
 260.485351562 -15.2421875 275.46484375 -17.6884765625 290.538085938 -19.5517578125 c 0
 305.694335938 -21.80859375 320.921875 -21.763671875 336.16796875 -20.8232421875 c 0
 347.829101562 -20.75 358.98828125 -17.0068359375 370.50390625 -16.126953125 c 0
 379.30859375 -15.1904296875 374.125 -15.83203125 386.025390625 -13.96484375 c 0
 448.588867188 -4.466796875 433.662109375 93.8447265625 371.098632812 84.3466796875 c 1
 376.041992188 83.810546875 376.721679688 84.3115234375 373.389648438 83.2685546875 c 0
 363.497070312 81.25 352.697265625 82.7314453125 343.22265625 78.3642578125 c 0
 332.778320312 77.6103515625 322.481445312 75.7939453125 312.036132812 77.5322265625 c 0
 298.499023438 78.8857421875 285.024414062 80.751953125 271.708984375 83.576171875 c 0
 256.715820312 86.4091796875 241.446289062 88.306640625 226.278320312 89.751953125 c 0
 212.939453125 90.5546875 199.521484375 92.060546875 186.19140625 90.6455078125 c 1
 190.979492188 103.993164062 196.143554688 117.208984375 201.159179688 130.474609375 c 0
 211.302734375 155.587890625 221.196289062 180.80859375 232.33984375 205.50390625 c 0
 238.512695312 219.616210938 245.001953125 233.578125 251.7109375 247.436523438 c 1
 264.876953125 247.436523438 l 2
 274.799804688 247.403320312 284.723632812 247.514648438 294.6484375 247.360351562 c 0
 356.952148438 236.2890625 374.3515625 334.190429688 312.047851562 345.26171875 c 0
 309.060546875 345.512695312 306.072265625 345.697265625 303.088867188 345.833007812 c 1
 306.470703125 351.864257812 309.8828125 357.879882812 313.333984375 363.874023438 c 0
 326.416015625 387.512695312 338.486328125 411.680664062 351.288085938 435.47265625 c 0
 361.09375 453.615234375 371.158203125 471.606445312 381.4375 489.484375 c 0
 387.995117188 502.043945312 394.54296875 514.700195312 399.657226562 527.916015625 c 0
 407.374023438 549.756835938 404.919921875 572.330078125 389.883789062 590.713867188 c 0
 374.877929688 604.869140625 359.669921875 613.099609375 338.74609375 613.647460938 c 0
 326.85546875 614.501953125 314.931640625 615.6328125 303.100585938 613.495117188 c 0
 290.083984375 614.276367188 277.038085938 615.515625 263.9921875 615.639648438 c 1
EndSplineSet
EndChar

StartChar: Aacute
Encoding: 29 193 29
Width: 395
VWidth: 1074
Flags: HW
LayerCount: 2
Fore
SplineSet
266.44921875 689.705078125 m 0
 238.09765625 684.064453125 224.755859375 652.017578125 203.340820312 634.91015625 c 0
 163.004882812 608.772460938 217.994140625 551.663085938 246.752929688 587.888671875 c 0
 259.865234375 613.977539062 295.446289062 626.30859375 299.190429688 656.224609375 c 0
 298.59375 673.245117188 284.301757812 690.25 266.44921875 689.705078125 c 0
202.625976562 557.3125 m 0
 162.4453125 557.630859375 135.861328125 518.909179688 130.532226562 482.541015625 c 0
 116.134765625 422.548828125 89.2822265625 365.96484375 77.982421875 305.02734375 c 0
 60.7353515625 222.947265625 44.056640625 140.696289062 20.501953125 60.1298828125 c 0
 10.3359375 31.9892578125 -1.533203125 -9.0234375 33.1025390625 -25.56640625 c 0
 62.37890625 -42.8232421875 108.025390625 -24.693359375 108.228515625 12.015625 c 1
 120.788085938 59.1044921875 134.530273438 105.896484375 145.55859375 153.384765625 c 1
 186.064453125 158.296875 226.649414062 162.758789062 267.360351562 165.572265625 c 1
 274.759765625 111.208984375 279.524414062 56.0751953125 279.260742188 1.36328125 c 0
 274.569335938 -26.5166015625 309.986328125 -51.611328125 338.126953125 -43.751953125 c 0
 372.377929688 -39.751953125 382.423828125 -2.33203125 377.375976562 26.833984375 c 0
 376.083007812 77.689453125 371.940429688 128.450195312 364.98046875 178.84375 c 1
 397.028320312 200.3125 391.514648438 259.860351562 351.618164062 268.83203125 c 1
 337.224609375 348.361328125 318.125 428.258789062 282.981445312 501.384765625 c 0
 267.479492188 531.994140625 238.79296875 557.731445312 202.625976562 557.3125 c 0
212.361328125 414.657226562 m 1
 230.024414062 365.422851562 243.272460938 314.587890625 252.471679688 263.110351562 c 1
 223.880859375 261.891601562 195.533203125 257.750976562 167.094726562 254.942382812 c 1
 176.618164062 309.71875 193.771484375 362.396484375 212.361328125 414.657226562 c 1
EndSplineSet
EndChar

StartChar: Eacute
Encoding: 30 201 30
Width: 411
VWidth: 1072
Flags: HW
LayerCount: 2
Fore
SplineSet
189.255859375 683.432617188 m 0
 159.82421875 679.387695312 146.411132812 645.795898438 124.59375 628.633789062 c 0
 87.6708984375 605.08203125 131.262695312 550.334960938 163.547851562 576.96484375 c 1
 179.000976562 602.137695312 208.532226562 617.788085938 220.15234375 644.39453125 c 0
 222.762695312 662.690429688 208.376953125 682.85546875 189.255859375 683.432617188 c 0
275.634765625 536.98046875 m 0
 206.771484375 529.723632812 137.499023438 523.616210938 69.6005859375 509.788085938 c 0
 29.125 497.375 7.0908203125 453.607421875 10.36328125 413.154296875 c 0
 9.0849609375 366.344726562 11.37109375 319.662109375 14.271484375 272.966796875 c 0
 16.728515625 222.010742188 21.7451171875 171.194335938 23.0068359375 120.176757812 c 0
 26.951171875 90.904296875 26.41796875 61.0712890625 31.0703125 32.01171875 c 0
 39.7939453125 -1.1650390625 71.2529296875 -22.3515625 104.133789062 -26.2958984375 c 0
 178.4765625 -37.4052734375 253.40625 -26.78125 327.310546875 -17.587890625 c 0
 350.737304688 -14.4794921875 380.70703125 -18.4677734375 393.794921875 6.3359375 c 0
 413.497070312 36.0654296875 394.413085938 85.2431640625 355.776367188 84.126953125 c 0
 282.124023438 78.490234375 208.875 61.4248046875 134.674804688 69.4462890625 c 0
 114.044921875 76.6328125 128.051757812 118.487304688 120.53125 138.587890625 c 1
 121.711914062 161.939453125 106.684570312 198.198242188 143.197265625 192.484375 c 1
 170.466796875 198.702148438 207.392578125 192.23828125 223.262695312 221.063476562 c 0
 241.21875 251.055664062 221.083984375 298.963867188 183.360351562 297.674804688 c 0
 161.948242188 296.735351562 125.841796875 283.413085938 111.884765625 291.778320312 c 1
 108.838867188 333.53515625 107.576171875 375.3828125 108.821289062 417.244140625 c 1
 152.168945312 425.744140625 196.348632812 428.787109375 240.01171875 434.69921875 c 0
 269.828125 436.088867188 312.032226562 435.271484375 319.91015625 472.375 c 0
 329.091796875 501.977539062 308.986328125 538.091796875 275.634765625 536.98046875 c 0
110.614257812 433.471679688 m 1
 120.823242188 431.735351562 101.58984375 415.448242188 110.614257812 433.471679688 c 1
103.079101562 416.649414062 m 1
 91.716796875 403.958007812 75.69140625 416.631835938 103.079101562 416.649414062 c 1
EndSplineSet
EndChar

StartChar: Iacute
Encoding: 31 205 31
Width: 285
VWidth: 1074
Flags: HW
LayerCount: 2
Fore
SplineSet
229.736328125 698.723632812 m 0
 225.045898438 698.588867188 220.099609375 697.255859375 215.073242188 694.4140625 c 0
 212.369140625 691.2890625 214.126953125 693.125976562 209.465820312 689.24609375 c 0
 202.015625 681.465820312 194.491210938 673.756835938 187.208984375 665.817382812 c 0
 176.409179688 653.961914062 164.662109375 643.033203125 155.1640625 629.975585938 c 0
 138.880859375 592.774414062 196.51953125 567.069335938 213.705078125 602.9140625 c 0
 216.716796875 606.243164062 219.581054688 609.401367188 220.897460938 610.80078125 c 0
 228.013671875 618.52734375 235.182617188 626.202148438 242.439453125 633.795898438 c 0
 244.893554688 636.76171875 243.46484375 635.240234375 246.833984375 638.263671875 c 0
 277.544921875 655.631835938 258.40625 699.543945312 229.736328125 698.723632812 c 0
231.98046875 557.829101562 m 2
 225.766601562 557.395507812 229.135742188 557.612304688 221.881835938 557.196289062 c 0
 207.487304688 556.444335938 193.09375 555.48828125 178.786132812 553.677734375 c 0
 164.01953125 551.768554688 149.3828125 549.883789062 134.427734375 550.083007812 c 0
 118.33984375 549.208007812 102.262695312 548.126953125 86.2255859375 546.543945312 c 0
 22.9619140625 548.041992188 20.6064453125 448.631835938 83.8701171875 447.133789062 c 0
 90.982421875 448.051757812 98.1162109375 448.768554688 105.259765625 449.372070312 c 1
 105.259765625 406.572265625 l 1
 105.259765625 329.796875 l 2
 105.983398438 301.625 104.588867188 273.532226562 103.200195312 245.41015625 c 0
 102.473632812 216.259765625 100.31640625 187.221679688 98.2138671875 158.149414062 c 0
 96.353515625 132.158203125 95.09375 106.129882812 94.0947265625 80.09375 c 0
 93.8212890625 73.6083984375 93.8310546875 67.11328125 94.0185546875 60.6201171875 c 1
 87.7978515625 62.0791015625 81.5751953125 63.5380859375 75.3095703125 64.8271484375 c 0
 15.9501953125 86.755859375 -18.505859375 -6.51953125 40.853515625 -28.4482421875 c 0
 54.70703125 -32.1474609375 68.7119140625 -35.283203125 82.6982421875 -38.435546875 c 0
 98.1484375 -41.537109375 113.4296875 -45.361328125 128.90234375 -48.3466796875 c 0
 144.163085938 -51.21484375 159.6171875 -52.7724609375 175.083007812 -53.9833984375 c 0
 188.41796875 -55.4794921875 201.487304688 -53.423828125 214.528320312 -50.9541015625 c 0
 277.337890625 -43.2431640625 265.220703125 55.455078125 202.411132812 47.744140625 c 0
 202.626953125 45.24609375 196.244140625 44.4462890625 193.680664062 43.9033203125 c 0
 193.659179688 43.994140625 193.642578125 44.0830078125 193.619140625 44.17578125 c 0
 193.553710938 45.1728515625 193.487304688 46.171875 193.419921875 47.169921875 c 0
 192.412109375 62.205078125 191.669921875 77.267578125 192.775390625 92.328125 c 0
 193.887695312 117.530273438 195.297851562 142.719726562 197.172851562 167.87890625 c 0
 199.31640625 197.6015625 200.779296875 227.345703125 201.9453125 257.123046875 c 0
 203.294921875 286.522460938 203.852539062 315.921875 203.471679688 345.353515625 c 2
 203.471679688 422.12890625 l 1
 203.471679688 457.203125 l 2
 207.083984375 457.510742188 210.698242188 457.797851562 214.314453125 458.049804688 c 0
 221.567382812 458.487304688 218.114257812 458.282226562 224.670898438 458.662109375 c 0
 287.78125 454.009765625 295.090820312 553.176757812 231.98046875 557.829101562 c 2
EndSplineSet
EndChar

StartChar: Oacute
Encoding: 32 211 32
Width: 407
VWidth: 1079
Flags: HW
LayerCount: 2
Fore
SplineSet
270.875 690.2265625 m 0
 264.302734375 690.408203125 257.30078125 688.755859375 250.170898438 684.724609375 c 0
 246.716796875 680.734375 248.962890625 683.077148438 243.010742188 678.123046875 c 0
 233.498046875 668.189453125 223.887695312 658.345703125 214.591796875 648.208984375 c 0
 200.799804688 633.073242188 185.807617188 619.120117188 173.6796875 602.447265625 c 0
 152.887695312 554.948242188 226.484375 522.131835938 248.423828125 567.903320312 c 0
 252.267578125 572.153320312 255.921875 576.181640625 257.603515625 577.965820312 c 0
 266.6875 587.831054688 275.840820312 597.633789062 285.107421875 607.328125 c 0
 288.241210938 611.116210938 286.416015625 609.169921875 290.717773438 613.029296875 c 0
 329.215820312 634.802734375 306.362304688 689.245117188 270.875 690.2265625 c 0
212.272460938 531.96484375 m 0
 188.75 532.3515625 166.462890625 525.15625 144.901367188 515.640625 c 0
 107.045898438 497.0546875 79.2294921875 465.533203125 56.8671875 430.26953125 c 0
 35.7236328125 394.9921875 24.34765625 355.842773438 16.4140625 315.8359375 c 0
 7.5859375 271.104492188 9.1298828125 225.619140625 13.5400390625 180.53125 c 0
 17.74609375 138.647460938 28.7177734375 98.0009765625 43.73046875 58.7998046875 c 0
 56.505859375 26.3330078125 75.435546875 -2.7529296875 99.037109375 -28.267578125 c 0
 125.470703125 -53.26953125 148.66015625 -63.46484375 184.932617188 -65.0380859375 c 0
 218.634765625 -63.7490234375 246.350585938 -46.8603515625 271.8828125 -26.3544921875 c 0
 306.654296875 3.474609375 332.239257812 41.501953125 354.037109375 81.3232421875 c 0
 372.81640625 117.676757812 384.965820312 156.52734375 392.547851562 196.594726562 c 0
 400.234375 236.637695312 398.439453125 277.168945312 392.966796875 317.297851562 c 0
 387.373046875 354.002929688 372.466796875 386.991210938 351.479492188 417.247070312 c 0
 345.833984375 424.837890625 339.608398438 431.8359375 332.92578125 438.334960938 c 1
 333.286132812 449.068359375 329.653320312 460.27734375 320.48046875 470.59375 c 0
 309.590820312 483.782226562 296.719726562 495.100585938 283.3671875 505.708984375 c 0
 265.490234375 520.104492188 244.78515625 527.560546875 222.432617188 531.3203125 c 0
 219.021484375 531.701171875 215.6328125 531.909179688 212.272460938 531.96484375 c 0
181.82421875 426.305664062 m 1
 185.142578125 410.76953125 195.844726562 397.064453125 215.700195312 391.776367188 c 0
 222.642578125 391.64453125 229.2578125 389.53125 235.774414062 387.2265625 c 0
 249.96484375 379.713867188 262.774414062 369.85546875 272.451171875 356.892578125 c 0
 285.830078125 337.3046875 293.952148438 315.595703125 296.8203125 291.932617188 c 0
 300.1953125 260.5078125 300.318359375 228.958007812 293.120117188 197.962890625 c 0
 285.526367188 166.509765625 274.688476562 135.956054688 258.227539062 107.942382812 c 0
 251.360351562 96.685546875 249.365234375 92.9248046875 241.756835938 82.322265625 c 0
 239 78.48046875 230.640625 75.0185546875 233.172851562 71.025390625 c 0
 233.354492188 70.740234375 233.53515625 70.5595703125 233.711914062 70.4482421875 c 1
 228.450195312 65.669921875 223.629882812 61.318359375 226.6484375 62.1953125 c 1
 216.749023438 51.7802734375 206.474609375 42.0703125 194.591796875 33.9267578125 c 0
 192.795898438 33.1943359375 191.266601562 31.697265625 189.34765625 31.4072265625 c 0
 182.145507812 30.3193359375 175.328125 37.3134765625 170.266601562 41.1162109375 c 0
 153.750976562 58.5966796875 141.916015625 79.6904296875 133.26171875 102.065429688 c 0
 121.481445312 134.69921875 113.180664062 168.436523438 110.380859375 203.110351562 c 0
 107.547851562 240.220703125 107.256835938 277.518554688 115.833007812 314.0078125 c 0
 122.955078125 343.497070312 132.822265625 372.4453125 150.693359375 397.33984375 c 0
 166.688476562 418.0078125 152.946289062 399.745117188 146.439453125 394.032226562 c 0
 143.911132812 391.813476562 150.53515625 399.375 152.612304688 402.021484375 c 0
 157.830078125 408.668945312 163.416992188 414.73828125 170.454101562 419.543945312 c 0
 174.18359375 421.922851562 177.954101562 424.224609375 181.82421875 426.305664062 c 1
242.958007812 81.53125 m 2
 245.502929688 81.5546875 241.05859375 77.197265625 236.064453125 72.61328125 c 1
 237.6640625 75.7177734375 239.529296875 80.939453125 242.3046875 81.4580078125 c 0
 242.559570312 81.5068359375 242.778320312 81.5302734375 242.958007812 81.53125 c 2
EndSplineSet
EndChar

StartChar: Uacute
Encoding: 33 218 33
Width: 437
VWidth: 1078
Flags: HW
LayerCount: 2
Fore
SplineSet
252.454101562 676.266601562 m 0
 247.763671875 676.131835938 242.81640625 674.798828125 237.791015625 671.95703125 c 0
 235.086914062 668.83203125 236.844726562 670.668945312 232.18359375 666.7890625 c 0
 224.733398438 659.008789062 217.205078125 651.299804688 209.923828125 643.360351562 c 0
 199.123046875 631.504882812 187.380859375 620.576171875 177.881835938 607.518554688 c 0
 161.596679688 570.314453125 219.244140625 544.609375 236.42578125 580.462890625 c 0
 239.435546875 583.791015625 242.296875 586.946289062 243.612304688 588.34375 c 0
 250.728515625 596.0703125 257.897460938 603.745117188 265.154296875 611.338867188 c 0
 267.607421875 614.3046875 266.1796875 612.783203125 269.548828125 615.806640625 c 0
 300.258789062 633.174804688 281.124023438 677.086914062 252.454101562 676.266601562 c 0
82.08984375 558.0390625 m 0
 58.802734375 557.83984375 35.8916015625 543.67578125 33.7822265625 514.087890625 c 0
 28.9169921875 496.7421875 25.3837890625 479.043945312 22.125 461.3125 c 0
 17.23828125 430.721679688 12.984375 400.076171875 11.2470703125 369.135742188 c 0
 8.103515625 327.619140625 11.443359375 286.23828125 15.3046875 244.922851562 c 0
 19.36328125 201.70703125 30.0498046875 159.513671875 42.0380859375 117.91796875 c 0
 52.052734375 82.3603515625 66.4423828125 48.3291015625 85.4296875 16.6796875 c 0
 101.142578125 -5.974609375 120.706054688 -26.541015625 146.311523438 -37.9267578125 c 0
 151.770507812 -40.3544921875 157.541015625 -42.0107421875 163.154296875 -44.052734375 c 0
 196.034179688 -53.087890625 227.790039062 -46.55078125 258.747070312 -34.4609375 c 0
 288.173828125 -21.435546875 312.377929688 -0.42578125 334.833984375 22.140625 c 0
 365.567382812 53.2490234375 385.447265625 89.51171875 401.625 129.455078125 c 0
 415.62109375 167.092773438 422.012695312 206.889648438 425.663085938 246.704101562 c 0
 429.346679688 290.833984375 427.725585938 335.092773438 422.783203125 379.029296875 c 0
 418.71484375 414.44140625 410.30859375 448.890625 400.04296875 482.93359375 c 0
 395.961914062 495.340820312 391.59765625 507.62890625 386.932617188 519.827148438 c 0
 359.388671875 576.798828125 269.866210938 533.515625 297.41015625 476.543945312 c 0
 301.224609375 466.0390625 304.93359375 455.498046875 308.203125 444.809570312 c 0
 316.734375 415.493164062 323.077148438 385.677734375 326.229492188 355.260742188 c 0
 329.76953125 316.862304688 330.525390625 278.204101562 326.466796875 239.79296875 c 0
 322.458984375 208.087890625 316.83203125 176.319335938 303.735351562 146.927734375 c 0
 296.655273438 131.6875 288.909179688 117.440429688 278.762695312 103.987304688 c 0
 276.254882812 100.66015625 267.701171875 91.6591796875 271.025390625 94.169921875 c 0
 275.267578125 97.373046875 278.065429688 102.133789062 281.583984375 106.1171875 c 1
 268.866210938 89.2197265625 253.36328125 74.2568359375 235.880859375 62.3125 c 0
 224.520507812 55.10546875 212.1796875 49.25 198.50390625 48.888671875 c 0
 184.514648438 48.947265625 175.19921875 62.3916015625 167.727539062 72.490234375 c 0
 152.705078125 98.3046875 142.274414062 126.370117188 134.264648438 155.098632812 c 0
 124.038085938 191.998046875 115.049804688 229.384765625 112.104492188 267.680664062 c 0
 108.887695312 304.721679688 106.911132812 341.837890625 110.194335938 378.979492188 c 0
 112.638671875 406.478515625 116.428710938 433.874023438 121.561523438 461.004882812 c 0
 124.87890625 476.46875 128.276367188 491.904296875 132.966796875 507.021484375 c 0
 135.35546875 540.5546875 108.483398438 558.264648438 82.08984375 558.0390625 c 0
EndSplineSet
EndChar

StartChar: Udieresis
Encoding: 34 220 34
Width: 390
VWidth: 1079
Flags: HW
LayerCount: 2
Fore
SplineSet
298.69140625 636.432617188 m 0
 290.831054688 636.44921875 283.662109375 635.0078125 277.290039062 632.234375 c 0
 267.086914062 630.221679688 257.76171875 623.708007812 252.35546875 611.357421875 c 0
 242.297851562 597.791992188 239.131835938 582.517578125 240.1796875 565.967773438 c 0
 245.131835938 543.4140625 257.758789062 530.708984375 280.125976562 525.280273438 c 0
 292.984375 523.701171875 312.557617188 526.603515625 321.750976562 536.858398438 c 0
 328.176757812 544.02734375 333.640625 552.00390625 339.586914062 559.575195312 c 0
 346.5859375 574.162109375 347.049804688 588.8984375 343.254882812 604.334960938 c 0
 336.930664062 622.52734375 322.112304688 632.612304688 303.876953125 636.21875 c 0
 302.1171875 636.358398438 300.387695312 636.4296875 298.69140625 636.432617188 c 0
68.7021484375 628.970703125 m 0
 60.8388671875 628.987304688 53.6650390625 627.545898438 47.2919921875 624.76953125 c 0
 37.091796875 622.755859375 27.771484375 616.24609375 22.3662109375 603.8984375 c 0
 12.30859375 590.333007812 9.142578125 575.055664062 10.1904296875 558.505859375 c 0
 15.142578125 535.952148438 27.76953125 523.247070312 50.13671875 517.818359375 c 0
 62.9951171875 516.239257812 82.5654296875 519.141601562 91.7587890625 529.396484375 c 0
 98.1845703125 536.565429688 103.651367188 544.541992188 109.59765625 552.11328125 c 0
 116.596679688 566.700195312 117.057617188 581.436523438 113.262695312 596.873046875 c 0
 106.938476562 615.065429688 92.123046875 625.150390625 73.8876953125 628.756835938 c 0
 72.1279296875 628.896484375 70.3984375 628.967773438 68.7021484375 628.970703125 c 0
322.87890625 584.055664062 m 1
 322.709960938 582.62890625 322.454101562 581.263671875 322.123046875 579.959960938 c 1
 322.287109375 580.946289062 322.41015625 581.962890625 322.50390625 582.998046875 c 0
 322.638671875 583.352539062 322.75390625 583.703125 322.87890625 584.055664062 c 1
92.8896484375 576.596679688 m 1
 92.720703125 575.168945312 92.46484375 573.803710938 92.1337890625 572.498046875 c 1
 92.298828125 573.485351562 92.4208984375 574.50390625 92.5146484375 575.541992188 c 0
 92.6494140625 575.895507812 92.7666015625 576.245117188 92.8896484375 576.596679688 c 1
293.186523438 508.935546875 m 0
 261.013671875 508.530273438 227.969726562 477.778320312 245.198242188 439.991210938 c 0
 249.680664062 426.4375 254.3984375 412.978515625 259.333984375 399.58203125 c 0
 265.685546875 380.280273438 271.323242188 360.736328125 275.004882812 340.724609375 c 0
 279.712890625 313.91796875 282.666015625 286.856445312 282.583984375 259.595703125 c 0
 282.422851562 232.540039062 281.482421875 205.323242188 274.896484375 178.935546875 c 0
 269.268554688 158.728515625 261.217773438 139.1875 248.318359375 122.439453125 c 0
 246.091796875 119.637695312 238.985351562 111.633789062 241.638671875 114.034179688 c 0
 246.104492188 118.076171875 249.422851562 123.262695312 253.802734375 127.399414062 c 0
 256.311523438 129.76953125 249.510742188 121.991210938 247.278320312 119.357421875 c 0
 243.3671875 114.743164062 239.069335938 110.051757812 234.666015625 105.88671875 c 0
 232.694335938 104.022460938 230.59375 102.297851562 228.557617188 100.504882812 c 0
 219.185546875 93.6015625 209.06640625 87.91796875 197.602539062 85.466796875 c 0
 183.075195312 87.3408203125 173.27734375 98.38671875 165.68359375 110.169921875 c 0
 151.19921875 135.126953125 140.646484375 161.744140625 134.248046875 189.959960938 c 0
 126.431640625 223.137695312 121.071289062 256.8359375 118.348632812 290.829101562 c 0
 116.78515625 318.821289062 116.239257812 346.868164062 118.014648438 374.870117188 c 0
 119.580078125 392.368164062 121.176757812 409.875976562 123.235351562 427.3203125 c 0
 119.75 490.504882812 20.4658203125 485.026367188 23.951171875 421.841796875 c 0
 22.6279296875 402.604492188 19.9326171875 383.541015625 19.1435546875 364.270507812 c 0
 17.8310546875 332.799804688 18.7568359375 301.3515625 21.126953125 269.9609375 c 0
 24.8388671875 231.32421875 31.5068359375 193.188476562 40.9462890625 155.568359375 c 0
 49.533203125 119.600585938 64.41015625 86.1572265625 83.271484375 54.529296875 c 0
 103.166992188 23.67578125 126.8125 5.7939453125 160.811523438 -6.912109375 c 0
 193.830078125 -16.23828125 225.153320312 -8.7548828125 255.572265625 4.8095703125 c 0
 291.75390625 23.9140625 319.310546875 54.3291015625 341.681640625 88.2177734375 c 0
 358.241210938 115.190429688 368.014648438 145.059570312 374.286132812 175.862304688 c 0
 380.6328125 208.818359375 381.435546875 242.50390625 380.6640625 275.958007812 c 0
 380.3828125 307.858398438 375.750976562 339.3359375 369.84765625 370.598632812 c 0
 365.073242188 394.26171875 357.774414062 417.229492188 350.145507812 440.084960938 c 0
 344.477539062 453.510742188 340.5078125 467.526367188 335.67578125 481.241210938 c 0
 326.65234375 501.034179688 310.038085938 509.1484375 293.186523438 508.935546875 c 0
EndSplineSet
EndChar

StartChar: exclamdown
Encoding: 35 161 35
Width: 155
VWidth: 1081
Flags: HW
LayerCount: 2
Fore
SplineSet
89.0341796875 657.63671875 m 0
 81.1708984375 657.65234375 73.998046875 656.2109375 67.6240234375 653.435546875 c 0
 57.4248046875 651.420898438 48.103515625 644.911132812 42.6982421875 632.564453125 c 0
 32.640625 618.998046875 29.4755859375 603.721679688 30.5224609375 587.171875 c 0
 35.4755859375 564.6171875 48.1025390625 551.913085938 70.46875 546.484375 c 0
 83.3271484375 544.905273438 102.897460938 547.806640625 112.090820312 558.0625 c 0
 118.517578125 565.231445312 123.984375 573.20703125 129.9296875 580.779296875 c 0
 136.928710938 595.366210938 137.390625 610.102539062 133.594726562 625.5390625 c 0
 127.271484375 643.73046875 112.456054688 653.81640625 94.2197265625 657.422851562 c 0
 92.4609375 657.561523438 90.73046875 657.633789062 89.0341796875 657.63671875 c 0
113.221679688 605.262695312 m 1
 113.053710938 603.833984375 112.796875 602.46875 112.465820312 601.1640625 c 1
 112.629882812 602.151367188 112.752929688 603.168945312 112.846679688 604.208007812 c 0
 112.981445312 604.560546875 113.098632812 604.911132812 113.221679688 605.262695312 c 1
82.43359375 474.610351562 m 2
 62.1748046875 474.674804688 41.4345703125 461.517578125 40.4130859375 438.352539062 c 0
 35.0712890625 427.270507812 34.287109375 414.221679688 40.9404296875 402.818359375 c 1
 40.9404296875 390.1328125 l 2
 39.1298828125 377.55859375 38.095703125 364.888671875 37.1904296875 352.22265625 c 0
 37.0107421875 339.810546875 34.404296875 327.705078125 32.8896484375 315.416992188 c 0
 31.060546875 302.990234375 28.4296875 290.702148438 26.7841796875 278.20703125 c 0
 24.45703125 265.588867188 25.7109375 252.446289062 23.083984375 239.921875 c 0
 20.8095703125 227.196289062 19.580078125 214.323242188 18.572265625 201.446289062 c 0
 18.03515625 189.30078125 17.3759765625 177.315429688 15.5166015625 165.326171875 c 0
 13.60546875 152.31640625 12.5869140625 139.205078125 11.775390625 126.088867188 c 0
 11.0283203125 113.125 10.69921875 100.140625 10.4306640625 87.1591796875 c 0
 10.189453125 74.5205078125 10.0849609375 61.8818359375 10 49.240234375 c 0
 11.060546875 35.7060546875 12.9638671875 22.38671875 16.0439453125 9.1826171875 c 0
 18.8212890625 -8.1787109375 28.693359375 -21.4501953125 41.9658203125 -32.29296875 c 0
 62.3701171875 -44.4443359375 80.025390625 -43.0361328125 100.377929688 -32.0380859375 c 0
 116.315429688 -19.9912109375 126.208984375 -2.693359375 133.448242188 15.44921875 c 0
 138.185546875 28.302734375 140.353515625 41.8466796875 142.052734375 55.3779296875 c 0
 143.526367188 68.2080078125 144.146484375 81.115234375 144.651367188 94.0146484375 c 0
 145.102539062 106.5859375 145.29296875 119.1640625 145.451171875 131.743164062 c 0
 145.594726562 144.235351562 145.65625 156.725585938 145.706054688 169.219726562 c 0
 145.752929688 181.688476562 145.772460938 194.157226562 145.788085938 206.625976562 c 0
 146.239257812 220.22265625 145.700195312 233.6640625 144.159179688 247.166992188 c 0
 142.682617188 259.200195312 141.834960938 271.295898438 141.194335938 283.3984375 c 0
 140.60546875 295.411132812 140.34765625 307.436523438 140.133789062 319.459960938 c 0
 139.873046875 331.987304688 137.41796875 344.357421875 136.166992188 356.822265625 c 0
 134.96875 368.119140625 132.071289062 379.140625 130.577148438 390.419921875 c 0
 130.008789062 403.008789062 126.40234375 414.942382812 122.303710938 426.75390625 c 0
 121.87890625 427.912109375 121.409179688 429.033203125 120.915039062 430.134765625 c 2
 120.915039062 442.184570312 l 2
 117.387695312 464.451171875 100.095703125 474.5546875 82.43359375 474.610351562 c 2
52.861328125 28.9990234375 m 2
 52.1279296875 27.5048828125 51.4130859375 25.9990234375 50.41796875 24.671875 c 0
 50.2587890625 24.4580078125 49.458984375 24.4931640625 49.6181640625 24.70703125 c 0
 50.7841796875 26.2724609375 51.7646484375 27.5458984375 52.861328125 28.9990234375 c 2
EndSplineSet
EndChar

StartChar: exclam
Encoding: 36 33 36
Width: 160
VWidth: 1078
Flags: HW
LayerCount: 2
Fore
SplineSet
77.65625 648.43359375 m 0
 50.673828125 647.698242188 26.849609375 626.016601562 18.58203125 597.99609375 c 0
 5.5810546875 560.283203125 11.4716796875 519.232421875 10.560546875 479.865234375 c 0
 10.6953125 439.215820312 12.8173828125 398.540039062 18.892578125 358.41796875 c 0
 20.443359375 324.956054688 27.212890625 292.184570312 30.08984375 258.870117188 c 0
 34.0341796875 237.802734375 34.341796875 216.129882812 37.75390625 195.03515625 c 0
 43.5927734375 170.130859375 70.2060546875 158.26171875 91.1767578125 166.573242188 c 0
 112.420898438 172.571289062 127.473632812 198.4140625 120.350585938 222.137695312 c 0
 120.939453125 236.317382812 113.556640625 251.661132812 121.141601562 264.278320312 c 0
 125.161132812 282.858398438 123.48046875 302.4765625 127.302734375 321.243164062 c 0
 133.396484375 352.983398438 136.96875 385.19921875 140.392578125 417.392578125 c 0
 144.213867188 444.858398438 144.641601562 472.728515625 148.780273438 500.15625 c 0
 150.518554688 533.885742188 153.649414062 569.692382812 138.998046875 600.80859375 c 0
 128.232421875 627.149414062 104.803710938 648.975585938 77.65625 648.43359375 c 0
91.666015625 91.9716796875 m 0
 83.7978515625 91.9892578125 76.619140625 90.548828125 70.244140625 87.7705078125 c 0
 60.048828125 85.7548828125 50.7294921875 79.2421875 45.3271484375 66.8994140625 c 0
 35.26953125 53.3330078125 32.10546875 38.0595703125 33.154296875 21.509765625 c 0
 38.10546875 -1.04296875 50.7333984375 -13.751953125 73.1005859375 -19.1806640625 c 0
 85.958984375 -20.759765625 105.52734375 -17.8583984375 114.72265625 -7.6025390625 c 0
 121.1484375 -0.43359375 126.612304688 7.5419921875 132.55859375 15.1142578125 c 0
 139.557617188 29.701171875 140.021484375 44.4384765625 136.2265625 59.8740234375 c 0
 129.90234375 78.0654296875 115.083984375 88.15234375 96.8486328125 91.7578125 c 0
 95.0888671875 91.8984375 93.3623046875 91.96875 91.666015625 91.9716796875 c 0
115.853515625 39.603515625 m 1
 115.68359375 38.173828125 115.4296875 36.8037109375 115.09765625 35.49609375 c 1
 115.26171875 36.4833984375 115.381835938 37.5009765625 115.475585938 38.537109375 c 0
 115.611328125 38.89453125 115.727539062 39.2490234375 115.853515625 39.603515625 c 1
EndSplineSet
EndChar

StartChar: zero
Encoding: 37 48 37
Width: 390
VWidth: 1079
Flags: HW
LayerCount: 2
Fore
SplineSet
223.970703125 671.404296875 m 0
 213.162109375 671.54296875 202.373046875 670.610351562 191.653320312 669.098632812 c 0
 177.607421875 667.182617188 163.981445312 663.208007812 150.60546875 658.619140625 c 0
 137.861328125 654.158203125 126.138671875 647.6328125 114.461914062 640.973632812 c 0
 104.78125 633.946289062 94.052734375 627.921875 85.87109375 619.0625 c 0
 70.2578125 604.333007812 56.9462890625 587.137695312 48.9013671875 567.315429688 c 0
 42.794921875 557.616210938 39.443359375 546.254882812 35.6416015625 535.469726562 c 0
 31.953125 523.086914062 29.6962890625 510.471679688 26.0966796875 498.11328125 c 0
 22.609375 484.942382812 20.99609375 471.397460938 19.6923828125 457.868164062 c 0
 18.162109375 445.420898438 15.6748046875 433.100585938 14.1875 420.59375 c 0
 12.625 406.610351562 11.8994140625 392.5546875 11.3193359375 378.502929688 c 0
 10.8037109375 364.932617188 10.5830078125 351.3515625 10.3994140625 337.774414062 c 0
 10.2353515625 324.412109375 10.1650390625 311.047851562 10.1064453125 297.684570312 c 0
 10.140625 283.58203125 9.529296875 269.495117188 10.900390625 255.450195312 c 0
 12.5615234375 242.172851562 13.7392578125 228.852539062 14.57421875 215.500976562 c 0
 14.5966796875 201.436523438 16.671875 187.61328125 18.5205078125 173.711914062 c 0
 19.8203125 160.071289062 21.236328125 146.545898438 23.515625 133.033203125 c 0
 24.880859375 119.609375 27.9208984375 106.552734375 30.634765625 93.3681640625 c 0
 33.0185546875 80.80078125 37.1728515625 68.615234375 41.0439453125 56.439453125 c 0
 41.7646484375 54.4736328125 42.5263671875 52.529296875 43.3203125 50.6064453125 c 0
 41.9833984375 32.140625 52.0537109375 18.8310546875 65.744140625 12.01953125 c 1
 73.830078125 1.0546875 83.837890625 -8.3291015625 94.02734375 -17.3095703125 c 0
 107.263671875 -28.9287109375 123.034179688 -36.1640625 139.704101562 -41.265625 c 0
 154.041992188 -44.8720703125 168.749023438 -45.3408203125 183.391601562 -43.9375 c 0
 196.000976562 -42.89453125 208.38671875 -40.2158203125 220.522460938 -36.7158203125 c 0
 233.553710938 -33.0087890625 246.271484375 -27.8125 257.788085938 -20.6376953125 c 0
 267.327148438 -14.7490234375 277.067382812 -8.625 285.265625 -0.912109375 c 0
 302.655273438 11.755859375 314.779296875 29.140625 327.86328125 46.00390625 c 0
 335.939453125 55.7958984375 341.544921875 67.8193359375 346.2734375 79.560546875 c 0
 351.821289062 92.1494140625 354.6640625 105.708007812 359.442382812 118.54296875 c 0
 364.625 131.837890625 365.322265625 146.293945312 369.233398438 159.875 c 0
 372.869140625 173.897460938 374.811523438 188.266601562 376.373046875 202.642578125 c 0
 377.802734375 216.770507812 378.44140625 230.961914062 378.954101562 245.149414062 c 0
 379.407226562 258.725585938 379.6015625 272.307617188 379.759765625 285.889648438 c 0
 379.905273438 299.251953125 379.96484375 312.615234375 380.014648438 325.979492188 c 0
 380.854492188 340.586914062 379.159179688 355.006835938 377.571289062 369.491210938 c 0
 376.188476562 382.116210938 375.479492188 394.798828125 374.919921875 407.483398438 c 0
 374.397460938 420.33984375 374.166015625 433.204101562 373.9765625 446.0703125 c 0
 374.236328125 460.174804688 373.66796875 474.090820312 371.78515625 488.064453125 c 0
 369.901367188 500.416015625 369.67578125 512.911132812 367.4375 525.1953125 c 0
 365.297851562 537.416015625 363.3359375 549.52734375 360.330078125 561.567382812 c 0
 357.58203125 573.533203125 353.06640625 585.020507812 348.473632812 596.377929688 c 0
 345.025390625 604.428710938 340.581054688 611.544921875 335.24609375 617.94921875 c 0
 332.624023438 625.129882812 327.630859375 631.862304688 319.709960938 637.373046875 c 0
 308.734375 646.749023438 295.9375 653.431640625 282.795898438 659.184570312 c 0
 267.44140625 665.493164062 251.184570312 668.815429688 234.784179688 670.888671875 c 0
 231.1796875 671.190429688 227.57421875 671.357421875 223.970703125 671.404296875 c 0
222.2421875 586.329101562 m 0
 223.404296875 586.314453125 224.567382812 586.23046875 225.728515625 586.106445312 c 0
 228.505859375 580.409179688 232.642578125 575.361328125 238.25 571.534179688 c 0
 237.510742188 569.846679688 236.76171875 568.163085938 235.997070312 566.486328125 c 0
 230.310546875 552.231445312 223.307617188 538.598632812 217.915039062 524.219726562 c 0
 211.005859375 510.092773438 206.708007812 494.920898438 200.887695312 480.37109375 c 0
 195.163085938 464.533203125 189.446289062 448.677734375 184.548828125 432.567382812 c 0
 178.932617188 415.51171875 173.646484375 398.399414062 167.802734375 381.409179688 c 0
 161.506835938 363.567382812 154.926757812 345.83984375 148.475585938 328.056640625 c 0
 141.810546875 311.805664062 135.200195312 295.526367188 128.811523438 279.166015625 c 0
 121.969726562 264.693359375 117.145507812 249.395507812 110.404296875 234.880859375 c 0
 107.328125 226.314453125 103.856445312 217.916015625 100.35546875 209.52734375 c 1
 99.681640625 217.649414062 99.2333984375 225.78515625 98.755859375 233.943359375 c 0
 97.7041015625 247.153320312 96.2099609375 260.3203125 95.1611328125 273.529296875 c 0
 95.1630859375 285.954101562 95.2216796875 298.376953125 95.28125 310.80078125 c 0
 95.36328125 323.909179688 95.4599609375 337.018554688 95.6884765625 350.125976562 c 0
 95.93359375 362.934570312 96.2275390625 375.74609375 96.9130859375 388.540039062 c 0
 97.6181640625 400.639648438 98.4892578125 412.739257812 100.264648438 424.736328125 c 0
 102.206054688 437.544921875 104.661132812 450.275390625 105.705078125 463.206054688 c 0
 107.125976562 473.141601562 109.065429688 482.975585938 112.09765625 492.561523438 c 0
 114.830078125 502.892578125 116.359375 513.59375 120.962890625 523.35546875 c 0
 124.56640625 531.98046875 128.368164062 540.250976562 132.977539062 548.3984375 c 0
 134.760742188 550.375976562 136.818359375 552.169921875 138.432617188 554.290039062 c 0
 138.810546875 554.78515625 139.481445312 555.708984375 140.090820312 556.545898438 c 0
 141.94140625 557.950195312 143.825195312 559.30859375 145.756835938 560.6796875 c 0
 151.146484375 566.87890625 159.88671875 570.48828125 167.111328125 574.036132812 c 0
 174.702148438 578.260742188 182.8671875 580.098632812 191.01171875 582.924804688 c 0
 200.330078125 584.317382812 209.385742188 586.428710938 218.881835938 586.19140625 c 0
 220 586.30078125 221.120117188 586.34375 222.2421875 586.329101562 c 0
138.634765625 555.409179688 m 1
 127.916992188 542.680664062 124.241210938 535.879882812 129.037109375 544.47265625 c 0
 133.932617188 549.190429688 131.798828125 549.662109375 134.744140625 552.221679688 c 0
 136.02734375 553.3359375 137.325195312 554.383789062 138.634765625 555.409179688 c 1
287.629882812 472.364257812 m 1
 287.85546875 470.483398438 288.065429688 468.599609375 288.291992188 466.71875 c 0
 289.279296875 454.96875 288.548828125 443.134765625 289.065429688 431.357421875 c 0
 289.348632812 417.69921875 289.6953125 404.036132812 290.451171875 390.39453125 c 0
 291.271484375 376.516601562 292.3515625 362.659179688 293.90234375 348.842773438 c 0
 295.07421875 336.846679688 295.123046875 324.8671875 294.848632812 312.81640625 c 0
 294.778320312 299.674804688 294.693359375 286.534179688 294.491210938 273.39453125 c 0
 294.27734375 260.4921875 294.018554688 247.58984375 293.41015625 234.69921875 c 0
 292.783203125 222.439453125 292.021484375 210.17578125 290.319335938 198.010742188 c 0
 288.525390625 185.98828125 286.018554688 174.116210938 283.088867188 162.318359375 c 0
 280.811523438 150.467773438 277.935546875 138.793945312 273.725585938 127.458007812 c 0
 270.616210938 117.002929688 266.72265625 106.715820312 261.869140625 96.951171875 c 0
 257.278320312 89.583984375 252.326171875 82.6904296875 247.033203125 75.8310546875 c 0
 241.15625 71.1845703125 235.858398438 65.85546875 230.237304688 61.0185546875 c 0
 223.729492188 57.0869140625 218.140625 52.0654296875 211.112304688 48.9482421875 c 0
 202.885742188 46.46484375 194.776367188 43.2509765625 186.2890625 42.1923828125 c 0
 179.766601562 41.314453125 173.823242188 39.55859375 167.146484375 40.42578125 c 0
 161.3125 39.8046875 155.202148438 44.4931640625 150.696289062 47.6181640625 c 0
 145.255859375 52.40234375 139.850585938 57.2783203125 135.259765625 62.8701171875 c 0
 135.48828125 63.4130859375 135.709960938 63.95703125 135.948242188 64.501953125 c 0
 140.497070312 76.349609375 144.713867188 88.3203125 149.4921875 100.080078125 c 0
 154.612304688 113.091796875 158.819335938 126.456054688 163.938476562 139.47265625 c 0
 168.979492188 152.524414062 172.98828125 165.954101562 178.504882812 178.818359375 c 0
 184.311523438 192.46875 189.3203125 206.439453125 195.291992188 220.021484375 c 0
 201.385742188 235.381835938 207.637695312 250.672851562 213.96875 265.935546875 c 0
 220.84375 282.78515625 227.44140625 299.755859375 233.911132812 316.762695312 c 0
 240.678710938 334.96875 246.973632812 353.3515625 253.428710938 371.670898438 c 0
 259.329101562 389.000976562 264.168945312 406.666015625 270.291992188 423.924804688 c 0
 275.526367188 438.842773438 280.487304688 453.854492188 286.255859375 468.58203125 c 0
 286.706054688 469.84765625 287.168945312 471.104492188 287.629882812 472.364257812 c 1
261.397460938 93.640625 m 0
 261.81640625 94.12109375 252.587890625 82.517578125 248.682617188 77.1171875 c 0
 248.12890625 76.69921875 247.586914062 76.267578125 247.041992188 75.8369140625 c 1
 257.41015625 88.6982421875 261.147460938 93.353515625 261.397460938 93.640625 c 0
EndSplineSet
EndChar

StartChar: nine
Encoding: 38 57 38
Width: 347
VWidth: 1083
Flags: HW
LayerCount: 2
Fore
SplineSet
251.674804688 546.040039062 m 0
 247.409179688 551.458984375 241.611328125 555.586914062 235.72265625 559.084960938 c 0
 229.14453125 561.809570312 221.336914062 566.155273438 214.012695312 565.184570312 c 0
 204.559570312 565.493164062 195.379882812 565.170898438 186.104492188 563.620117188 c 0
 177.611328125 562.594726562 169.505859375 559.633789062 162.067382812 555.456054688 c 0
 153.67578125 550.203125 146.064453125 544.500976562 138.666992188 537.90625 c 0
 129.25390625 529.641601562 120.752929688 520.568359375 112.458007812 511.203125 c 0
 106.297851562 504.470703125 91.06640625 484.541992188 118.326171875 518.198242188 c 0
 119.181640625 519.25390625 116.434570312 516.232421875 115.633789062 515.134765625 c 0
 113.366210938 512.034179688 111.470703125 508.680664062 109.3828125 505.45703125 c 0
 104.3984375 499.90625 103.774414062 491.921875 102.1875 484.928710938 c 0
 101.26171875 476.966796875 102.409179688 469.120117188 105.076171875 461.615234375 c 0
 108.498046875 453.420898438 113.662109375 446.249023438 119.844726562 439.956054688 c 0
 126.1015625 434.625976562 133.215820312 430.463867188 140.841796875 427.4375 c 0
 148.7578125 425.380859375 157.450195312 421.704101562 165.73828125 422.842773438 c 0
 173.405273438 423.221679688 180.999023438 425.5703125 187.821289062 429.103515625 c 0
 193.188476562 433.313476562 198.778320312 437.439453125 202.573242188 443.4765625 c 0
 207.60546875 450.517578125 219.383789062 465.124023438 194.506835938 435.34375 c 0
 193.51171875 434.151367188 196.637695312 437.599609375 197.674804688 438.754882812 c 0
 201.32421875 442.826171875 200.263671875 441.715820312 203.78515625 447.168945312 c 0
 210.66796875 457.346679688 216.01171875 468.393554688 221.431640625 479.380859375 c 0
 226.286132812 490.240234375 231.116210938 501.163085938 234.931640625 512.442382812 c 0
 238.315429688 523.481445312 241.19140625 534.671875 244.426757812 545.749023438 c 0
 246.251953125 548.772460938 243.423828125 562.956054688 247.236328125 554.5 c 0
 272.295898438 520.416992188 252.201171875 539.376953125 333.0078125 567.426757812 c 0
 333.321289062 567.537109375 332.853515625 568.333984375 332.524414062 568.298828125 c 0
 332.147460938 568.2578125 332.064453125 567.67578125 331.954101562 567.314453125 c 0
 331.44921875 565.662109375 331.267578125 562.923828125 331.1015625 561.34375 c 0
 330.403320312 551.051757812 330.338867188 540.727539062 330.216796875 530.415039062 c 0
 330.049804688 515.15234375 330.315429688 499.891601562 329.301757812 484.654296875 c 0
 327.590820312 467.18359375 326.689453125 449.646484375 324.8046875 432.192382812 c 0
 322.493164062 414.106445312 320.923828125 395.9453125 319.754882812 377.752929688 c 0
 318.650390625 359.263671875 318.12890625 340.748046875 317.703125 322.234375 c 0
 317.33203125 304.82421875 317.155273438 287.41015625 317.006835938 269.998046875 c 0
 316.879882812 253.844726562 316.82421875 237.690429688 316.775390625 221.536132812 c 0
 316.734375 207.059570312 316.715820312 192.581054688 316.69921875 178.103515625 c 0
 316.686523438 164.436523438 316.680664062 150.771484375 316.674804688 137.104492188 c 0
 316.669921875 123.713867188 316.668945312 110.322265625 316.666992188 96.9326171875 c 0
 316.989257812 85.3369140625 316.103515625 73.6884765625 316.947265625 62.1162109375 c 0
 318.450195312 49.4990234375 319.775390625 36.87109375 320.73828125 24.2001953125 c 0
 321.236328125 17.3779296875 321.541015625 10.54296875 321.861328125 3.7109375 c 0
 328.986328125 -54.9208984375 236.85546875 -66.11328125 229.731445312 -7.4833984375 c 1
 232.241210938 -4.4404296875 229.165039062 1.1708984375 229.986328125 4.7685546875 c 0
 229.356445312 16.416015625 228.5390625 28.05859375 226.907226562 39.6142578125 c 0
 225.055664062 53.8662109375 224.537109375 68.046875 225.001953125 82.421875 c 0
 225.001953125 95.8173828125 225.004882812 109.213867188 225.0078125 122.609375 c 0
 225.010742188 136.291015625 225.014648438 149.97265625 225.025390625 163.654296875 c 0
 225.037109375 178.173828125 225.049804688 192.6953125 225.081054688 207.21484375 c 0
 225.1171875 223.493164062 225.163085938 239.772460938 225.25390625 256.049804688 c 0
 225.372070312 273.791992188 225.521484375 291.534179688 225.8046875 309.2734375 c 0
 226.163085938 328.71875 226.596679688 348.163085938 227.506835938 367.591796875 c 0
 228.52734375 387.28515625 229.771484375 406.975585938 232.168945312 426.557617188 c 0
 234.321289062 443.216796875 235.548828125 459.897460938 236.840820312 476.650390625 c 0
 238.329101562 489.948242188 238.80078125 503.177734375 238.447265625 516.583984375 c 0
 238.5234375 528.088867188 238.607421875 539.59375 238.86328125 551.095703125 c 0
 238.944335938 554.125 239.744140625 577.1796875 240.770507812 577.698242188 c 0
 320.524414062 618.000976562 303.236328125 631.334960938 330.202148438 596.095703125 c 0
 336.215820312 581.770507812 338.31640625 566.661132812 337.080078125 551.131835938 c 0
 335.99609375 535.853515625 332.756835938 520.815429688 327.541992188 506.38671875 c 0
 323.84375 491.022460938 318.740234375 476.262695312 312.547851562 461.740234375 c 0
 306.553710938 447.522460938 299.978515625 433.583984375 292.545898438 420.060546875 c 0
 279.634765625 398.30078125 265.696289062 376.94140625 245.389648438 361.134765625 c 0
 231.640625 350.883789062 217.092773438 341.852539062 200.419921875 337.155273438 c 0
 183.32421875 332.69921875 165.911132812 329.732421875 148.168945312 331.712890625 c 0
 131.125976562 334.041992188 114.272460938 337.727539062 98.509765625 344.848632812 c 0
 82.5986328125 352.440429688 67.470703125 361.642578125 54.6611328125 373.891601562 c 0
 41.5625 387.309570312 30.3681640625 402.268554688 22.44140625 419.368164062 c 0
 15.0263671875 436.838867188 9.9189453125 455.057617188 10.0009765625 474.211914062 c 0
 10.0771484375 492.87109375 13.232421875 511.3984375 19.607421875 528.986328125 c 0
 31.04296875 552.059570312 45.984375 572.981445312 64.740234375 590.805664062 c 0
 76.25390625 602.29296875 88.2626953125 613.310546875 101.419921875 622.912109375 c 0
 114.942382812 632.374023438 129.286132812 640.834960938 144.78515625 646.641601562 c 0
 159.221679688 651.452148438 173.903320312 655.311523438 189.16015625 656.377929688 c 0
 204.916992188 657.658203125 220.828125 657.321289062 236.5078125 655.225585938 c 0
 254.500976562 651.513671875 271.995117188 645.920898438 287.64453125 636.009765625 c 0
 302.099609375 626.420898438 315.875 615.56640625 326.158203125 601.408203125 c 0
 361.393554688 554.0078125 286.91015625 498.639648438 251.674804688 546.040039062 c 0
EndSplineSet
EndChar

StartChar: eight
Encoding: 39 56 39
Width: 321
VWidth: 1080
Flags: HW
LayerCount: 2
Fore
SplineSet
157.543945312 619.94921875 m 0
 100.3828125 623.875976562 49.1904296875 575.669921875 41.9296875 520.244140625 c 0
 33.4140625 481.469726562 37.5703125 438.643554688 62.025390625 406.111328125 c 0
 75.8828125 390.399414062 90.71484375 370.393554688 66.84765625 355.375 c 0
 45.5068359375 341.1015625 32.015625 319.452148438 22.732421875 296.032226562 c 0
 0.2314453125 237.302734375 9.708984375 170.379882812 34.3427734375 113.913085938 c 0
 57.326171875 62.9140625 99.1826171875 11.4150390625 158.211914062 4.591796875 c 0
 215.455078125 -3.4326171875 279.548828125 28.3056640625 297.384765625 85.5078125 c 0
 329.762695312 173.88671875 301.959960938 276.587890625 240.225585938 345.37890625 c 1
 216.793945312 358.814453125 221.859375 381.72265625 243.8359375 393.759765625 c 0
 254.7890625 403.551757812 252.056640625 404.076171875 252.515625 402.877929688 c 1
 298.873046875 449.450195312 301.37109375 534.299804688 251.384765625 579.239257812 c 1
 229.848632812 608.3984375 192.068359375 618.44921875 157.543945312 619.94921875 c 0
140.967773438 527.227539062 m 1
 140.201171875 518.495117188 135.9609375 526.358398438 140.967773438 527.227539062 c 1
135.231445312 523.638671875 m 1
 133.7734375 510.786132812 122.473632812 514.571289062 135.231445312 523.638671875 c 1
137.270507812 522.361328125 m 0
 160.811523438 517.827148438 204.100585938 520.979492188 195.846679688 484.099609375 c 0
 192.31640625 463.506835938 175.084960938 439.57421875 152.119140625 441.479492188 c 1
 131.116210938 453.739257812 127.310546875 484.896484375 131.903320312 507.141601562 c 0
 133.149414062 512.385742188 134.956054688 517.495117188 137.270507812 522.361328125 c 0
190.13671875 465.979492188 m 1
 188.016601562 461.017578125 182.34765625 460.670898438 190.13671875 465.979492188 c 1
146.578125 307.97265625 m 1
 193.075195312 268.088867188 226.336914062 207.70703125 218.411132812 145.021484375 c 0
 215.709960938 125.623046875 214.770507812 99.0537109375 193.73828125 97.748046875 c 0
 159.879882812 87.0478515625 133.372070312 118.181640625 121.3828125 146.014648438 c 0
 101.83984375 184.727539062 94.20703125 232.717773438 110.362304688 273.725585938 c 0
 111.455078125 277.94921875 126.952148438 291.86328125 117.249023438 280.622070312 c 1
 126.544921875 290.234375 136.202148438 299.524414062 146.578125 307.97265625 c 1
113.815429688 276.440429688 m 1
 110.453125 272.34765625 l 1
 113.815429688 276.440429688 l 1
207.331054688 105.118164062 m 1
 211.086914062 105.6953125 207.946289062 111.463867188 207.331054688 105.118164062 c 1
EndSplineSet
EndChar

StartChar: seven
Encoding: 40 55 40
Width: 369
VWidth: 1080
Flags: HW
LayerCount: 2
Fore
SplineSet
248.926757812 660.827148438 m 0
 199.259765625 661.08984375 149.791992188 656.810546875 100.444335938 652.143554688 c 0
 71.4462890625 647.759765625 30.060546875 657.049804688 15.08203125 624.190429688 c 0
 0.2900390625 596.1328125 19.2119140625 554.37890625 53.443359375 555.8125 c 0
 99.3046875 559.958007812 145.171875 564.263671875 191.12890625 567.293945312 c 0
 214.32421875 563.513671875 255.9375 578.268554688 268.426757812 561.506835938 c 1
 257.6484375 497.368164062 235.916015625 435.493164062 225.064453125 371.297851562 c 1
 197.7265625 380.986328125 159.836914062 376.716796875 151.749023438 343.700195312 c 0
 141.283203125 316.942382812 160.552734375 283.401367188 190.435546875 283.369140625 c 0
 229.258789062 286.502929688 201.127929688 238.986328125 202.70703125 215.264648438 c 0
 191.806640625 151.81640625 178.677734375 88.787109375 168.646484375 25.24609375 c 0
 159.846679688 -1.6865234375 171.787109375 -36.376953125 203.594726562 -39.3154296875 c 0
 232.774414062 -45.669921875 262.671875 -20.7890625 258.978515625 9.5927734375 c 1
 271.754882812 98.56640625 293.349609375 186.217773438 303.251953125 275.684570312 c 1
 336.177734375 290.67578125 333.31640625 335.72265625 315.418945312 358.546875 c 1
 326.615234375 424.325195312 349.784179688 487.591796875 358.865234375 553.723632812 c 0
 364.021484375 590.885742188 350.396484375 635.4609375 312.870117188 650.405273438 c 0
 293.2109375 660.534179688 270.48828125 660.495117188 248.926757812 660.827148438 c 0
EndSplineSet
EndChar

StartChar: six
Encoding: 41 54 41
Width: 365
VWidth: 1083
Flags: HW
LayerCount: 2
Fore
SplineSet
254.508789062 636.356445312 m 0
 223.407226562 632.71875 199.990234375 606.518554688 176.046875 588.215820312 c 0
 137.189453125 546.596679688 101.647460938 500.604492188 77.287109375 448.8359375 c 0
 46.9794921875 377.349609375 26.4326171875 301.734375 13.7734375 225.192382812 c 0
 3.109375 153.26953125 13.59765625 72.0908203125 63.9482421875 16.37890625 c 0
 100.537109375 -22.3857421875 159.245117188 -38.5869140625 209.98046875 -20.8193359375 c 0
 267.538085938 0.4267578125 308.986328125 51.24609375 336.607421875 104.3046875 c 0
 366.083007812 163.291015625 362.751953125 242.624023438 313.830078125 290.530273438 c 0
 283.80859375 322.859375 237.696289062 339.517578125 194.161132812 329.932617188 c 0
 168.505859375 325.998046875 143.814453125 316.481445312 123.009765625 300.795898438 c 1
 140.412109375 365.7265625 160.940429688 432.03515625 204.8125 484.53515625 c 0
 210.475585938 491.7890625 232.44921875 519.345703125 220.84375 505.575195312 c 1
 236.993164062 527.997070312 262.138671875 541.162109375 284.95703125 555.365234375 c 0
 313.586914062 580.895507812 292.891601562 636.046875 254.508789062 636.356445312 c 0
218.5 241.352539062 m 0
 248.375 237.209960938 267.30859375 205.142578125 263.353515625 176.440429688 c 0
 261.583984375 146.41015625 243.7421875 120.650390625 225.516601562 97.9794921875 c 1
 246.775390625 119.865234375 204.359375 71.4365234375 191.268554688 68.8564453125 c 0
 162.54296875 53.287109375 127.202148438 73.4912109375 116.96875 102.368164062 c 1
 100.28515625 123.625976562 143.655273438 132.133789062 134.989257812 158.626953125 c 1
 139.758789062 189.096679688 157.009765625 221.733398438 186.546875 234.10546875 c 0
 196.900390625 237.737304688 207.678710938 240.08203125 218.5 241.352539062 c 0
225.516601562 97.9794921875 m 1
 219.034179688 91.197265625 221.87890625 93.7880859375 225.516601562 97.9794921875 c 1
159.557617188 213.892578125 m 1
 151.50390625 204.09375 141.0625 191.966796875 155.010742188 208.82421875 c 2
 157.249023438 211.385742188 l 1
 159.557617188 213.892578125 l 1
EndSplineSet
EndChar

StartChar: five
Encoding: 42 53 42
Width: 404
VWidth: 1075
Flags: HW
LayerCount: 2
Fore
SplineSet
145.434570312 629.264648438 m 2
 106.416992188 627.837890625 59.685546875 626.853515625 35.1494140625 590.974609375 c 0
 10.115234375 554.983398438 13.828125 508.620117188 10.611328125 466.930664062 c 0
 9.873046875 432.8203125 8.2294921875 397.590820312 17.287109375 364.4296875 c 0
 26.9091796875 336.521484375 63.83984375 323.8359375 89.396484375 337.849609375 c 0
 116.870117188 355.286132812 150.776367188 362.0625 182.501953125 353.517578125 c 0
 218.66015625 344.821289062 253.419921875 326.206054688 279.3984375 299.463867188 c 0
 296.793945312 280.081054688 310.830078125 253.245117188 301.0546875 226.9140625 c 0
 295.315429688 207.091796875 278.865234375 183.62109375 267.385742188 172.357421875 c 1
 285.462890625 194.860351562 255.189453125 159.694335938 249.0078125 155.8046875 c 0
 217.126953125 130.951171875 180.6875 104.77734375 138.59765625 104.2421875 c 1
 112.845703125 115.823242188 77.9677734375 109.81640625 68.419921875 79.8408203125 c 0
 54.974609375 51.6630859375 76.5029296875 18.638671875 106.866210938 16.0751953125 c 0
 161.252929688 2.337890625 216.509765625 24.7216796875 262.092773438 53.478515625 c 0
 318.952148438 88.8203125 367.375976562 141.969726562 388.54296875 206.232421875 c 0
 400.693359375 250.205078125 394.265625 299.288085938 366.965820312 336.446289062 c 0
 336.067382812 385.517578125 283.828125 416.455078125 230.698242188 436.3515625 c 0
 189.2421875 449.883789062 143.94140625 454.5703125 101.55078125 442.403320312 c 1
 95.970703125 574.73828125 108.5859375 535.237304688 237.2421875 537.1875 c 1
 270.880859375 530.674804688 295.8046875 569.147460938 285.353515625 599.094726562 c 0
 279.693359375 622.453125 254.645507812 631.846679688 232.875 629.264648438 c 2
 145.434570312 629.264648438 l 2
EndSplineSet
EndChar

StartChar: three
Encoding: 43 51 43
Width: 439
VWidth: 1081
Flags: HW
LayerCount: 2
Fore
SplineSet
295.106445312 612.185546875 m 0
 260.069335938 610.2578125 225.168945312 606.302734375 190.000976562 606.625976562 c 0
 162.681640625 604.840820312 134.599609375 605.749023438 108.02734375 599.154296875 c 0
 70.859375 583.815429688 74.462890625 519.525390625 114.944335938 511.188476562 c 0
 144.103515625 509.741210938 173.631835938 515.404296875 203.069335938 514.947265625 c 0
 215.291992188 513.561523438 243.288085938 519.3125 244.833007812 513.754882812 c 0
 211.258789062 475.805664062 173.224609375 441.630859375 142.522460938 401.27734375 c 0
 123.807617188 375.323242188 139.369140625 333.815429688 171.4609375 328.061523438 c 0
 196.1796875 321.286132812 219.637695312 339.915039062 244.727539062 334.033203125 c 0
 273.153320312 328.545898438 292.682617188 303.83984375 311.336914062 283.6953125 c 0
 345.640625 244.375 344.079101562 186.900390625 325.09765625 141.0078125 c 0
 318.452148438 116.845703125 295.706054688 100.404296875 270.86328125 99.904296875 c 0
 223.244140625 97.064453125 174.4296875 100.68359375 128.48046875 113.881835938 c 0
 104.212890625 119.190429688 91.5302734375 142.548828125 69.810546875 151.407226562 c 0
 31.3720703125 163.017578125 -8.125 111.748046875 18.9267578125 79.2373046875 c 0
 57.267578125 31.5185546875 120.485351562 15.8369140625 178.732421875 10.314453125 c 0
 236.99609375 5.2666015625 302.779296875 -1.046875 353.333984375 34.4833984375 c 0
 408.526367188 77.427734375 431.107421875 151.21484375 429.595703125 218.999023438 c 0
 428.685546875 287.442382812 387.94140625 348.743164062 335.40625 389.834960938 c 0
 321.684570312 405.259765625 291.7890625 414.141601562 282.5703125 423.162109375 c 1
 314.424804688 458.602539062 350.482421875 491.587890625 373.583007812 533.74609375 c 0
 388.815429688 563.98046875 366.970703125 602.239257812 334.431640625 607.950195312 c 0
 321.538085938 610.858398438 308.309570312 612.081054688 295.106445312 612.185546875 c 0
313.34375 118.395507812 m 1
 307.138671875 109.28125 295.422851562 99.13671875 308.998046875 113.471679688 c 2
 311.588867188 116.389648438 l 1
 313.34375 118.395507812 l 1
EndSplineSet
EndChar

StartChar: four
Encoding: 44 52 44
Width: 359
VWidth: 1088
Flags: HW
LayerCount: 2
Fore
SplineSet
107.84375 630.29296875 m 2
 86.1083984375 630.107421875 64.7236328125 616.88671875 62.755859375 589.271484375 c 0
 59.1396484375 573.685546875 54.8134765625 558.174804688 50.0908203125 542.850585938 c 0
 44.3916015625 522.526367188 38.6904296875 502.173828125 32.36328125 482.024414062 c 0
 26.7255859375 461.571289062 20.6552734375 441.243164062 15.8955078125 420.556640625 c 0
 10.056640625 397.438476562 7.208984375 385.408203125 13.759765625 361.666992188 c 0
 24.8212890625 337.479492188 45.2919921875 326.217773438 70.7685546875 323.323242188 c 0
 88.0380859375 322.267578125 105.286132812 323.586914062 122.48046875 325.081054688 c 0
 146.086914062 326.9296875 169.609375 329.6328125 193.203125 331.611328125 c 1
 192.995117188 324.845703125 192.7890625 318.079101562 192.625976562 311.314453125 c 0
 192.381835938 272.50390625 190.00390625 233.762695312 188.298828125 195 c 0
 186.634765625 159.32421875 187.76171875 123.580078125 188.401367188 87.8876953125 c 0
 188.69140625 63.568359375 188.825195312 39.3154296875 191.123046875 15.0966796875 c 0
 191.763671875 10.4326171875 191.201171875 7.1455078125 189.39453125 3.099609375 c 0
 192.458984375 -55.8837890625 285.139648438 -51.0673828125 282.075195312 7.916015625 c 0
 282.532226562 17.2236328125 282.62890625 26.5244140625 281.588867188 35.8095703125 c 0
 280.033203125 58.40234375 280.525390625 81.0751953125 279.8515625 103.702148438 c 0
 279.28515625 137.844726562 278.514648438 172.02734375 280.434570312 206.14453125 c 0
 282.224609375 245.405273438 284.172851562 284.663085938 284.565429688 323.970703125 c 0
 284.661132812 327.7109375 284.776367188 331.452148438 284.884765625 335.19140625 c 1
 289.49609375 334.8515625 294.095703125 334.358398438 298.68359375 333.720703125 c 0
 302.690429688 333.83203125 306.6953125 333.943359375 310.701171875 334.0546875 c 0
 369.092773438 341.455078125 357.69921875 432.908203125 299.629882812 426.1875 c 0
 294.830078125 426.749023438 290.01171875 427.283203125 285.4296875 427.69921875 c 0
 284.624023438 446.7421875 283.66796875 465.801757812 281.202148438 484.713867188 c 0
 266.072265625 541.806640625 176.362304688 518.032226562 191.4921875 460.939453125 c 0
 192.674804688 448.599609375 193.317382812 436.221679688 193.803710938 423.837890625 c 1
 171.763671875 422.077148438 149.787109375 419.750976562 127.77734375 417.73828125 c 0
 121.311523438 417.215820312 114.869140625 416.5390625 108.420898438 415.965820312 c 1
 108.491210938 416.25 108.557617188 416.537109375 108.62890625 416.821289062 c 0
 113.69921875 436.0546875 119.1640625 455.19140625 124.844726562 474.251953125 c 0
 130.841796875 494.776367188 136.838867188 515.299804688 142.63671875 535.880859375 c 0
 146.939453125 551.459960938 151.125976562 567.08203125 155.328125 582.673828125 c 0
 157.557617188 613.971679688 132.4765625 630.50390625 107.84375 630.29296875 c 2
300.391601562 426.099609375 m 1
 303.374023438 426.040039062 306.356445312 425.975585938 309.338867188 425.915039062 c 0
 310.783203125 425.516601562 314.974609375 425.46875 313.674804688 424.719726562 c 0
 313.38671875 424.5546875 307.325195312 425.287109375 300.391601562 426.099609375 c 1
EndSplineSet
EndChar

StartChar: one
Encoding: 45 49 45
Width: 364
VWidth: 1083
Flags: HW
LayerCount: 2
Fore
SplineSet
196.674804688 640.383789062 m 1
 192.8515625 640.374023438 188.90625 639.993164062 184.838867188 639.206054688 c 0
 154.82421875 629.991210938 140.741210938 612.260742188 125.591796875 584.423828125 c 0
 118.411132812 573.64453125 111.283203125 562.846679688 103.033203125 552.833007812 c 0
 99.7197265625 548.775390625 85.447265625 530.78125 81.201171875 525.16796875 c 0
 75.369140625 518.192382812 69.509765625 511.250976562 63.0166015625 504.859375 c 0
 53.890625 495.302734375 42.96875 487.245117188 35.2197265625 476.438476562 c 1
 -18.115234375 451.067382812 21.7548828125 367.2578125 75.08984375 392.62890625 c 0
 87.2255859375 401.825195312 97.1181640625 413.51953125 108.256835938 423.827148438 c 0
 120.497070312 435.129882812 131.641601562 447.4453125 142.501953125 460.049804688 c 0
 153.546875 473.34765625 164.727539062 486.607421875 175.40234375 500.23046875 c 1
 174.348632812 479.982421875 173.89453125 459.709960938 173.515625 439.439453125 c 0
 173.049804688 412.040039062 172.885742188 384.635742188 172.739257812 357.232421875 c 0
 172.58984375 327.08203125 172.528320312 296.927734375 172.475585938 266.775390625 c 0
 172.4296875 239.1796875 172.40625 211.584960938 172.387695312 183.98828125 c 0
 172.373046875 162.03515625 172.3671875 140.080078125 172.361328125 118.125976562 c 0
 172.356445312 101.399414062 172.353515625 84.6708984375 172.352539062 67.943359375 c 0
 172.346679688 65.5205078125 172.321289062 63.1025390625 172.30859375 60.6865234375 c 2
 170.08203125 60.6865234375 l 1
 128.161132812 60.6865234375 l 1
 69.564453125 68.0888671875 57.93359375 -23.98828125 116.530273438 -31.390625 c 1
 158.448242188 -31.390625 l 1
 201.555664062 -31.390625 l 2
 215.966796875 -31.365234375 230.37890625 -31.505859375 244.7890625 -31.203125 c 0
 255.368164062 -30.916015625 265.791992188 -28.4033203125 276.356445312 -28.2060546875 c 0
 286.71875 -28.630859375 297.03515625 -29.3984375 307.411132812 -29.087890625 c 0
 366.377929688 -32.4404296875 371.645507812 60.2197265625 312.678710938 63.572265625 c 0
 305.260742188 61.76953125 297.84375 63.1640625 290.254882812 63.5546875 c 0
 281.442382812 64.0380859375 272.697265625 63.9912109375 263.978515625 63.185546875 c 1
 263.90234375 69.5986328125 264.040039062 76.0205078125 264.01953125 82.451171875 c 0
 264.020507812 99.173828125 264.022460938 115.899414062 264.028320312 132.622070312 c 0
 264.03515625 154.565429688 264.043945312 176.508789062 264.060546875 198.452148438 c 0
 264.08203125 226.01953125 264.110351562 253.584960938 264.163085938 281.151367188 c 0
 264.224609375 311.203125 264.295898438 341.255859375 264.473632812 371.306640625 c 0
 264.649414062 398.329101562 264.845703125 425.349609375 265.419921875 452.365234375 c 0
 265.900390625 472.744140625 266.571289062 493.1171875 267.666992188 513.47265625 c 0
 268.333007812 530.869140625 268.018554688 548.259765625 265.094726562 565.474609375 c 0
 262.250976562 582.3515625 258.325195312 599.103515625 248.08203125 613.228515625 c 0
 234.423828125 629.658203125 217.321289062 640.439453125 196.674804688 640.383789062 c 1
223.991210938 568.436523438 m 0
 224.138671875 568.202148438 221.015625 564.26953125 212.436523438 554.458984375 c 1
 213.20703125 555.830078125 213.977539062 557.204101562 214.73046875 558.583984375 c 0
 217.973632812 562.711914062 223.783203125 568.764648438 223.991210938 568.436523438 c 0
EndSplineSet
EndChar

StartChar: two
Encoding: 46 50 46
Width: 371
VWidth: 1082
Flags: HW
LayerCount: 2
Fore
SplineSet
10 478.901367188 m 0
 11.599609375 495.1640625 13.9248046875 511.244140625 17.869140625 527.106445312 c 0
 22.568359375 545.118164062 31.4150390625 561.108398438 41.6552734375 576.459960938 c 0
 59.7509765625 600.96875 81.6806640625 617.624023438 108.994140625 629.736328125 c 0
 127.78125 637.87109375 147.038085938 643.265625 167.309570312 645.819335938 c 0
 188.118164062 648.8046875 208.576171875 645.650390625 228.791992188 640.84765625 c 0
 248.620117188 635.509765625 265.880859375 624.81640625 281.838867188 612.231445312 c 0
 296.973632812 599.788085938 308.69921875 584.448242188 318.2265625 567.461914062 c 0
 327.741210938 549.638671875 331.918945312 530.1171875 333.670898438 510.168945312 c 0
 335.088867188 486.309570312 330.333984375 462.807617188 324.513671875 439.813476562 c 0
 316.826171875 412.502929688 306.82421875 385.9296875 295.331054688 360.013671875 c 0
 282.270507812 332.247070312 269.239257812 304.467773438 255.474609375 277.04296875 c 0
 242.48828125 250.453125 229.439453125 223.889648438 217.236328125 196.9296875 c 0
 207.4609375 174.102539062 197.27734375 151.4609375 187.158203125 128.786132812 c 0
 179.620117188 110.78515625 172.25390625 92.7119140625 164.765625 74.689453125 c 0
 159.782226562 62.158203125 153.540039062 50.0791015625 148.754882812 37.490234375 c 1
 144.624023438 40.9794921875 154.602539062 24.5498046875 146.271484375 47.0498046875 c 0
 140.39453125 62.9169921875 131.318359375 70.7138671875 116.211914062 77.064453125 c 0
 98.6611328125 80.103515625 129.162109375 81.9130859375 131.690429688 82.1865234375 c 0
 149.393554688 83.890625 167.166015625 84.8896484375 184.940429688 84.2900390625 c 0
 206.572265625 83.3466796875 227.998046875 79.9384765625 249.3203125 76.35546875 c 0
 268.379882812 72.681640625 287.083007812 67.5673828125 305.916015625 62.943359375 c 0
 316.310546875 61.21484375 326.173828125 57.939453125 335.868164062 53.900390625 c 0
 389.250976562 28.6337890625 349.546875 -55.251953125 296.162109375 -29.9833984375 c 1
 289.676757812 -27.6630859375 282.759765625 -26.8740234375 276.158203125 -24.9638671875 c 0
 259.341796875 -20.6962890625 242.528320312 -16.3857421875 225.4375 -13.3271484375 c 0
 207.827148438 -10.4541015625 190.076171875 -7.904296875 172.205078125 -7.640625 c 0
 158.153320312 -7.869140625 144.079101562 -8.67578125 130.149414062 -10.6083984375 c 0
 118.81640625 -12.580078125 107.715820312 -16.1015625 96.0537109375 -13.52734375 c 0
 91.4892578125 -12.0029296875 86.5205078125 -11.37109375 82.3603515625 -8.953125 c 0
 61.1923828125 3.3564453125 51.7001953125 24.978515625 56.587890625 48.3857421875 c 0
 61.3798828125 63.2041015625 67.43359375 77.2783203125 73.5146484375 91.6201171875 c 0
 81.7685546875 109.091796875 88.658203125 127.192382812 95.8017578125 145.13671875 c 0
 105.57421875 168.4765625 116.903320312 191.118164062 126.143554688 214.68359375 c 0
 138.736328125 242.322265625 151.333007812 269.94140625 164.869140625 297.143554688 c 0
 177.967773438 324.204101562 191.719726562 350.946289062 204.333984375 378.25390625 c 0
 215.00390625 400.3203125 224.525390625 422.78515625 231.92578125 446.194335938 c 0
 236.725585938 461.0859375 240.694335938 476.206054688 242.7109375 491.73828125 c 0
 242.780273438 501.014648438 242.95703125 510.169921875 239.141601562 518.89453125 c 0
 235.650390625 527.12109375 230.4765625 533.985351562 223.708007812 539.884765625 c 0
 216.809570312 545.466796875 209.482421875 550.484375 200.651367188 552.41015625 c 0
 189.629882812 554.723632812 178.6171875 555.376953125 167.484375 553.010742188 c 0
 155.400390625 550.390625 143.756835938 545.627929688 132.764648438 540.0234375 c 0
 128.166015625 536.923828125 123.393554688 533.834960938 119.129882812 530.282226562 c 0
 112.1953125 524.504882812 101.010742188 506.85546875 127.151367188 540.354492188 c 1
 119.831054688 534.36328125 113.397460938 526.374023438 110.174804688 517.455078125 c 0
 104.575195312 507.22265625 103.788085938 495.44140625 102.66796875 484.013671875 c 0
 105.919921875 425.041015625 13.25390625 419.928710938 10 478.901367188 c 0
EndSplineSet
EndChar

StartChar: udieresis
Encoding: 47 252 47
Width: 333
VWidth: 1078
Flags: HW
LayerCount: 2
Fore
SplineSet
66.890625 560.275390625 m 0
 64.2861328125 560.237304688 61.5732421875 560.08203125 58.7490234375 559.807617188 c 0
 49.875 554.578125 40.4423828125 550.197265625 32.1279296875 544.118164062 c 0
 15.8759765625 532.235351562 16.7294921875 505.53515625 20.484375 488.606445312 c 0
 24.1142578125 480.751953125 28.345703125 474.4296875 33.1728515625 469.669921875 c 0
 33.896484375 467.229492188 34.740234375 464.747070312 35.7109375 462.213867188 c 0
 55.8203125 432.541015625 89.916015625 436.209960938 112.190429688 462.896484375 c 0
 124.034179688 482.30859375 124.409179688 503.229492188 118.2109375 524.46875 c 0
 107.30859375 549.688476562 92.0751953125 560.624023438 66.890625 560.275390625 c 0
257.810546875 560.295898438 m 0
 245.860351562 560.12109375 234.29296875 553.76953125 229.565429688 539.149414062 c 0
 217.760742188 516.421875 217.890625 492.995117188 229.15234375 470.442382812 c 0
 250.31640625 441.747070312 284.76953125 445.376953125 307.79296875 471.450195312 c 0
 321.161132812 487.560546875 323.122070312 508.671875 318.533203125 528.362304688 c 0
 308.892578125 553.288085938 289.39453125 563.739257812 269.015625 558.676757812 c 0
 265.376953125 559.784179688 261.575195312 560.349609375 257.810546875 560.295898438 c 0
87.814453125 370.912109375 m 2
 70.2490234375 370.655273438 53.2451171875 361.3203125 46.2978515625 339.831054688 c 1
 23.841796875 309.673828125 15.9736328125 273.638671875 10.7607421875 237.256835938 c 0
 6.5927734375 199.045898438 19.9453125 165.81640625 41.2587890625 135.05859375 c 0
 62.962890625 105.6640625 94.1513671875 88.2119140625 127.831054688 76.080078125 c 0
 181.291992188 63.1279296875 200.774414062 70.236328125 251.15625 92.87109375 c 0
 282.624023438 113.334960938 300.779296875 143.762695312 312.688476562 178.482421875 c 0
 323.620117188 210.908203125 325.388671875 244.932617188 320.721679688 278.591796875 c 0
 317.463867188 298.790039062 311.400390625 318.48046875 303.741210938 337.40234375 c 0
 283.1640625 395.172851562 192.38671875 362.837890625 212.965820312 305.067382812 c 0
 216.903320312 290.493164062 221.411132812 276.084960938 224.745117188 261.374023438 c 0
 227.693359375 240.140625 223.641601562 219.360351562 216.700195312 199.18359375 c 0
 210.884765625 183.470703125 201.463867188 170.950195312 185.888671875 163.780273438 c 1
 228.474609375 179.483398438 188.807617188 158.837890625 171.826171875 163.297851562 c 0
 153.666015625 167.290039062 134.967773438 174.735351562 122.252929688 188.69140625 c 0
 111.639648438 201.4921875 105.484375 213.043945312 109.327148438 230.216796875 c 0
 114.830078125 258.265625 126.413085938 284.01171875 136.34765625 310.71875 c 1
 147.92578125 346.534179688 117.09375 371.336914062 87.8173828125 370.912109375 c 2
 87.814453125 370.912109375 l 2
EndSplineSet
EndChar

StartChar: uacute
Encoding: 48 250 48
Width: 345
VWidth: 1073
Flags: HW
LayerCount: 2
Fore
SplineSet
285.973632812 634.767578125 m 1
 272.470703125 634.872070312 259.005859375 628.805664062 249.680664062 613.998046875 c 0
 236.760742188 603.694335938 224.9375 592.157226562 214.225585938 579.553710938 c 0
 190.727539062 554.8359375 164.9140625 532.209960938 143.552734375 505.594726562 c 1
 112.310546875 454.104492188 193.217773438 405.01171875 224.45703125 456.500976562 c 1
 253.991210938 474.802734375 277.393554688 501.767578125 300.247070312 527.602539062 c 0
 310.389648438 539.2265625 320.30078125 551.248046875 328.052734375 564.635742188 c 0
 350.140625 599.70703125 317.951171875 634.524414062 285.970703125 634.767578125 c 1
 285.973632812 634.767578125 l 1
86.134765625 337.177734375 m 0
 68.5703125 336.922851562 51.5634765625 327.586914062 44.6171875 306.09765625 c 0
 29.6904296875 275.959960938 18.923828125 244.491210938 13.6328125 211.30078125 c 0
 7.3837890625 181.038085938 9.765625 151.177734375 16.4482421875 121.333984375 c 0
 24.388671875 88.880859375 45.5458984375 65.32421875 70.1845703125 44.2158203125 c 0
 94.982421875 25.587890625 123.927734375 17.2978515625 154.275390625 13.85546875 c 0
 195.560546875 10.0693359375 234.065429688 23.7216796875 266.573242188 48.6513671875 c 0
 291.41796875 68.42578125 308.573242188 95.1591796875 319.723632812 124.5703125 c 0
 330.03125 151.447265625 334.484375 179.865234375 334.87890625 208.518554688 c 0
 335.533203125 232.987304688 333.255859375 257.6015625 329.344726562 281.75390625 c 0
 328.581054688 286.0546875 327.821289062 290.356445312 327.059570312 294.657226562 c 0
 313.395507812 354.42578125 219.478515625 332.954101562 233.140625 273.184570312 c 0
 233.875 269.935546875 234.608398438 266.68359375 235.342773438 263.434570312 c 0
 238.241210938 244.025390625 239.547851562 224.27734375 238.559570312 204.666015625 c 0
 237.384765625 186.038085938 234.206054688 167.212890625 227.034179688 149.904296875 c 0
 218.4765625 134.967773438 208.874023438 121.966796875 194.040039062 112.5859375 c 0
 191.301757812 111.018554688 188.38671875 109.8203125 185.913085938 108.961914062 c 1
 189.268554688 109.729492188 193.947265625 110.719726562 201.262695312 112.063476562 c 0
 209.46484375 113.5703125 170.782226562 101.561523438 176.6875 107.446289062 c 1
 163.216796875 104.227539062 149.880859375 107.807617188 137.515625 113.16796875 c 0
 124.923828125 122.362304688 114.153320312 130.239257812 109.90234375 146.151367188 c 0
 104.791015625 164.860351562 106.802734375 183.48046875 111.314453125 202.297851562 c 0
 117.704101562 227.666992188 127.997070312 251.7109375 134.666992188 276.984375 c 0
 146.245117188 312.802734375 115.413085938 337.603515625 86.134765625 337.177734375 c 0
185.913085938 108.961914062 m 1
 176.983398438 106.918945312 179.890625 106.870117188 185.913085938 108.961914062 c 1
EndSplineSet
EndChar

StartChar: oacute
Encoding: 49 243 49
Width: 368
VWidth: 1074
Flags: HW
LayerCount: 2
Fore
SplineSet
282.75390625 662.9140625 m 0
 269.5234375 663.1640625 256.178710938 657.561523438 246.182617188 643.620117188 c 0
 232.47265625 633.424804688 239.599609375 638.97265625 224.883789062 626.862304688 c 0
 199.583007812 604.258789062 171.75390625 584.354492188 148.75 559.33203125 c 0
 111.889648438 511.561523438 186.953125 453.637695312 223.817382812 501.409179688 c 1
 254.556640625 520.749023438 281.857421875 544.236328125 307.694335938 569.638671875 c 0
 319.890625 582.869140625 314.45703125 576.799804688 324.077148438 587.779296875 c 0
 349.62109375 623.407226562 316.565429688 662.275390625 282.75390625 662.9140625 c 0
205.3984375 327.787109375 m 0
 196.805664062 327.682617188 188.392578125 326.657226562 180.021484375 325.0390625 c 0
 171.857421875 324.796875 163.654296875 324.186523438 155.456054688 323.284179688 c 0
 100.572265625 315.473632812 72.3388671875 289.595703125 40.3193359375 249.388671875 c 0
 17.798828125 218.84765625 11.3564453125 185.125976562 10 148.147460938 c 0
 11.001953125 115.815429688 22.609375 85.189453125 39.173828125 57.8251953125 c 0
 58.7177734375 30.251953125 86.01171875 12.12890625 115.979492188 -2.2890625 c 0
 146.096679688 -13.810546875 177.997070312 -15.7802734375 209.866210938 -14.6396484375 c 0
 254.216796875 -11.0302734375 294.525390625 9.568359375 322.724609375 43.4853515625 c 0
 342.750976562 66.7646484375 351.150390625 94.3818359375 356.989257812 123.805664062 c 0
 360.869140625 150.857421875 356.465820312 177.045898438 349.411132812 203.115234375 c 0
 341.145507812 229.147460938 329.37109375 252.895507812 313.293945312 274.94140625 c 0
 293.930664062 300.875976562 266.543945312 315.322265625 236.145507812 324.078125 c 0
 225.517578125 326.815429688 215.336914062 327.90234375 205.3984375 327.787109375 c 0
185.063476562 229.89453125 m 0
 194.778320312 229.89453125 204.549804688 228.763671875 214.486328125 226.479492188 c 1
 221.459960938 221.75390625 228.49609375 219.225585938 235.3046875 218.459960938 c 0
 245.901367188 205.791992188 252.40234375 191.923828125 257.760742188 176.149414062 c 0
 261.857421875 161.99609375 264.643554688 148.364257812 261.838867188 133.623046875 c 0
 258.575195312 118.651367188 252.409179688 105.684570312 241.017578125 94.9736328125 c 0
 232.5859375 89.2265625 210.58984375 79.9443359375 220.24609375 82.2392578125 c 0
 223.76171875 83.07421875 226.208007812 83.7001953125 228.677734375 84.3271484375 c 1
 226.641601562 83.46875 224.706054688 82.4931640625 223.291015625 81.421875 c 0
 204.129882812 77.7060546875 185.458984375 78.6787109375 166.243164062 81.7412109375 c 0
 149.171875 86.7060546875 134.149414062 94.912109375 121.419921875 107.471679688 c 0
 111.381835938 117.58203125 108.493164062 137.059570312 107.27734375 150.751953125 c 0
 108.4140625 170.383789062 112.84765625 186.702148438 126.208984375 202.094726562 c 0
 131.541015625 208.168945312 135.318359375 212.969726562 141.44921875 218.16796875 c 0
 142.413085938 218.984375 143.33984375 219.702148438 144.252929688 220.37890625 c 0
 155.735351562 218.251953125 168.109375 220.669921875 179.379882812 229.759765625 c 0
 181.272460938 229.833984375 183.16796875 229.89453125 185.063476562 229.89453125 c 0
156.719726562 226.572265625 m 0
 157.19921875 226.526367188 156.583984375 226.086914062 154.500976562 225.508789062 c 0
 152.869140625 225.0546875 151.264648438 224.483398438 149.670898438 223.8828125 c 1
 153.41796875 225.9375 156.071289062 226.627929688 156.719726562 226.572265625 c 0
139.744140625 221.454101562 m 0
 140.301757812 221.290039062 140.86328125 221.138671875 141.42578125 220.997070312 c 1
 140.284179688 220.684570312 139.1328125 220.4140625 137.95703125 220.247070312 c 0
 136.352539062 220.018554688 137.629882812 220.6171875 139.744140625 221.454101562 c 0
EndSplineSet
EndChar

StartChar: iacute
Encoding: 50 237 50
Width: 227
VWidth: 1074
Flags: HW
LayerCount: 2
Fore
SplineSet
169.231445312 644.994140625 m 0
 157.44140625 645.084960938 145.52734375 640.122070312 136.161132812 628.051757812 c 0
 122.182617188 617.9375 107.995117188 608.295898438 96.2529296875 595.391601562 c 0
 72.3955078125 570.92578125 46.005859375 548.3515625 26.40625 520.18359375 c 0
 -4.8359375 468.694335938 76.0732421875 419.6015625 107.315429688 471.090820312 c 1
 134.127929688 492.798828125 158.497070312 516.97265625 181.708007812 542.469726562 c 0
 189.516601562 552.665039062 201.71484375 562.836914062 207.56640625 572.645507812 c 0
 233.4609375 606.017578125 201.827148438 644.764648438 169.231445312 644.994140625 c 0
57.49609375 312.310546875 m 0
 33.0732421875 311.984375 8.7158203125 295.604492188 10.3662109375 264.553710938 c 0
 9.1259765625 231.142578125 11.07421875 197.489257812 15.638671875 164.370117188 c 0
 19.7060546875 132.694335938 21.5771484375 100.774414062 25.76953125 69.12890625 c 0
 27.427734375 68.7158203125 26.869140625 49.3857421875 27.5341796875 55.224609375 c 1
 17.6015625 -2.9619140625 109.034179688 -18.5712890625 118.966796875 39.615234375 c 0
 122.935546875 54.599609375 125.631835938 69.263671875 123.821289062 84.90234375 c 0
 120.709960938 116.979492188 116.866210938 148.938476562 113.6171875 181.006835938 c 0
 110.302734375 210.485351562 110.416992188 240.403320312 104.9921875 269.586914062 c 0
 103.44140625 298.754882812 80.4384765625 312.6171875 57.49609375 312.310546875 c 0
EndSplineSet
EndChar

StartChar: eacute
Encoding: 51 233 51
Width: 384
VWidth: 1074
Flags: HW
LayerCount: 2
Fore
SplineSet
249.55078125 673.3203125 m 0
 237.486328125 673.200195312 225.283203125 668.111328125 215.305664062 656.102539062 c 0
 193.473632812 641.231445312 171.514648438 625.569335938 153.836914062 605.799804688 c 0
 116.9765625 558.026367188 192.040039062 500.10546875 228.901367188 547.876953125 c 1
 250.458984375 561.875 271.115234375 576.791015625 290.779296875 593.383789062 c 0
 320.715820312 629.408203125 285.74609375 673.692382812 249.55078125 673.3203125 c 0
192.764648438 379.400390625 m 0
 161.774414062 379.166015625 132.130859375 367.859375 105.125976562 350.1171875 c 0
 79.294921875 330.524414062 56.1259765625 307.235351562 39.3662109375 279.444335938 c 0
 22.86328125 254.76171875 16.0224609375 227.125976562 11.1357421875 198.350585938 c 0
 7.5322265625 168.92578125 12.796875 141.09375 22.798828125 113.495117188 c 0
 35.61328125 83.7587890625 52.11328125 56.54296875 74.7705078125 33.3857421875 c 0
 97.810546875 10.8271484375 125.756835938 -3.1376953125 156.254882812 -12.4462890625 c 0
 181.961914062 -21.24609375 208.794921875 -24.197265625 235.760742188 -25.322265625 c 0
 263.73046875 -24.4248046875 289.423828125 -17.07421875 315.454101562 -6.3583984375 c 0
 323.143554688 -3.19140625 329.748046875 2.2431640625 337.399414062 5.4951171875 c 0
 373.118164062 25.1416015625 377.08203125 42.951171875 372.8671875 82.1064453125 c 1
 359.360351562 128.829101562 296.243164062 119.287109375 284.200195312 82.587890625 c 0
 282.215820312 81.6611328125 279.209960938 80.1142578125 274.514648438 77.8701171875 c 0
 268.719726562 74.826171875 260.208984375 72.0517578125 257.533203125 71.10546875 c 0
 251.109375 69.3046875 247.701171875 67.958984375 254.782226562 68.6298828125 c 1
 236.00390625 65.6298828125 216.076171875 69.6640625 198.043945312 74.9111328125 c 0
 180.166992188 79.560546875 162.45703125 83.6474609375 148.405273438 96.60546875 c 0
 138.075195312 106.3203125 130.247070312 117.981445312 123.125976562 130.115234375 c 1
 153.716796875 132.740234375 183.536132812 141.541992188 213.357421875 148.548828125 c 0
 264.069335938 159.993164062 292.555664062 177.189453125 316.728515625 220.982421875 c 0
 330.333984375 255.471679688 321.93359375 288.731445312 305.390625 320.196289062 c 0
 285.990234375 349.727539062 257.2578125 366.061523438 224.15234375 375.7734375 c 0
 213.573242188 378.325195312 203.09375 379.478515625 192.764648438 379.400390625 c 0
184.936523438 289.674804688 m 1
 185.771484375 289.734375 185.732421875 289.375976562 184.388671875 288.41796875 c 1
 197.408203125 285.6328125 209.62109375 283.778320312 220.233398438 274.80078125 c 0
 223.900390625 269.478515625 230.115234375 260.053710938 228.298828125 256.434570312 c 0
 225.6328125 252.99609375 223.393554688 251.317382812 219.892578125 249.631835938 c 1
 227.512695312 252.251953125 234.447265625 254.551757812 215.767578125 247.674804688 c 0
 214.912109375 247.461914062 214.05078125 247.26171875 213.190429688 247.053710938 c 0
 211.211914062 246.451171875 209.603515625 246.026367188 210.80859375 246.473632812 c 0
 210.80859375 246.474609375 210.869140625 246.48828125 210.869140625 246.48828125 c 1
 180.87890625 239.399414062 150.193359375 235.153320312 121.274414062 223.959960938 c 1
 120.260742188 224.03515625 119.264648438 224.064453125 118.280273438 224.079101562 c 1
 121.041992188 229.302734375 124.220703125 234.362304688 127.865234375 239.263671875 c 0
 141.552734375 254.943359375 155.4453125 271.034179688 173.694335938 281.5625 c 0
 191.301757812 289.806640625 173.203125 280.971679688 162.485351562 278.934570312 c 0
 150.415039062 276.638671875 180.426757812 289.33203125 184.938476562 289.668945312 c 1
 184.936523438 289.674804688 l 1
210.8671875 246.494140625 m 1
 211.642578125 246.676757812 212.416992188 246.866210938 213.190429688 247.053710938 c 0
 214.704101562 247.513671875 216.423828125 248.071289062 217.330078125 248.458007812 c 0
 218.295898438 248.865234375 219.090820312 249.245117188 219.892578125 249.631835938 c 1
 215.71875 248.196289062 211.487304688 246.723632812 210.8671875 246.494140625 c 1
EndSplineSet
EndChar

StartChar: aacute
Encoding: 52 225 52
Width: 458
VWidth: 1074
Flags: HW
LayerCount: 2
Fore
SplineSet
306.463867188 662.609375 m 2
 291.21875 662.389648438 276.334960938 654.828125 267.828125 637.044921875 c 0
 266.963867188 636.793945312 266.104492188 636.543945312 265.237304688 636.294921875 c 0
 241.70703125 618.591796875 217.8671875 600.890625 198.696289062 578.3046875 c 1
 161.831054688 530.533203125 236.899414062 472.60546875 273.763671875 520.376953125 c 1
 299.420898438 539.392578125 325.161132812 558.049804688 345.44140625 582.930664062 c 0
 347.962890625 587.384765625 350.477539062 591.846679688 352.994140625 596.307617188 c 0
 370.411132812 632.720703125 337.68359375 663.057617188 306.466796875 662.609375 c 2
 306.463867188 662.609375 l 2
207.564453125 375.338867188 m 1
 176.158203125 375.564453125 145.776367188 366.678710938 117.057617188 349.291015625 c 0
 89.7822265625 330.775390625 68.1923828125 305.791992188 47.541015625 280.438476562 c 0
 30.6142578125 254.188476562 18.3359375 226.358398438 13.029296875 195.587890625 c 0
 7.2109375 166.8515625 9.9765625 138.833984375 19.5810546875 111.38671875 c 0
 33.06640625 78.6943359375 59.83203125 57.962890625 89.2890625 40.484375 c 0
 116.83203125 24.9990234375 147.564453125 19.0625 178.619140625 16.150390625 c 0
 223.190429688 13.5869140625 259.967773438 37.212890625 290.380859375 67.001953125 c 0
 292.82421875 69.240234375 295.088867188 71.5751953125 297.21484375 73.98828125 c 1
 306.909179688 49.3759765625 322.635742188 28.0537109375 342.0546875 9.716796875 c 0
 359.043945312 -6.6826171875 378.66015625 -11.771484375 401.266601562 -14.4375 c 0
 457.627929688 -19.025390625 465.95703125 67.384765625 412.510742188 75.740234375 c 1
 399.282226562 85.9326171875 389.65625 100.431640625 384.450195312 116.234375 c 0
 379.251953125 135.385742188 376.565429688 155.002929688 372.522460938 174.409179688 c 0
 369.270507812 193.807617188 365.397460938 213.1171875 361.29296875 232.346679688 c 0
 358.762695312 245.243164062 356.002929688 258.262695312 351.475585938 270.624023438 c 1
 354.426757812 282.1171875 352.645507812 294.983398438 343.5859375 307.385742188 c 0
 320.64453125 339.59765625 287.864257812 357.634765625 250.969726562 369.319335938 c 0
 236.333007812 373.247070312 221.845703125 375.231445312 207.5703125 375.333984375 c 1
 207.564453125 375.338867188 l 1
197.052734375 281.396484375 m 0
 200.58203125 281.352539062 204.12109375 281.05859375 207.634765625 280.616210938 c 0
 223.604492188 276.328125 238.16796875 271.678710938 251.50390625 263.413085938 c 1
 248.274414062 250.481445312 246.677734375 237.155273438 245.6328125 223.6015625 c 0
 244.150390625 203.909179688 242.711914062 183.927734375 237.235351562 164.879882812 c 0
 231.567382812 147.958007812 225.165039062 133.895507812 210.724609375 122.455078125 c 0
 205.413085938 117.880859375 202.606445312 115.021484375 196.680664062 111.498046875 c 0
 195.633789062 110.875976562 193.383789062 109.924804688 191.823242188 109.250976562 c 0
 175.83203125 109.705078125 159.772460938 114.345703125 145.228515625 120.482421875 c 0
 131.530273438 125.645507812 117.258789062 133.086914062 109.006835938 145.428710938 c 0
 102.598632812 157.94140625 106.358398438 172.918945312 108.537109375 186.146484375 c 0
 113.427734375 203.244140625 121.900390625 219.3984375 133.455078125 232.948242188 c 0
 147.977539062 249.928710938 162.939453125 267.442382812 183.21484375 277.696289062 c 0
 201.958984375 284.708984375 182.202148438 277.04296875 172.272460938 275.547851562 c 0
 169.6015625 275.14453125 177.086914062 278.03515625 179.647460938 278.899414062 c 0
 185.315429688 280.8125 191.169921875 281.465820312 197.052734375 281.396484375 c 0
212.881835938 115.159179688 m 0
 212.729492188 115.127929688 207.080078125 113.0703125 202.124023438 109.560546875 c 0
 199.096679688 109.279296875 196.055664062 109.188476562 193.009765625 109.235351562 c 1
 207.904296875 113.317382812 213.024414062 115.186523438 212.881835938 115.159179688 c 0
415.858398438 73.783203125 m 1
 421.896484375 71.474609375 421.477539062 70.6845703125 415.858398438 73.783203125 c 1
EndSplineSet
EndChar

